M48
; DRILL file {KiCad 9.0.0-250-g02b756189b} date 2025-03-19T23:20:45-0500
; FORMAT={-:-/ absolute / inch / decimal}
; #@! TF.CreationDate,2025-03-19T23:20:45-05:00
; #@! TF.GenerationSoftware,Kicad,Pcbnew,9.0.0-250-g02b756189b
; #@! TF.FileFunction,Plated,1,4,PTH
FMAT,2
INCH
; #@! TA.AperFunction,Plated,PTH,ViaDrill
T1C0.0118
; #@! TA.AperFunction,Plated,PTH,ComponentDrill
T2C0.0300
; #@! TA.AperFunction,Plated,PTH,ComponentDrill
T3C0.0700
%
G90
G05
T1
X1.4055Y-6.4882
X1.4173Y-6.4173
X1.4173Y-6.5354
X1.4292Y-6.4645
X1.7126Y-6.4173
X1.7598Y-6.4055
X1.7835Y-6.4292
X1.8307Y-6.4173
X1.9882Y-6.3976
X2.0276Y-6.4006
X2.0276Y-6.4341
X2.2638Y-6.6732
X2.2716Y-6.622
X2.2835Y-6.5748
X2.2953Y-6.6457
T2
X1.3386Y-4.7264
X1.3386Y-4.7764
X1.3386Y-4.8264
X1.3386Y-4.8764
X1.3386Y-4.9264
X1.3386Y-4.9764
X1.3386Y-5.0264
X1.3386Y-5.0764
X1.3386Y-5.1264
X1.3386Y-5.1764
X1.3386Y-5.2264
X1.3386Y-5.2764
X1.3386Y-5.3264
X1.3386Y-5.3764
X1.3386Y-5.4264
X1.3386Y-5.6764
X1.3386Y-5.7264
X1.3386Y-5.7764
X1.3386Y-5.8264
X1.3386Y-5.8764
X1.3386Y-5.9264
X1.3386Y-5.9764
X1.811Y-4.7264
X1.811Y-4.7764
X1.811Y-4.8264
X1.811Y-4.8764
X1.811Y-4.9264
X1.811Y-4.9764
X1.811Y-5.0264
X1.811Y-5.0764
X1.811Y-5.1264
X1.811Y-5.1764
X1.811Y-5.2264
X1.811Y-5.2764
X1.811Y-5.3264
X1.811Y-5.3764
X1.811Y-5.4264
X1.811Y-5.6764
X1.811Y-5.7264
X1.811Y-5.7764
X1.811Y-5.8264
X1.811Y-5.8764
X1.811Y-5.9264
X1.811Y-5.9764
X2.2835Y-4.7264
X2.2835Y-4.7764
X2.2835Y-4.8264
X2.2835Y-4.8764
X2.2835Y-4.9264
X2.2835Y-4.9764
X2.2835Y-5.0264
X2.2835Y-5.0764
X2.2835Y-5.1264
X2.2835Y-5.1764
X2.2835Y-5.2264
X2.2835Y-5.2764
X2.2835Y-5.3264
X2.2835Y-5.3764
X2.2835Y-5.4264
X2.2835Y-5.6764
X2.2835Y-5.7264
X2.2835Y-5.7764
X2.2835Y-5.8264
X2.2835Y-5.8764
X2.2835Y-5.9264
X2.2835Y-5.9764
X2.7559Y-4.7264
X2.7559Y-4.7764
X2.7559Y-4.8264
X2.7559Y-4.8764
X2.7559Y-4.9264
X2.7559Y-4.9764
X2.7559Y-5.0264
X2.7559Y-5.0764
X2.7559Y-5.1264
X2.7559Y-5.1764
X2.7559Y-5.2264
X2.7559Y-5.2764
X2.7559Y-5.3264
X2.7559Y-5.3764
X2.7559Y-5.4264
X2.7559Y-5.6764
X2.7559Y-5.7264
X2.7559Y-5.7764
X2.7559Y-5.8264
X2.7559Y-5.8764
X2.7559Y-5.9264
X2.7559Y-5.9764
T3
X1.6535Y-4.1929
X1.8535Y-4.1929
X2.0535Y-4.1929
X2.2535Y-4.1929
M30
