%TF.GenerationSoftware,KiCad,Pcbnew,9.0.0-250-g02b756189b*%
%TF.CreationDate,2025-03-19T23:20:47-05:00*%
%TF.ProjectId,SSDTray,53534454-7261-4792-9e6b-696361645f70,rev?*%
%TF.SameCoordinates,Original*%
%TF.FileFunction,Copper,L1,Top*%
%TF.FilePolarity,Positive*%
%FSLAX46Y46*%
G04 Gerber Fmt 4.6, Leading zero omitted, Abs format (unit mm)*
G04 Created by KiCad (PCBNEW 9.0.0-250-g02b756189b) date 2025-03-19 23:20:47*
%MOMM*%
%LPD*%
G01*
G04 APERTURE LIST*
%TA.AperFunction,ComponentPad*%
%ADD10O,1.270000X1.168400*%
%TD*%
%TA.AperFunction,ComponentPad*%
%ADD11C,2.286000*%
%TD*%
%TA.AperFunction,ViaPad*%
%ADD12C,0.600000*%
%TD*%
%TA.AperFunction,Conductor*%
%ADD13C,0.400000*%
%TD*%
%TA.AperFunction,Conductor*%
%ADD14C,0.200000*%
%TD*%
G04 APERTURE END LIST*
D10*
%TO.P,J2,P1,P1*%
%TO.N,unconnected-(J2-PadP1)*%
X46000000Y-137830000D03*
%TO.P,J2,P2,P2*%
X46000000Y-136560000D03*
%TO.P,J2,P3,P3*%
X46000000Y-135290000D03*
%TO.P,J2,P4,P4*%
%TO.N,GND*%
X46000000Y-134020000D03*
%TO.P,J2,P5,P5*%
X46000000Y-132750000D03*
%TO.P,J2,P6,P6*%
X46000000Y-131480000D03*
%TO.P,J2,P7,P7*%
%TO.N,+5V*%
X46000000Y-130210000D03*
%TO.P,J2,P8,P8*%
X46000000Y-128940000D03*
%TO.P,J2,P9,P9*%
X46000000Y-127670000D03*
%TO.P,J2,P10,P10*%
%TO.N,GND*%
X46000000Y-126400000D03*
%TO.P,J2,P11,P11*%
X46000000Y-125130000D03*
%TO.P,J2,P12,P12*%
X46000000Y-123860000D03*
%TO.P,J2,P13,P13*%
%TO.N,+12V*%
X46000000Y-122590000D03*
%TO.P,J2,P14,P14*%
X46000000Y-121320000D03*
%TO.P,J2,P15,P15*%
X46000000Y-120050000D03*
%TO.P,J2,S1,S1*%
%TO.N,GND*%
X46000000Y-151800000D03*
%TO.P,J2,S2,S2*%
%TO.N,/SSD2_TX+*%
X46000000Y-150530000D03*
%TO.P,J2,S3,S3*%
%TO.N,/SSD2_TX-*%
X46000000Y-149260000D03*
%TO.P,J2,S4,S4*%
%TO.N,GND*%
X46000000Y-147990000D03*
%TO.P,J2,S5,S5*%
%TO.N,/SSD2_RX-*%
X46000000Y-146720000D03*
%TO.P,J2,S6,S6*%
%TO.N,/SSD2_RX+*%
X46000000Y-145450000D03*
%TO.P,J2,S7,S7*%
%TO.N,GND*%
X46000000Y-144180000D03*
%TD*%
%TO.P,J3,P1,P1*%
%TO.N,unconnected-(J3-PadP1)*%
X58000000Y-137830000D03*
%TO.P,J3,P2,P2*%
X58000000Y-136560000D03*
%TO.P,J3,P3,P3*%
X58000000Y-135290000D03*
%TO.P,J3,P4,P4*%
%TO.N,GND*%
X58000000Y-134020000D03*
%TO.P,J3,P5,P5*%
X58000000Y-132750000D03*
%TO.P,J3,P6,P6*%
X58000000Y-131480000D03*
%TO.P,J3,P7,P7*%
%TO.N,+5V*%
X58000000Y-130210000D03*
%TO.P,J3,P8,P8*%
X58000000Y-128940000D03*
%TO.P,J3,P9,P9*%
X58000000Y-127670000D03*
%TO.P,J3,P10,P10*%
%TO.N,GND*%
X58000000Y-126400000D03*
%TO.P,J3,P11,P11*%
X58000000Y-125130000D03*
%TO.P,J3,P12,P12*%
X58000000Y-123860000D03*
%TO.P,J3,P13,P13*%
%TO.N,+12V*%
X58000000Y-122590000D03*
%TO.P,J3,P14,P14*%
X58000000Y-121320000D03*
%TO.P,J3,P15,P15*%
X58000000Y-120050000D03*
%TO.P,J3,S1,S1*%
%TO.N,GND*%
X58000000Y-151800000D03*
%TO.P,J3,S2,S2*%
%TO.N,/SSD3_TX+*%
X58000000Y-150530000D03*
%TO.P,J3,S3,S3*%
%TO.N,/SSD3_TX-*%
X58000000Y-149260000D03*
%TO.P,J3,S4,S4*%
%TO.N,GND*%
X58000000Y-147990000D03*
%TO.P,J3,S5,S5*%
%TO.N,/SSD3_RX-*%
X58000000Y-146720000D03*
%TO.P,J3,S6,S6*%
%TO.N,/SSD3_RX+*%
X58000000Y-145450000D03*
%TO.P,J3,S7,S7*%
%TO.N,GND*%
X58000000Y-144180000D03*
%TD*%
%TO.P,J4,P1,P1*%
%TO.N,unconnected-(J4-PadP1)*%
X70000000Y-137830000D03*
%TO.P,J4,P2,P2*%
X70000000Y-136560000D03*
%TO.P,J4,P3,P3*%
X70000000Y-135290000D03*
%TO.P,J4,P4,P4*%
%TO.N,GND*%
X70000000Y-134020000D03*
%TO.P,J4,P5,P5*%
X70000000Y-132750000D03*
%TO.P,J4,P6,P6*%
X70000000Y-131480000D03*
%TO.P,J4,P7,P7*%
%TO.N,+5V*%
X70000000Y-130210000D03*
%TO.P,J4,P8,P8*%
X70000000Y-128940000D03*
%TO.P,J4,P9,P9*%
X70000000Y-127670000D03*
%TO.P,J4,P10,P10*%
%TO.N,GND*%
X70000000Y-126400000D03*
%TO.P,J4,P11,P11*%
X70000000Y-125130000D03*
%TO.P,J4,P12,P12*%
X70000000Y-123860000D03*
%TO.P,J4,P13,P13*%
%TO.N,+12V*%
X70000000Y-122590000D03*
%TO.P,J4,P14,P14*%
X70000000Y-121320000D03*
%TO.P,J4,P15,P15*%
X70000000Y-120050000D03*
%TO.P,J4,S1,S1*%
%TO.N,GND*%
X70000000Y-151800000D03*
%TO.P,J4,S2,S2*%
%TO.N,/SSD4_TX+*%
X70000000Y-150530000D03*
%TO.P,J4,S3,S3*%
%TO.N,/SSD4_TX-*%
X70000000Y-149260000D03*
%TO.P,J4,S4,S4*%
%TO.N,GND*%
X70000000Y-147990000D03*
%TO.P,J4,S5,S5*%
%TO.N,/SSD4_RX-*%
X70000000Y-146720000D03*
%TO.P,J4,S6,S6*%
%TO.N,/SSD4_RX+*%
X70000000Y-145450000D03*
%TO.P,J4,S7,S7*%
%TO.N,GND*%
X70000000Y-144180000D03*
%TD*%
%TO.P,J1,P1,P1*%
%TO.N,unconnected-(J1-PadP1)*%
X34000000Y-137830000D03*
%TO.P,J1,P2,P2*%
X34000000Y-136560000D03*
%TO.P,J1,P3,P3*%
X34000000Y-135290000D03*
%TO.P,J1,P4,P4*%
%TO.N,GND*%
X34000000Y-134020000D03*
%TO.P,J1,P5,P5*%
X34000000Y-132750000D03*
%TO.P,J1,P6,P6*%
X34000000Y-131480000D03*
%TO.P,J1,P7,P7*%
%TO.N,+5V*%
X34000000Y-130210000D03*
%TO.P,J1,P8,P8*%
X34000000Y-128940000D03*
%TO.P,J1,P9,P9*%
X34000000Y-127670000D03*
%TO.P,J1,P10,P10*%
%TO.N,GND*%
X34000000Y-126400000D03*
%TO.P,J1,P11,P11*%
X34000000Y-125130000D03*
%TO.P,J1,P12,P12*%
X34000000Y-123860000D03*
%TO.P,J1,P13,P13*%
%TO.N,+12V*%
X34000000Y-122590000D03*
%TO.P,J1,P14,P14*%
X34000000Y-121320000D03*
%TO.P,J1,P15,P15*%
X34000000Y-120050000D03*
%TO.P,J1,S1,S1*%
%TO.N,GND*%
X34000000Y-151800000D03*
%TO.P,J1,S2,S2*%
%TO.N,/SSD1_TX+*%
X34000000Y-150530000D03*
%TO.P,J1,S3,S3*%
%TO.N,/SSD1_TX-*%
X34000000Y-149260000D03*
%TO.P,J1,S4,S4*%
%TO.N,GND*%
X34000000Y-147990000D03*
%TO.P,J1,S5,S5*%
%TO.N,/SSD1_RX-*%
X34000000Y-146720000D03*
%TO.P,J1,S6,S6*%
%TO.N,/SSD1_RX+*%
X34000000Y-145450000D03*
%TO.P,J1,S7,S7*%
%TO.N,GND*%
X34000000Y-144180000D03*
%TD*%
D11*
%TO.P,U1,1,1*%
%TO.N,+12V*%
X57240000Y-106500000D03*
%TO.P,U1,2,2*%
%TO.N,GND*%
X52160000Y-106500000D03*
%TO.P,U1,3,3*%
X47080000Y-106500000D03*
%TO.P,U1,4,4*%
%TO.N,+5V*%
X42000000Y-106500000D03*
%TD*%
D12*
%TO.N,GND*%
X46500000Y-163000000D03*
X36000000Y-166000000D03*
X58000000Y-167000000D03*
X57500000Y-169500000D03*
X50500000Y-162500000D03*
X43500000Y-163000000D03*
X36000000Y-163000000D03*
%TO.N,/SSD1_TX-*%
X35699479Y-164800521D03*
%TO.N,/SSD1_TX+*%
X36300521Y-164199479D03*
%TO.N,/SSD2_TX-*%
X45300521Y-163300521D03*
%TO.N,/SSD2_TX+*%
X44699479Y-162699479D03*
%TO.N,/SSD3_TX-*%
X51500000Y-163425000D03*
%TO.N,/SSD3_TX+*%
X51500000Y-162575000D03*
%TO.N,/SSD4_TX+*%
X58300521Y-168800521D03*
%TO.N,/SSD4_TX-*%
X57699479Y-168199479D03*
%TD*%
D13*
%TO.N,+5V*%
X66227000Y-125167000D02*
X66227000Y-113700000D01*
X66227000Y-113700000D02*
X64703000Y-112176000D01*
X64703000Y-112176000D02*
X47676000Y-112176000D01*
X70000000Y-128940000D02*
X66227000Y-125167000D01*
X55305000Y-125025800D02*
X55305000Y-113954000D01*
X53527000Y-112176000D02*
X47676000Y-112176000D01*
X57949200Y-127670000D02*
X55305000Y-125025800D01*
X47676000Y-112176000D02*
X43500000Y-108000000D01*
X58000000Y-127670000D02*
X57949200Y-127670000D01*
X55305000Y-113954000D02*
X53527000Y-112176000D01*
X43748000Y-125748000D02*
X43748000Y-108248000D01*
X45670000Y-127670000D02*
X43748000Y-125748000D01*
X46000000Y-127670000D02*
X45670000Y-127670000D01*
X43748000Y-108248000D02*
X42000000Y-106500000D01*
X33949200Y-127670000D02*
X34000000Y-127670000D01*
X31937000Y-125657800D02*
X33949200Y-127670000D01*
X31937000Y-112938000D02*
X31937000Y-125657800D01*
X38375000Y-106500000D02*
X31937000Y-112938000D01*
X42000000Y-106500000D02*
X38375000Y-106500000D01*
X43500000Y-108000000D02*
X42000000Y-106500000D01*
X70000000Y-130210000D02*
X70000000Y-127670000D01*
X46000000Y-130210000D02*
X46000000Y-127670000D01*
X58000000Y-130210000D02*
X58000000Y-127670000D01*
D14*
%TO.N,/SSD1_TX-*%
X32167320Y-151061432D02*
X32167320Y-160985519D01*
X33614200Y-149645800D02*
X33582952Y-149645800D01*
X33582952Y-149645800D02*
X32167320Y-151061432D01*
X34000000Y-149260000D02*
X33614200Y-149645800D01*
X32167320Y-160985519D02*
X35699479Y-164517678D01*
X35699479Y-164517678D02*
X35699479Y-164800521D01*
%TO.N,/SSD1_TX+*%
X32617300Y-160799101D02*
X36017678Y-164199479D01*
X33582952Y-150915800D02*
X32617300Y-151881452D01*
X32617300Y-151881452D02*
X32617300Y-160799101D01*
X34000000Y-150915800D02*
X33582952Y-150915800D01*
X36017678Y-164199479D02*
X36300521Y-164199479D01*
X34000000Y-150530000D02*
X34000000Y-150915800D01*
%TO.N,unconnected-(J1-PadP1)*%
X34000000Y-135290000D02*
X34000000Y-137830000D01*
%TO.N,/SSD2_TX-*%
X46935000Y-150195000D02*
X48725000Y-151985000D01*
X48725000Y-159593199D02*
X45300521Y-163017678D01*
X46000000Y-149260000D02*
X46385800Y-149645800D01*
X48725000Y-158548052D02*
X48725000Y-159593199D01*
X46935000Y-150163752D02*
X46935000Y-150195000D01*
X46385800Y-149645800D02*
X46417048Y-149645800D01*
X48725000Y-158208259D02*
X48725000Y-158548052D01*
X45300521Y-163017678D02*
X45300521Y-163300521D01*
X48725000Y-151985000D02*
X48725000Y-158208259D01*
X46417048Y-149645800D02*
X46935000Y-150163752D01*
%TO.N,/SSD2_TX+*%
X46633603Y-150530000D02*
X46000000Y-150530000D01*
X48275000Y-157468052D02*
X48275000Y-157348052D01*
X44699479Y-162699479D02*
X44982322Y-162699479D01*
X48275000Y-152171397D02*
X46633603Y-150530000D01*
X44982322Y-162699479D02*
X48275000Y-159406801D01*
X47761510Y-157708052D02*
X48035000Y-157708052D01*
X48275000Y-157348052D02*
X48275000Y-156509297D01*
X48275000Y-159406801D02*
X48275000Y-158548052D01*
X48035000Y-158308052D02*
X47761510Y-158308052D01*
X48275000Y-156509297D02*
X48275000Y-152171397D01*
X47521510Y-158068052D02*
X47521510Y-157948052D01*
X48035000Y-157708052D02*
G75*
G03*
X48274952Y-157468052I0J239952D01*
G01*
X48275000Y-158548052D02*
G75*
G03*
X48035000Y-158308100I-240000J-48D01*
G01*
X47521510Y-157948052D02*
G75*
G02*
X47761510Y-157708110I239990J-48D01*
G01*
X47761510Y-158308052D02*
G75*
G02*
X47521548Y-158068052I-10J239952D01*
G01*
%TO.N,/SSD3_TX-*%
X58935000Y-150163752D02*
X58935000Y-150195000D01*
X58000000Y-149260000D02*
X58385800Y-149645800D01*
X52093199Y-163225001D02*
X51699999Y-163225001D01*
X58935000Y-150195000D02*
X61225000Y-152485000D01*
X61225000Y-152485000D02*
X61225000Y-154093200D01*
X58759121Y-157122678D02*
X58195522Y-157122678D01*
X58195522Y-157122678D02*
X52093199Y-163225001D01*
X61225000Y-154093200D02*
X59832680Y-155485520D01*
X59832680Y-155485520D02*
X59832680Y-156049119D01*
X58417048Y-149645800D02*
X58935000Y-150163752D01*
X51699999Y-163225001D02*
X51500000Y-163425000D01*
X58385800Y-149645800D02*
X58417048Y-149645800D01*
X59832680Y-156049119D02*
X58759121Y-157122678D01*
%TO.N,/SSD3_TX+*%
X60775000Y-153906800D02*
X60775000Y-152671397D01*
X60775000Y-152671397D02*
X58633603Y-150530000D01*
X51906801Y-162774999D02*
X55874419Y-158807381D01*
X55874420Y-158467969D02*
X55688410Y-158281959D01*
X56722949Y-157958852D02*
X57042456Y-157639344D01*
X57042456Y-157639344D02*
X58009102Y-156672698D01*
X58572733Y-156672698D02*
X59382700Y-155862731D01*
X59382700Y-155299100D02*
X60775000Y-153906800D01*
X58633603Y-150530000D02*
X58000000Y-150530000D01*
X58009102Y-156672698D02*
X58572733Y-156672698D01*
X51500000Y-162575000D02*
X51699999Y-162774999D01*
X55688409Y-157942549D02*
X55773264Y-157857695D01*
X51699999Y-162774999D02*
X51906801Y-162774999D01*
X59382700Y-155862731D02*
X59382700Y-155299100D01*
X56638097Y-158043706D02*
X56722949Y-157958852D01*
X56112674Y-157857696D02*
X56298685Y-158043707D01*
X56298685Y-158043707D02*
G75*
G03*
X56638106Y-158043716I169715J169707D01*
G01*
X55874419Y-158807381D02*
G75*
G03*
X55874395Y-158467994I-169719J169681D01*
G01*
X55688410Y-158281959D02*
G75*
G02*
X55688455Y-157942596I169690J169659D01*
G01*
X55773264Y-157857695D02*
G75*
G02*
X56112705Y-157857664I169736J-169705D01*
G01*
%TO.N,/SSD4_TX+*%
X70000000Y-150530000D02*
X70000000Y-150915800D01*
X68617300Y-151881452D02*
X68617300Y-158200899D01*
X68617300Y-158200899D02*
X58300521Y-168517678D01*
X58300521Y-168517678D02*
X58300521Y-168800521D01*
X69582952Y-150915800D02*
X68617300Y-151881452D01*
X70000000Y-150915800D02*
X69582952Y-150915800D01*
%TO.N,/SSD4_TX-*%
X69614200Y-149645800D02*
X70000000Y-149260000D01*
X60765693Y-165416109D02*
X61223241Y-164958560D01*
X59917163Y-165680926D02*
X60049572Y-165548518D01*
X57982322Y-168199479D02*
X59917163Y-166264638D01*
X61223241Y-164958560D02*
X68167320Y-158014481D01*
X60633286Y-165548518D02*
X60765693Y-165416109D01*
X69582952Y-149645800D02*
X69614200Y-149645800D01*
X68167320Y-151061432D02*
X69582952Y-149645800D01*
X57699479Y-168199479D02*
X57982322Y-168199479D01*
X68167320Y-158014481D02*
X68167320Y-151061432D01*
X60049572Y-165548518D02*
G75*
G02*
X60341429Y-165548519I145928J-145882D01*
G01*
X60341428Y-165548519D02*
G75*
G03*
X60633329Y-165548562I145972J145919D01*
G01*
X59917163Y-165972782D02*
G75*
G02*
X59917209Y-165680972I145937J145882D01*
G01*
X59917163Y-166264638D02*
G75*
G03*
X59917173Y-165972772I-145963J145938D01*
G01*
%TO.N,unconnected-(J2-PadP1)*%
X46000000Y-135290000D02*
X46000000Y-137830000D01*
%TO.N,unconnected-(J3-PadP1)*%
X58000000Y-135290000D02*
X58000000Y-137830000D01*
%TO.N,unconnected-(J4-PadP1)*%
X70000000Y-135290000D02*
X70000000Y-137830000D01*
%TD*%
%TA.AperFunction,Conductor*%
%TO.N,GND*%
G36*
X34250000Y-133731184D02*
G01*
X34233940Y-133715124D01*
X34147061Y-133664964D01*
X34050160Y-133639000D01*
X33949840Y-133639000D01*
X33852939Y-133664964D01*
X33766060Y-133715124D01*
X33750000Y-133731184D01*
X33750000Y-133038816D01*
X33766060Y-133054876D01*
X33852939Y-133105036D01*
X33949840Y-133131000D01*
X34050160Y-133131000D01*
X34147061Y-133105036D01*
X34233940Y-133054876D01*
X34250000Y-133038816D01*
X34250000Y-133731184D01*
G37*
%TD.AperFunction*%
%TA.AperFunction,Conductor*%
G36*
X46250000Y-133731184D02*
G01*
X46233940Y-133715124D01*
X46147061Y-133664964D01*
X46050160Y-133639000D01*
X45949840Y-133639000D01*
X45852939Y-133664964D01*
X45766060Y-133715124D01*
X45750000Y-133731184D01*
X45750000Y-133038816D01*
X45766060Y-133054876D01*
X45852939Y-133105036D01*
X45949840Y-133131000D01*
X46050160Y-133131000D01*
X46147061Y-133105036D01*
X46233940Y-133054876D01*
X46250000Y-133038816D01*
X46250000Y-133731184D01*
G37*
%TD.AperFunction*%
%TA.AperFunction,Conductor*%
G36*
X58250000Y-133731184D02*
G01*
X58233940Y-133715124D01*
X58147061Y-133664964D01*
X58050160Y-133639000D01*
X57949840Y-133639000D01*
X57852939Y-133664964D01*
X57766060Y-133715124D01*
X57750000Y-133731184D01*
X57750000Y-133038816D01*
X57766060Y-133054876D01*
X57852939Y-133105036D01*
X57949840Y-133131000D01*
X58050160Y-133131000D01*
X58147061Y-133105036D01*
X58233940Y-133054876D01*
X58250000Y-133038816D01*
X58250000Y-133731184D01*
G37*
%TD.AperFunction*%
%TA.AperFunction,Conductor*%
G36*
X70250000Y-133731184D02*
G01*
X70233940Y-133715124D01*
X70147061Y-133664964D01*
X70050160Y-133639000D01*
X69949840Y-133639000D01*
X69852939Y-133664964D01*
X69766060Y-133715124D01*
X69750000Y-133731184D01*
X69750000Y-133038816D01*
X69766060Y-133054876D01*
X69852939Y-133105036D01*
X69949840Y-133131000D01*
X70050160Y-133131000D01*
X70147061Y-133105036D01*
X70233940Y-133054876D01*
X70250000Y-133038816D01*
X70250000Y-133731184D01*
G37*
%TD.AperFunction*%
%TA.AperFunction,Conductor*%
G36*
X34250000Y-132461184D02*
G01*
X34233940Y-132445124D01*
X34147061Y-132394964D01*
X34050160Y-132369000D01*
X33949840Y-132369000D01*
X33852939Y-132394964D01*
X33766060Y-132445124D01*
X33750000Y-132461184D01*
X33750000Y-131768816D01*
X33766060Y-131784876D01*
X33852939Y-131835036D01*
X33949840Y-131861000D01*
X34050160Y-131861000D01*
X34147061Y-131835036D01*
X34233940Y-131784876D01*
X34250000Y-131768816D01*
X34250000Y-132461184D01*
G37*
%TD.AperFunction*%
%TA.AperFunction,Conductor*%
G36*
X46250000Y-132461184D02*
G01*
X46233940Y-132445124D01*
X46147061Y-132394964D01*
X46050160Y-132369000D01*
X45949840Y-132369000D01*
X45852939Y-132394964D01*
X45766060Y-132445124D01*
X45750000Y-132461184D01*
X45750000Y-131768816D01*
X45766060Y-131784876D01*
X45852939Y-131835036D01*
X45949840Y-131861000D01*
X46050160Y-131861000D01*
X46147061Y-131835036D01*
X46233940Y-131784876D01*
X46250000Y-131768816D01*
X46250000Y-132461184D01*
G37*
%TD.AperFunction*%
%TA.AperFunction,Conductor*%
G36*
X58250000Y-132461184D02*
G01*
X58233940Y-132445124D01*
X58147061Y-132394964D01*
X58050160Y-132369000D01*
X57949840Y-132369000D01*
X57852939Y-132394964D01*
X57766060Y-132445124D01*
X57750000Y-132461184D01*
X57750000Y-131768816D01*
X57766060Y-131784876D01*
X57852939Y-131835036D01*
X57949840Y-131861000D01*
X58050160Y-131861000D01*
X58147061Y-131835036D01*
X58233940Y-131784876D01*
X58250000Y-131768816D01*
X58250000Y-132461184D01*
G37*
%TD.AperFunction*%
%TA.AperFunction,Conductor*%
G36*
X70250000Y-132461184D02*
G01*
X70233940Y-132445124D01*
X70147061Y-132394964D01*
X70050160Y-132369000D01*
X69949840Y-132369000D01*
X69852939Y-132394964D01*
X69766060Y-132445124D01*
X69750000Y-132461184D01*
X69750000Y-131768816D01*
X69766060Y-131784876D01*
X69852939Y-131835036D01*
X69949840Y-131861000D01*
X70050160Y-131861000D01*
X70147061Y-131835036D01*
X70233940Y-131784876D01*
X70250000Y-131768816D01*
X70250000Y-132461184D01*
G37*
%TD.AperFunction*%
%TA.AperFunction,Conductor*%
G36*
X34250000Y-126111184D02*
G01*
X34233940Y-126095124D01*
X34147061Y-126044964D01*
X34050160Y-126019000D01*
X33949840Y-126019000D01*
X33852939Y-126044964D01*
X33766060Y-126095124D01*
X33750000Y-126111184D01*
X33750000Y-125418816D01*
X33766060Y-125434876D01*
X33852939Y-125485036D01*
X33949840Y-125511000D01*
X34050160Y-125511000D01*
X34147061Y-125485036D01*
X34233940Y-125434876D01*
X34250000Y-125418816D01*
X34250000Y-126111184D01*
G37*
%TD.AperFunction*%
%TA.AperFunction,Conductor*%
G36*
X46250000Y-126111184D02*
G01*
X46233940Y-126095124D01*
X46147061Y-126044964D01*
X46050160Y-126019000D01*
X45949840Y-126019000D01*
X45852939Y-126044964D01*
X45766060Y-126095124D01*
X45750000Y-126111184D01*
X45750000Y-125418816D01*
X45766060Y-125434876D01*
X45852939Y-125485036D01*
X45949840Y-125511000D01*
X46050160Y-125511000D01*
X46147061Y-125485036D01*
X46233940Y-125434876D01*
X46250000Y-125418816D01*
X46250000Y-126111184D01*
G37*
%TD.AperFunction*%
%TA.AperFunction,Conductor*%
G36*
X58250000Y-126111184D02*
G01*
X58233940Y-126095124D01*
X58147061Y-126044964D01*
X58050160Y-126019000D01*
X57949840Y-126019000D01*
X57852939Y-126044964D01*
X57766060Y-126095124D01*
X57750000Y-126111184D01*
X57750000Y-125418816D01*
X57766060Y-125434876D01*
X57852939Y-125485036D01*
X57949840Y-125511000D01*
X58050160Y-125511000D01*
X58147061Y-125485036D01*
X58233940Y-125434876D01*
X58250000Y-125418816D01*
X58250000Y-126111184D01*
G37*
%TD.AperFunction*%
%TA.AperFunction,Conductor*%
G36*
X70250000Y-126111184D02*
G01*
X70233940Y-126095124D01*
X70147061Y-126044964D01*
X70050160Y-126019000D01*
X69949840Y-126019000D01*
X69852939Y-126044964D01*
X69766060Y-126095124D01*
X69750000Y-126111184D01*
X69750000Y-125418816D01*
X69766060Y-125434876D01*
X69852939Y-125485036D01*
X69949840Y-125511000D01*
X70050160Y-125511000D01*
X70147061Y-125485036D01*
X70233940Y-125434876D01*
X70250000Y-125418816D01*
X70250000Y-126111184D01*
G37*
%TD.AperFunction*%
%TA.AperFunction,Conductor*%
G36*
X34250000Y-124841184D02*
G01*
X34233940Y-124825124D01*
X34147061Y-124774964D01*
X34050160Y-124749000D01*
X33949840Y-124749000D01*
X33852939Y-124774964D01*
X33766060Y-124825124D01*
X33750000Y-124841184D01*
X33750000Y-124148816D01*
X33766060Y-124164876D01*
X33852939Y-124215036D01*
X33949840Y-124241000D01*
X34050160Y-124241000D01*
X34147061Y-124215036D01*
X34233940Y-124164876D01*
X34250000Y-124148816D01*
X34250000Y-124841184D01*
G37*
%TD.AperFunction*%
%TA.AperFunction,Conductor*%
G36*
X46250000Y-124841184D02*
G01*
X46233940Y-124825124D01*
X46147061Y-124774964D01*
X46050160Y-124749000D01*
X45949840Y-124749000D01*
X45852939Y-124774964D01*
X45766060Y-124825124D01*
X45750000Y-124841184D01*
X45750000Y-124148816D01*
X45766060Y-124164876D01*
X45852939Y-124215036D01*
X45949840Y-124241000D01*
X46050160Y-124241000D01*
X46147061Y-124215036D01*
X46233940Y-124164876D01*
X46250000Y-124148816D01*
X46250000Y-124841184D01*
G37*
%TD.AperFunction*%
%TA.AperFunction,Conductor*%
G36*
X58250000Y-124841184D02*
G01*
X58233940Y-124825124D01*
X58147061Y-124774964D01*
X58050160Y-124749000D01*
X57949840Y-124749000D01*
X57852939Y-124774964D01*
X57766060Y-124825124D01*
X57750000Y-124841184D01*
X57750000Y-124148816D01*
X57766060Y-124164876D01*
X57852939Y-124215036D01*
X57949840Y-124241000D01*
X58050160Y-124241000D01*
X58147061Y-124215036D01*
X58233940Y-124164876D01*
X58250000Y-124148816D01*
X58250000Y-124841184D01*
G37*
%TD.AperFunction*%
%TA.AperFunction,Conductor*%
G36*
X70250000Y-124841184D02*
G01*
X70233940Y-124825124D01*
X70147061Y-124774964D01*
X70050160Y-124749000D01*
X69949840Y-124749000D01*
X69852939Y-124774964D01*
X69766060Y-124825124D01*
X69750000Y-124841184D01*
X69750000Y-124148816D01*
X69766060Y-124164876D01*
X69852939Y-124215036D01*
X69949840Y-124241000D01*
X70050160Y-124241000D01*
X70147061Y-124215036D01*
X70233940Y-124164876D01*
X70250000Y-124148816D01*
X70250000Y-124841184D01*
G37*
%TD.AperFunction*%
%TA.AperFunction,Conductor*%
G36*
X72942539Y-101520185D02*
G01*
X72988294Y-101572989D01*
X72999500Y-101624500D01*
X72999500Y-170225500D01*
X72979815Y-170292539D01*
X72927011Y-170338294D01*
X72875500Y-170349500D01*
X28624500Y-170349500D01*
X28557461Y-170329815D01*
X28511706Y-170277011D01*
X28500500Y-170225500D01*
X28500500Y-168120632D01*
X56898979Y-168120632D01*
X56898979Y-168278325D01*
X56929740Y-168432968D01*
X56929743Y-168432980D01*
X56990081Y-168578651D01*
X56990088Y-168578664D01*
X57077689Y-168709767D01*
X57077692Y-168709771D01*
X57189186Y-168821265D01*
X57189190Y-168821268D01*
X57320293Y-168908869D01*
X57320306Y-168908876D01*
X57464350Y-168968540D01*
X57518754Y-169012380D01*
X57531459Y-169035649D01*
X57591123Y-169179693D01*
X57591130Y-169179706D01*
X57678731Y-169310809D01*
X57678734Y-169310813D01*
X57790228Y-169422307D01*
X57790232Y-169422310D01*
X57921335Y-169509911D01*
X57921348Y-169509918D01*
X58067019Y-169570256D01*
X58067024Y-169570258D01*
X58221674Y-169601020D01*
X58221677Y-169601021D01*
X58221679Y-169601021D01*
X58379365Y-169601021D01*
X58379366Y-169601020D01*
X58534018Y-169570258D01*
X58679700Y-169509915D01*
X58810810Y-169422310D01*
X58922310Y-169310810D01*
X59009915Y-169179700D01*
X59070258Y-169034018D01*
X59101021Y-168879363D01*
X59101021Y-168721679D01*
X59101021Y-168721676D01*
X59088191Y-168657178D01*
X59094418Y-168587586D01*
X59122125Y-168545307D01*
X69097820Y-158569615D01*
X69176877Y-158432683D01*
X69217801Y-158279956D01*
X69217801Y-158121841D01*
X69217801Y-158114246D01*
X69217800Y-158114228D01*
X69217800Y-156533965D01*
X69237485Y-156466926D01*
X69290289Y-156421171D01*
X69359447Y-156411227D01*
X69398093Y-156423480D01*
X69448431Y-156449128D01*
X69507417Y-156479184D01*
X69507424Y-156479187D01*
X69603469Y-156510393D01*
X69699517Y-156541601D01*
X69899010Y-156573198D01*
X69899011Y-156573198D01*
X70100989Y-156573198D01*
X70100990Y-156573198D01*
X70300483Y-156541601D01*
X70492578Y-156479186D01*
X70672543Y-156387489D01*
X70835949Y-156268768D01*
X70978770Y-156125947D01*
X71097491Y-155962541D01*
X71189188Y-155782576D01*
X71251603Y-155590481D01*
X71283200Y-155390988D01*
X71283200Y-155189008D01*
X71251603Y-154989515D01*
X71189188Y-154797420D01*
X71189188Y-154797419D01*
X71157433Y-154735099D01*
X71097491Y-154617455D01*
X71072397Y-154582916D01*
X70978775Y-154454055D01*
X70978771Y-154454050D01*
X70835947Y-154311226D01*
X70835942Y-154311222D01*
X70672546Y-154192509D01*
X70672545Y-154192508D01*
X70672543Y-154192507D01*
X70601905Y-154156515D01*
X70492578Y-154100809D01*
X70492575Y-154100808D01*
X70300484Y-154038395D01*
X70200736Y-154022596D01*
X70100990Y-154006798D01*
X69899010Y-154006798D01*
X69852636Y-154014143D01*
X69699515Y-154038395D01*
X69507424Y-154100808D01*
X69507421Y-154100809D01*
X69398095Y-154156515D01*
X69329426Y-154169411D01*
X69264685Y-154143135D01*
X69224428Y-154086028D01*
X69217800Y-154046030D01*
X69217800Y-152846509D01*
X69237485Y-152779470D01*
X69290289Y-152733715D01*
X69359447Y-152723771D01*
X69398095Y-152736025D01*
X69533002Y-152804764D01*
X69533004Y-152804765D01*
X69695315Y-152857504D01*
X69749999Y-152866163D01*
X69750000Y-152866163D01*
X69750000Y-152088816D01*
X69766060Y-152104876D01*
X69852939Y-152155036D01*
X69949840Y-152181000D01*
X70050160Y-152181000D01*
X70147061Y-152155036D01*
X70233940Y-152104876D01*
X70250000Y-152088816D01*
X70250000Y-152866163D01*
X70304684Y-152857504D01*
X70466991Y-152804766D01*
X70619048Y-152727288D01*
X70757102Y-152626987D01*
X70757107Y-152626983D01*
X70877783Y-152506307D01*
X70877787Y-152506302D01*
X70978088Y-152368248D01*
X71055566Y-152216191D01*
X71108301Y-152053891D01*
X71108305Y-152053875D01*
X71108918Y-152050001D01*
X71108918Y-152050000D01*
X70288816Y-152050000D01*
X70304876Y-152033940D01*
X70355036Y-151947061D01*
X70381000Y-151850160D01*
X70381000Y-151749840D01*
X70355036Y-151652939D01*
X70315526Y-151584506D01*
X70372577Y-151565969D01*
X70403048Y-151556069D01*
X70441366Y-151550000D01*
X71108918Y-151550000D01*
X71108918Y-151549998D01*
X71108305Y-151546124D01*
X71108301Y-151546108D01*
X71055566Y-151383808D01*
X70978088Y-151231749D01*
X70977179Y-151230266D01*
X70977005Y-151229625D01*
X70975879Y-151227414D01*
X70976343Y-151227177D01*
X70958937Y-151162820D01*
X70976519Y-151102956D01*
X70976307Y-151102848D01*
X70976883Y-151101716D01*
X70977190Y-151100673D01*
X70978507Y-151098522D01*
X70978519Y-151098507D01*
X71056031Y-150946380D01*
X71093960Y-150829647D01*
X71108790Y-150784005D01*
X71108790Y-150784004D01*
X71108791Y-150784001D01*
X71135500Y-150615368D01*
X71135500Y-150444632D01*
X71108791Y-150275999D01*
X71108790Y-150275995D01*
X71108790Y-150275994D01*
X71056032Y-150113622D01*
X71056030Y-150113619D01*
X70978519Y-149961493D01*
X70978510Y-149961481D01*
X70977481Y-149959801D01*
X70977281Y-149959065D01*
X70976307Y-149957152D01*
X70976708Y-149956947D01*
X70959230Y-149892357D01*
X70976651Y-149833023D01*
X70976307Y-149832848D01*
X70977242Y-149831012D01*
X70977481Y-149830199D01*
X70978506Y-149828523D01*
X70978519Y-149828507D01*
X71056031Y-149676380D01*
X71056032Y-149676377D01*
X71108790Y-149514005D01*
X71108790Y-149514004D01*
X71108791Y-149514001D01*
X71135500Y-149345368D01*
X71135500Y-149174632D01*
X71108791Y-149005999D01*
X71108790Y-149005995D01*
X71108790Y-149005994D01*
X71056032Y-148843622D01*
X71056030Y-148843619D01*
X70978519Y-148691493D01*
X70977181Y-148689310D01*
X70976925Y-148688366D01*
X70976307Y-148687152D01*
X70976562Y-148687022D01*
X70958936Y-148621864D01*
X70976285Y-148562792D01*
X70975879Y-148562586D01*
X70976980Y-148560423D01*
X70977189Y-148559715D01*
X70978094Y-148558237D01*
X71055566Y-148406191D01*
X71108301Y-148243891D01*
X71108305Y-148243875D01*
X71108918Y-148240001D01*
X71108918Y-148240000D01*
X70441366Y-148240000D01*
X70403048Y-148233931D01*
X70315526Y-148205493D01*
X70355036Y-148137061D01*
X70381000Y-148040160D01*
X70381000Y-147939840D01*
X70355036Y-147842939D01*
X70315526Y-147774506D01*
X70372577Y-147755969D01*
X70403048Y-147746069D01*
X70441366Y-147740000D01*
X71108918Y-147740000D01*
X71108918Y-147739998D01*
X71108305Y-147736124D01*
X71108301Y-147736108D01*
X71055566Y-147573808D01*
X70978088Y-147421749D01*
X70977179Y-147420266D01*
X70977005Y-147419625D01*
X70975879Y-147417414D01*
X70976343Y-147417177D01*
X70958937Y-147352820D01*
X70976519Y-147292956D01*
X70976307Y-147292848D01*
X70976883Y-147291716D01*
X70977190Y-147290673D01*
X70978507Y-147288522D01*
X70978519Y-147288507D01*
X71056031Y-147136380D01*
X71108791Y-146974001D01*
X71135500Y-146805368D01*
X71135500Y-146634632D01*
X71108791Y-146465999D01*
X71108790Y-146465995D01*
X71108790Y-146465994D01*
X71056032Y-146303622D01*
X71056030Y-146303619D01*
X70978519Y-146151493D01*
X70978510Y-146151481D01*
X70977481Y-146149801D01*
X70977281Y-146149065D01*
X70976307Y-146147152D01*
X70976708Y-146146947D01*
X70959230Y-146082357D01*
X70976651Y-146023023D01*
X70976307Y-146022848D01*
X70977242Y-146021012D01*
X70977481Y-146020199D01*
X70978506Y-146018523D01*
X70978519Y-146018507D01*
X71056031Y-145866380D01*
X71108791Y-145704001D01*
X71135500Y-145535368D01*
X71135500Y-145364632D01*
X71108791Y-145195999D01*
X71108790Y-145195995D01*
X71108790Y-145195994D01*
X71056032Y-145033622D01*
X71056030Y-145033619D01*
X70978519Y-144881493D01*
X70977181Y-144879310D01*
X70976925Y-144878366D01*
X70976307Y-144877152D01*
X70976562Y-144877022D01*
X70958936Y-144811864D01*
X70976285Y-144752792D01*
X70975879Y-144752586D01*
X70976980Y-144750423D01*
X70977189Y-144749715D01*
X70978094Y-144748237D01*
X71055566Y-144596191D01*
X71108301Y-144433891D01*
X71108305Y-144433875D01*
X71108918Y-144430001D01*
X71108918Y-144430000D01*
X70441366Y-144430000D01*
X70403048Y-144423931D01*
X70315526Y-144395493D01*
X70355036Y-144327061D01*
X70381000Y-144230160D01*
X70381000Y-144129840D01*
X70355036Y-144032939D01*
X70304876Y-143946060D01*
X70288816Y-143930000D01*
X71108918Y-143930000D01*
X71108918Y-143929998D01*
X71108305Y-143926124D01*
X71108301Y-143926108D01*
X71055566Y-143763808D01*
X70978088Y-143611751D01*
X70877787Y-143473697D01*
X70877783Y-143473692D01*
X70757107Y-143353016D01*
X70757102Y-143353012D01*
X70619048Y-143252711D01*
X70466991Y-143175233D01*
X70304684Y-143122495D01*
X70250000Y-143113834D01*
X70250000Y-143891184D01*
X70233940Y-143875124D01*
X70147061Y-143824964D01*
X70050160Y-143799000D01*
X69949840Y-143799000D01*
X69852939Y-143824964D01*
X69766060Y-143875124D01*
X69750000Y-143891184D01*
X69750000Y-143113834D01*
X69695315Y-143122495D01*
X69533008Y-143175233D01*
X69380951Y-143252711D01*
X69242897Y-143353012D01*
X69242892Y-143353016D01*
X69122216Y-143473692D01*
X69122212Y-143473697D01*
X69021911Y-143611751D01*
X68944433Y-143763808D01*
X68891698Y-143926108D01*
X68891694Y-143926124D01*
X68891081Y-143929998D01*
X68891082Y-143930000D01*
X69711184Y-143930000D01*
X69695124Y-143946060D01*
X69644964Y-144032939D01*
X69619000Y-144129840D01*
X69619000Y-144230160D01*
X69644964Y-144327061D01*
X69684473Y-144395493D01*
X69596952Y-144423931D01*
X69558634Y-144430000D01*
X68891082Y-144430000D01*
X68891081Y-144430001D01*
X68891694Y-144433875D01*
X68891698Y-144433891D01*
X68944433Y-144596191D01*
X69021913Y-144748253D01*
X69022823Y-144749738D01*
X69022996Y-144750378D01*
X69024121Y-144752586D01*
X69023657Y-144752822D01*
X69041062Y-144817185D01*
X69023486Y-144877047D01*
X69023693Y-144877153D01*
X69023131Y-144878254D01*
X69022825Y-144879299D01*
X69021485Y-144881485D01*
X68943968Y-145033619D01*
X68943967Y-145033622D01*
X68891209Y-145195994D01*
X68891209Y-145195997D01*
X68864500Y-145364632D01*
X68864500Y-145535367D01*
X68891209Y-145704002D01*
X68891209Y-145704005D01*
X68943967Y-145866377D01*
X68943969Y-145866380D01*
X69021480Y-146018506D01*
X69022526Y-146020212D01*
X69022725Y-146020948D01*
X69023693Y-146022848D01*
X69023293Y-146023051D01*
X69040768Y-146087659D01*
X69023351Y-146146977D01*
X69023693Y-146147152D01*
X69022765Y-146148972D01*
X69022526Y-146149788D01*
X69021480Y-146151493D01*
X68943969Y-146303619D01*
X68943967Y-146303622D01*
X68891209Y-146465994D01*
X68891209Y-146465997D01*
X68864500Y-146634632D01*
X68864500Y-146805367D01*
X68891209Y-146974002D01*
X68891209Y-146974005D01*
X68943967Y-147136377D01*
X68943969Y-147136380D01*
X69021482Y-147288509D01*
X69022821Y-147290694D01*
X69023076Y-147291637D01*
X69023693Y-147292848D01*
X69023438Y-147292977D01*
X69041062Y-147358140D01*
X69023719Y-147417209D01*
X69024121Y-147417414D01*
X69023031Y-147419552D01*
X69022823Y-147420262D01*
X69021913Y-147421746D01*
X68944433Y-147573808D01*
X68891698Y-147736108D01*
X68891694Y-147736124D01*
X68891081Y-147739998D01*
X68891082Y-147740000D01*
X69558634Y-147740000D01*
X69596952Y-147746069D01*
X69627702Y-147756060D01*
X69684473Y-147774506D01*
X69644964Y-147842939D01*
X69619000Y-147939840D01*
X69619000Y-148040160D01*
X69644964Y-148137061D01*
X69684473Y-148205493D01*
X69596952Y-148233931D01*
X69558634Y-148240000D01*
X68891082Y-148240000D01*
X68891081Y-148240001D01*
X68891694Y-148243875D01*
X68891698Y-148243891D01*
X68944433Y-148406191D01*
X69021913Y-148558253D01*
X69022823Y-148559738D01*
X69022996Y-148560378D01*
X69024121Y-148562586D01*
X69023657Y-148562822D01*
X69041062Y-148627185D01*
X69023486Y-148687047D01*
X69023693Y-148687153D01*
X69023131Y-148688254D01*
X69022825Y-148689299D01*
X69021485Y-148691485D01*
X68943968Y-148843619D01*
X68943967Y-148843622D01*
X68891209Y-149005994D01*
X68891209Y-149005997D01*
X68864500Y-149174632D01*
X68864500Y-149345367D01*
X68877812Y-149429416D01*
X68868857Y-149498710D01*
X68843020Y-149536495D01*
X67798606Y-150580910D01*
X67686801Y-150692714D01*
X67686799Y-150692717D01*
X67636681Y-150779526D01*
X67636679Y-150779528D01*
X67607745Y-150829641D01*
X67607744Y-150829642D01*
X67607743Y-150829647D01*
X67566819Y-150982375D01*
X67566819Y-150982377D01*
X67566819Y-151150478D01*
X67566820Y-151150491D01*
X67566820Y-157714383D01*
X67547135Y-157781422D01*
X67530501Y-157802064D01*
X60463659Y-164868906D01*
X60402336Y-164902391D01*
X60351782Y-164902841D01*
X60274983Y-164887561D01*
X60116022Y-164887561D01*
X60116021Y-164887561D01*
X60116019Y-164887561D01*
X60049452Y-164900804D01*
X59960109Y-164918579D01*
X59960108Y-164918579D01*
X59813247Y-164979424D01*
X59681085Y-165067755D01*
X59681082Y-165067757D01*
X59629868Y-165118985D01*
X59629866Y-165118987D01*
X59624896Y-165123958D01*
X59623371Y-165125483D01*
X59436638Y-165312214D01*
X59435858Y-165313227D01*
X59434583Y-165315271D01*
X59348137Y-165444610D01*
X59348134Y-165444616D01*
X59287295Y-165591433D01*
X59256265Y-165747310D01*
X59256239Y-165906237D01*
X59256240Y-165906243D01*
X59271521Y-165983132D01*
X59265282Y-166052722D01*
X59237581Y-166094983D01*
X57954692Y-167377872D01*
X57893369Y-167411357D01*
X57842820Y-167411808D01*
X57778325Y-167398979D01*
X57778321Y-167398979D01*
X57620637Y-167398979D01*
X57620634Y-167398979D01*
X57465989Y-167429740D01*
X57465977Y-167429743D01*
X57320306Y-167490081D01*
X57320293Y-167490088D01*
X57189190Y-167577689D01*
X57189186Y-167577692D01*
X57077692Y-167689186D01*
X57077689Y-167689190D01*
X56990088Y-167820293D01*
X56990081Y-167820306D01*
X56929743Y-167965977D01*
X56929740Y-167965989D01*
X56898979Y-168120632D01*
X28500500Y-168120632D01*
X28500500Y-161064573D01*
X31566818Y-161064573D01*
X31607743Y-161217304D01*
X31636678Y-161267419D01*
X31636679Y-161267423D01*
X31636680Y-161267423D01*
X31686799Y-161354233D01*
X31686801Y-161354236D01*
X31805669Y-161473104D01*
X31805675Y-161473109D01*
X34877872Y-164545306D01*
X34911357Y-164606629D01*
X34911809Y-164657177D01*
X34901349Y-164709767D01*
X34898979Y-164721680D01*
X34898979Y-164879367D01*
X34929740Y-165034010D01*
X34929743Y-165034022D01*
X34990081Y-165179693D01*
X34990088Y-165179706D01*
X35077689Y-165310809D01*
X35077692Y-165310813D01*
X35189186Y-165422307D01*
X35189190Y-165422310D01*
X35320293Y-165509911D01*
X35320306Y-165509918D01*
X35465977Y-165570256D01*
X35465982Y-165570258D01*
X35620632Y-165601020D01*
X35620635Y-165601021D01*
X35620637Y-165601021D01*
X35778323Y-165601021D01*
X35778324Y-165601020D01*
X35932976Y-165570258D01*
X36078658Y-165509915D01*
X36209768Y-165422310D01*
X36321268Y-165310810D01*
X36408873Y-165179700D01*
X36408874Y-165179697D01*
X36408876Y-165179694D01*
X36468540Y-165035649D01*
X36512380Y-164981245D01*
X36535645Y-164968541D01*
X36600611Y-164941632D01*
X36679694Y-164908876D01*
X36679697Y-164908874D01*
X36679700Y-164908873D01*
X36810810Y-164821268D01*
X36922310Y-164709768D01*
X37009915Y-164578658D01*
X37070258Y-164432976D01*
X37101021Y-164278321D01*
X37101021Y-164120637D01*
X37101021Y-164120634D01*
X37101020Y-164120632D01*
X37091000Y-164070258D01*
X37070258Y-163965982D01*
X37052169Y-163922310D01*
X37009918Y-163820306D01*
X37009911Y-163820293D01*
X36922310Y-163689190D01*
X36922307Y-163689186D01*
X36810813Y-163577692D01*
X36810809Y-163577689D01*
X36679706Y-163490088D01*
X36679693Y-163490081D01*
X36534022Y-163429743D01*
X36534010Y-163429740D01*
X36379366Y-163398979D01*
X36379363Y-163398979D01*
X36221679Y-163398979D01*
X36221674Y-163398979D01*
X36157179Y-163411808D01*
X36087587Y-163405581D01*
X36045307Y-163377872D01*
X35988545Y-163321110D01*
X39197545Y-163321110D01*
X39197545Y-163498887D01*
X39232223Y-163673227D01*
X39232225Y-163673235D01*
X39300252Y-163837468D01*
X39300257Y-163837477D01*
X39399016Y-163985279D01*
X39399019Y-163985283D01*
X39524714Y-164110978D01*
X39524718Y-164110981D01*
X39672520Y-164209740D01*
X39672526Y-164209743D01*
X39672527Y-164209744D01*
X39836763Y-164277773D01*
X40011110Y-164312452D01*
X40011114Y-164312453D01*
X40011115Y-164312453D01*
X40188884Y-164312453D01*
X40188885Y-164312452D01*
X40363235Y-164277773D01*
X40527471Y-164209744D01*
X40675280Y-164110981D01*
X40800981Y-163985280D01*
X40899744Y-163837471D01*
X40967773Y-163673235D01*
X41002453Y-163498883D01*
X41002453Y-163321115D01*
X40967773Y-163146763D01*
X40899744Y-162982527D01*
X40899743Y-162982526D01*
X40899740Y-162982520D01*
X40800981Y-162834718D01*
X40800978Y-162834714D01*
X40675287Y-162709023D01*
X40675275Y-162709013D01*
X40543004Y-162620632D01*
X43898979Y-162620632D01*
X43898979Y-162778325D01*
X43929740Y-162932968D01*
X43929743Y-162932980D01*
X43990081Y-163078651D01*
X43990088Y-163078664D01*
X44077689Y-163209767D01*
X44077692Y-163209771D01*
X44189186Y-163321265D01*
X44189190Y-163321268D01*
X44320293Y-163408869D01*
X44320306Y-163408876D01*
X44464350Y-163468540D01*
X44518754Y-163512380D01*
X44531459Y-163535649D01*
X44591123Y-163679693D01*
X44591130Y-163679706D01*
X44678731Y-163810809D01*
X44678734Y-163810813D01*
X44790228Y-163922307D01*
X44790232Y-163922310D01*
X44921335Y-164009911D01*
X44921348Y-164009918D01*
X45010357Y-164046786D01*
X45067024Y-164070258D01*
X45221674Y-164101020D01*
X45221677Y-164101021D01*
X45221679Y-164101021D01*
X45379365Y-164101021D01*
X45379366Y-164101020D01*
X45534018Y-164070258D01*
X45679700Y-164009915D01*
X45810810Y-163922310D01*
X45922310Y-163810810D01*
X46009915Y-163679700D01*
X46070258Y-163534018D01*
X46101021Y-163379363D01*
X46101021Y-163221679D01*
X46101021Y-163221676D01*
X46088191Y-163157178D01*
X46094418Y-163087586D01*
X46122125Y-163045307D01*
X49205520Y-159961915D01*
X49284577Y-159824983D01*
X49325501Y-159672256D01*
X49325501Y-159514141D01*
X49325501Y-159506546D01*
X49325500Y-159506528D01*
X49325500Y-151905944D01*
X49325499Y-151905938D01*
X49322288Y-151893954D01*
X49319755Y-151884500D01*
X49284577Y-151753215D01*
X49231875Y-151661933D01*
X49205520Y-151616284D01*
X49093716Y-151504480D01*
X49093713Y-151504478D01*
X47469750Y-149880515D01*
X47450043Y-149854833D01*
X47437467Y-149833051D01*
X47415520Y-149795036D01*
X47156979Y-149536495D01*
X47123494Y-149475172D01*
X47122187Y-149429420D01*
X47135500Y-149345368D01*
X47135500Y-149174632D01*
X47108791Y-149005999D01*
X47108790Y-149005995D01*
X47108790Y-149005994D01*
X47056032Y-148843622D01*
X47056030Y-148843619D01*
X46978519Y-148691493D01*
X46977181Y-148689310D01*
X46976925Y-148688366D01*
X46976307Y-148687152D01*
X46976562Y-148687022D01*
X46958936Y-148621864D01*
X46976285Y-148562792D01*
X46975879Y-148562586D01*
X46976980Y-148560423D01*
X46977189Y-148559715D01*
X46978094Y-148558237D01*
X47055566Y-148406191D01*
X47108301Y-148243891D01*
X47108305Y-148243875D01*
X47108918Y-148240001D01*
X47108918Y-148240000D01*
X46441366Y-148240000D01*
X46403048Y-148233931D01*
X46315526Y-148205493D01*
X46355036Y-148137061D01*
X46381000Y-148040160D01*
X46381000Y-147939840D01*
X46355036Y-147842939D01*
X46315526Y-147774506D01*
X46372577Y-147755969D01*
X46403048Y-147746069D01*
X46441366Y-147740000D01*
X47108918Y-147740000D01*
X47108918Y-147739998D01*
X47108305Y-147736124D01*
X47108301Y-147736108D01*
X47055566Y-147573808D01*
X46978088Y-147421749D01*
X46977179Y-147420266D01*
X46977005Y-147419625D01*
X46975879Y-147417414D01*
X46976343Y-147417177D01*
X46958937Y-147352820D01*
X46976519Y-147292956D01*
X46976307Y-147292848D01*
X46976883Y-147291716D01*
X46977190Y-147290673D01*
X46978507Y-147288522D01*
X46978519Y-147288507D01*
X47056031Y-147136380D01*
X47108791Y-146974001D01*
X47135500Y-146805368D01*
X47135500Y-146634632D01*
X47108791Y-146465999D01*
X47108790Y-146465995D01*
X47108790Y-146465994D01*
X47056032Y-146303622D01*
X47056030Y-146303619D01*
X46978519Y-146151493D01*
X46978510Y-146151481D01*
X46977481Y-146149801D01*
X46977281Y-146149065D01*
X46976307Y-146147152D01*
X46976708Y-146146947D01*
X46959230Y-146082357D01*
X46976651Y-146023023D01*
X46976307Y-146022848D01*
X46977242Y-146021012D01*
X46977481Y-146020199D01*
X46978506Y-146018523D01*
X46978519Y-146018507D01*
X47056031Y-145866380D01*
X47108791Y-145704001D01*
X47135500Y-145535368D01*
X47135500Y-145364632D01*
X47108791Y-145195999D01*
X47108790Y-145195995D01*
X47108790Y-145195994D01*
X47056032Y-145033622D01*
X47056030Y-145033619D01*
X46978519Y-144881493D01*
X46977181Y-144879310D01*
X46976925Y-144878366D01*
X46976307Y-144877152D01*
X46976562Y-144877022D01*
X46958936Y-144811864D01*
X46976285Y-144752792D01*
X46975879Y-144752586D01*
X46976980Y-144750423D01*
X46977189Y-144749715D01*
X46978094Y-144748237D01*
X47055566Y-144596191D01*
X47108301Y-144433891D01*
X47108305Y-144433875D01*
X47108918Y-144430001D01*
X47108918Y-144430000D01*
X46441366Y-144430000D01*
X46403048Y-144423931D01*
X46315526Y-144395493D01*
X46355036Y-144327061D01*
X46381000Y-144230160D01*
X46381000Y-144129840D01*
X46355036Y-144032939D01*
X46304876Y-143946060D01*
X46288816Y-143930000D01*
X47108918Y-143930000D01*
X47108918Y-143929998D01*
X47108305Y-143926124D01*
X47108301Y-143926108D01*
X47055566Y-143763808D01*
X46978088Y-143611751D01*
X46877787Y-143473697D01*
X46877783Y-143473692D01*
X46757107Y-143353016D01*
X46757102Y-143353012D01*
X46619048Y-143252711D01*
X46466991Y-143175233D01*
X46304684Y-143122495D01*
X46250000Y-143113834D01*
X46250000Y-143891184D01*
X46233940Y-143875124D01*
X46147061Y-143824964D01*
X46050160Y-143799000D01*
X45949840Y-143799000D01*
X45852939Y-143824964D01*
X45766060Y-143875124D01*
X45750000Y-143891184D01*
X45750000Y-143113834D01*
X45695315Y-143122495D01*
X45533008Y-143175233D01*
X45380951Y-143252711D01*
X45242897Y-143353012D01*
X45242892Y-143353016D01*
X45122216Y-143473692D01*
X45122212Y-143473697D01*
X45021911Y-143611751D01*
X44944433Y-143763808D01*
X44891698Y-143926108D01*
X44891694Y-143926124D01*
X44891081Y-143929998D01*
X44891082Y-143930000D01*
X45711184Y-143930000D01*
X45695124Y-143946060D01*
X45644964Y-144032939D01*
X45619000Y-144129840D01*
X45619000Y-144230160D01*
X45644964Y-144327061D01*
X45684473Y-144395493D01*
X45596952Y-144423931D01*
X45558634Y-144430000D01*
X44891082Y-144430000D01*
X44891081Y-144430001D01*
X44891694Y-144433875D01*
X44891698Y-144433891D01*
X44944433Y-144596191D01*
X45021913Y-144748253D01*
X45022823Y-144749738D01*
X45022996Y-144750378D01*
X45024121Y-144752586D01*
X45023657Y-144752822D01*
X45041062Y-144817185D01*
X45023486Y-144877047D01*
X45023693Y-144877153D01*
X45023131Y-144878254D01*
X45022825Y-144879299D01*
X45021485Y-144881485D01*
X44943968Y-145033619D01*
X44943967Y-145033622D01*
X44891209Y-145195994D01*
X44891209Y-145195997D01*
X44864500Y-145364632D01*
X44864500Y-145535367D01*
X44891209Y-145704002D01*
X44891209Y-145704005D01*
X44943967Y-145866377D01*
X44943969Y-145866380D01*
X45021480Y-146018506D01*
X45022526Y-146020212D01*
X45022725Y-146020948D01*
X45023693Y-146022848D01*
X45023293Y-146023051D01*
X45040768Y-146087659D01*
X45023351Y-146146977D01*
X45023693Y-146147152D01*
X45022765Y-146148972D01*
X45022526Y-146149788D01*
X45021480Y-146151493D01*
X44943969Y-146303619D01*
X44943967Y-146303622D01*
X44891209Y-146465994D01*
X44891209Y-146465997D01*
X44864500Y-146634632D01*
X44864500Y-146805367D01*
X44891209Y-146974002D01*
X44891209Y-146974005D01*
X44943967Y-147136377D01*
X44943969Y-147136380D01*
X45021482Y-147288509D01*
X45022821Y-147290694D01*
X45023076Y-147291637D01*
X45023693Y-147292848D01*
X45023438Y-147292977D01*
X45041062Y-147358140D01*
X45023719Y-147417209D01*
X45024121Y-147417414D01*
X45023031Y-147419552D01*
X45022823Y-147420262D01*
X45021913Y-147421746D01*
X44944433Y-147573808D01*
X44891698Y-147736108D01*
X44891694Y-147736124D01*
X44891081Y-147739998D01*
X44891082Y-147740000D01*
X45558634Y-147740000D01*
X45596952Y-147746069D01*
X45627702Y-147756060D01*
X45684473Y-147774506D01*
X45644964Y-147842939D01*
X45619000Y-147939840D01*
X45619000Y-148040160D01*
X45644964Y-148137061D01*
X45684473Y-148205493D01*
X45596952Y-148233931D01*
X45558634Y-148240000D01*
X44891082Y-148240000D01*
X44891081Y-148240001D01*
X44891694Y-148243875D01*
X44891698Y-148243891D01*
X44944433Y-148406191D01*
X45021913Y-148558253D01*
X45022823Y-148559738D01*
X45022996Y-148560378D01*
X45024121Y-148562586D01*
X45023657Y-148562822D01*
X45041062Y-148627185D01*
X45023486Y-148687047D01*
X45023693Y-148687153D01*
X45023131Y-148688254D01*
X45022825Y-148689299D01*
X45021485Y-148691485D01*
X44943968Y-148843619D01*
X44943967Y-148843622D01*
X44891209Y-149005994D01*
X44891209Y-149005997D01*
X44864500Y-149174632D01*
X44864500Y-149345367D01*
X44891209Y-149514002D01*
X44891209Y-149514005D01*
X44943967Y-149676377D01*
X44943969Y-149676380D01*
X45021480Y-149828506D01*
X45022526Y-149830212D01*
X45022725Y-149830948D01*
X45023693Y-149832848D01*
X45023293Y-149833051D01*
X45040768Y-149897659D01*
X45023351Y-149956977D01*
X45023693Y-149957152D01*
X45022765Y-149958972D01*
X45022526Y-149959788D01*
X45021480Y-149961493D01*
X44943969Y-150113619D01*
X44943967Y-150113622D01*
X44891209Y-150275994D01*
X44891209Y-150275997D01*
X44864500Y-150444632D01*
X44864500Y-150615367D01*
X44891209Y-150784002D01*
X44891209Y-150784005D01*
X44943967Y-150946377D01*
X44943969Y-150946380D01*
X45021482Y-151098509D01*
X45022821Y-151100694D01*
X45023076Y-151101637D01*
X45023693Y-151102848D01*
X45023438Y-151102977D01*
X45041062Y-151168140D01*
X45023719Y-151227209D01*
X45024121Y-151227414D01*
X45023031Y-151229552D01*
X45022823Y-151230262D01*
X45021913Y-151231746D01*
X44944433Y-151383808D01*
X44891698Y-151546108D01*
X44891694Y-151546124D01*
X44891081Y-151549998D01*
X44891082Y-151550000D01*
X45558634Y-151550000D01*
X45596952Y-151556069D01*
X45627702Y-151566060D01*
X45684473Y-151584506D01*
X45644964Y-151652939D01*
X45619000Y-151749840D01*
X45619000Y-151850160D01*
X45644964Y-151947061D01*
X45695124Y-152033940D01*
X45711184Y-152050000D01*
X44891082Y-152050000D01*
X44891081Y-152050001D01*
X44891694Y-152053875D01*
X44891698Y-152053891D01*
X44944433Y-152216191D01*
X45021911Y-152368248D01*
X45122212Y-152506302D01*
X45122216Y-152506307D01*
X45242892Y-152626983D01*
X45242897Y-152626987D01*
X45380951Y-152727288D01*
X45533008Y-152804766D01*
X45695315Y-152857504D01*
X45749999Y-152866163D01*
X45750000Y-152866163D01*
X45750000Y-152088816D01*
X45766060Y-152104876D01*
X45852939Y-152155036D01*
X45949840Y-152181000D01*
X46050160Y-152181000D01*
X46147061Y-152155036D01*
X46233940Y-152104876D01*
X46250000Y-152088816D01*
X46250000Y-152866163D01*
X46304684Y-152857504D01*
X46466991Y-152804766D01*
X46619048Y-152727288D01*
X46757102Y-152626987D01*
X46757107Y-152626983D01*
X46877783Y-152506307D01*
X46877787Y-152506302D01*
X46978088Y-152368248D01*
X47055566Y-152216191D01*
X47094809Y-152095416D01*
X47134246Y-152037741D01*
X47198605Y-152010542D01*
X47267451Y-152022457D01*
X47300421Y-152046053D01*
X47638181Y-152383813D01*
X47671666Y-152445136D01*
X47674500Y-152471494D01*
X47674500Y-157006682D01*
X47654815Y-157073721D01*
X47602011Y-157119476D01*
X47574685Y-157128301D01*
X47516396Y-157139892D01*
X47363446Y-157203231D01*
X47363440Y-157203234D01*
X47225796Y-157295184D01*
X47225794Y-157295186D01*
X47108716Y-157412236D01*
X47108713Y-157412240D01*
X47016730Y-157549860D01*
X47016727Y-157549866D01*
X46976987Y-157645765D01*
X46953349Y-157702806D01*
X46921027Y-157865150D01*
X46921026Y-157865156D01*
X46921026Y-157865159D01*
X46921025Y-157868938D01*
X46921010Y-157868995D01*
X46921010Y-157947552D01*
X46921010Y-157947932D01*
X46921007Y-157966392D01*
X46920995Y-158028310D01*
X46921010Y-158028553D01*
X46921010Y-158150499D01*
X46921032Y-158150726D01*
X46953306Y-158313122D01*
X46953308Y-158313126D01*
X47016651Y-158466111D01*
X47108627Y-158603796D01*
X47225701Y-158720888D01*
X47363371Y-158812886D01*
X47363375Y-158812887D01*
X47363379Y-158812890D01*
X47516335Y-158876249D01*
X47516341Y-158876251D01*
X47516346Y-158876253D01*
X47574692Y-158887858D01*
X47602821Y-158902572D01*
X47631703Y-158915762D01*
X47633559Y-158918651D01*
X47636601Y-158920242D01*
X47652309Y-158947825D01*
X47669477Y-158974540D01*
X47670137Y-158979133D01*
X47671176Y-158980957D01*
X47674500Y-159009475D01*
X47674500Y-159106703D01*
X47654815Y-159173742D01*
X47638181Y-159194384D01*
X44954692Y-161877872D01*
X44893369Y-161911357D01*
X44842820Y-161911808D01*
X44778325Y-161898979D01*
X44778321Y-161898979D01*
X44620637Y-161898979D01*
X44620634Y-161898979D01*
X44465989Y-161929740D01*
X44465977Y-161929743D01*
X44320306Y-161990081D01*
X44320293Y-161990088D01*
X44189190Y-162077689D01*
X44189186Y-162077692D01*
X44077692Y-162189186D01*
X44077689Y-162189190D01*
X43990088Y-162320293D01*
X43990081Y-162320306D01*
X43929743Y-162465977D01*
X43929740Y-162465989D01*
X43898979Y-162620632D01*
X40543004Y-162620632D01*
X40527477Y-162610257D01*
X40527468Y-162610252D01*
X40363235Y-162542225D01*
X40363227Y-162542223D01*
X40188887Y-162507545D01*
X40188883Y-162507545D01*
X40011115Y-162507545D01*
X40011110Y-162507545D01*
X39836770Y-162542223D01*
X39836762Y-162542225D01*
X39672529Y-162610252D01*
X39672520Y-162610257D01*
X39524718Y-162709016D01*
X39524714Y-162709019D01*
X39399019Y-162834714D01*
X39399016Y-162834718D01*
X39300257Y-162982520D01*
X39300252Y-162982529D01*
X39232225Y-163146762D01*
X39232223Y-163146770D01*
X39197545Y-163321110D01*
X35988545Y-163321110D01*
X33254119Y-160586684D01*
X33220634Y-160525361D01*
X33217800Y-160499003D01*
X33217800Y-156533965D01*
X33237485Y-156466926D01*
X33290289Y-156421171D01*
X33359447Y-156411227D01*
X33398093Y-156423480D01*
X33448431Y-156449128D01*
X33507417Y-156479184D01*
X33507424Y-156479187D01*
X33603469Y-156510393D01*
X33699517Y-156541601D01*
X33899010Y-156573198D01*
X33899011Y-156573198D01*
X34100989Y-156573198D01*
X34100990Y-156573198D01*
X34300483Y-156541601D01*
X34492578Y-156479186D01*
X34672543Y-156387489D01*
X34835949Y-156268768D01*
X34978770Y-156125947D01*
X35097491Y-155962541D01*
X35189188Y-155782576D01*
X35251603Y-155590481D01*
X35283200Y-155390988D01*
X35283200Y-155189008D01*
X35251603Y-154989515D01*
X35189188Y-154797420D01*
X35189188Y-154797419D01*
X35157433Y-154735099D01*
X35097491Y-154617455D01*
X35072397Y-154582916D01*
X34978775Y-154454055D01*
X34978771Y-154454050D01*
X34835947Y-154311226D01*
X34835942Y-154311222D01*
X34672546Y-154192509D01*
X34672545Y-154192508D01*
X34672543Y-154192507D01*
X34601905Y-154156515D01*
X34492578Y-154100809D01*
X34492575Y-154100808D01*
X34300484Y-154038395D01*
X34200736Y-154022596D01*
X34100990Y-154006798D01*
X33899010Y-154006798D01*
X33852636Y-154014143D01*
X33699515Y-154038395D01*
X33507424Y-154100808D01*
X33507421Y-154100809D01*
X33398095Y-154156515D01*
X33329426Y-154169411D01*
X33264685Y-154143135D01*
X33224428Y-154086028D01*
X33217800Y-154046030D01*
X33217800Y-152846509D01*
X33237485Y-152779470D01*
X33290289Y-152733715D01*
X33359447Y-152723771D01*
X33398095Y-152736025D01*
X33533002Y-152804764D01*
X33533004Y-152804765D01*
X33695315Y-152857504D01*
X33749999Y-152866163D01*
X33750000Y-152866163D01*
X33750000Y-152088816D01*
X33766060Y-152104876D01*
X33852939Y-152155036D01*
X33949840Y-152181000D01*
X34050160Y-152181000D01*
X34147061Y-152155036D01*
X34233940Y-152104876D01*
X34250000Y-152088816D01*
X34250000Y-152866163D01*
X34304684Y-152857504D01*
X34466991Y-152804766D01*
X34619048Y-152727288D01*
X34757102Y-152626987D01*
X34757107Y-152626983D01*
X34877783Y-152506307D01*
X34877787Y-152506302D01*
X34978088Y-152368248D01*
X35055566Y-152216191D01*
X35108301Y-152053891D01*
X35108305Y-152053875D01*
X35108918Y-152050001D01*
X35108918Y-152050000D01*
X34288816Y-152050000D01*
X34304876Y-152033940D01*
X34355036Y-151947061D01*
X34381000Y-151850160D01*
X34381000Y-151749840D01*
X34355036Y-151652939D01*
X34315526Y-151584506D01*
X34372577Y-151565969D01*
X34403048Y-151556069D01*
X34441366Y-151550000D01*
X35108918Y-151550000D01*
X35108918Y-151549998D01*
X35108305Y-151546124D01*
X35108301Y-151546108D01*
X35055566Y-151383808D01*
X34978088Y-151231749D01*
X34977179Y-151230266D01*
X34977005Y-151229625D01*
X34975879Y-151227414D01*
X34976343Y-151227177D01*
X34958937Y-151162820D01*
X34976519Y-151102956D01*
X34976307Y-151102848D01*
X34976883Y-151101716D01*
X34977190Y-151100673D01*
X34978507Y-151098522D01*
X34978519Y-151098507D01*
X35056031Y-150946380D01*
X35093960Y-150829647D01*
X35108790Y-150784005D01*
X35108790Y-150784004D01*
X35108791Y-150784001D01*
X35135500Y-150615368D01*
X35135500Y-150444632D01*
X35108791Y-150275999D01*
X35108790Y-150275995D01*
X35108790Y-150275994D01*
X35056032Y-150113622D01*
X35056030Y-150113619D01*
X34978519Y-149961493D01*
X34978510Y-149961481D01*
X34977481Y-149959801D01*
X34977281Y-149959065D01*
X34976307Y-149957152D01*
X34976708Y-149956947D01*
X34959230Y-149892357D01*
X34976651Y-149833023D01*
X34976307Y-149832848D01*
X34977242Y-149831012D01*
X34977481Y-149830199D01*
X34978506Y-149828523D01*
X34978519Y-149828507D01*
X35056031Y-149676380D01*
X35056032Y-149676377D01*
X35108790Y-149514005D01*
X35108790Y-149514004D01*
X35108791Y-149514001D01*
X35135500Y-149345368D01*
X35135500Y-149174632D01*
X35108791Y-149005999D01*
X35108790Y-149005995D01*
X35108790Y-149005994D01*
X35056032Y-148843622D01*
X35056030Y-148843619D01*
X34978519Y-148691493D01*
X34977181Y-148689310D01*
X34976925Y-148688366D01*
X34976307Y-148687152D01*
X34976562Y-148687022D01*
X34958936Y-148621864D01*
X34976285Y-148562792D01*
X34975879Y-148562586D01*
X34976980Y-148560423D01*
X34977189Y-148559715D01*
X34978094Y-148558237D01*
X35055566Y-148406191D01*
X35108301Y-148243891D01*
X35108305Y-148243875D01*
X35108918Y-148240001D01*
X35108918Y-148240000D01*
X34441366Y-148240000D01*
X34403048Y-148233931D01*
X34315526Y-148205493D01*
X34355036Y-148137061D01*
X34381000Y-148040160D01*
X34381000Y-147939840D01*
X34355036Y-147842939D01*
X34315526Y-147774506D01*
X34372577Y-147755969D01*
X34403048Y-147746069D01*
X34441366Y-147740000D01*
X35108918Y-147740000D01*
X35108918Y-147739998D01*
X35108305Y-147736124D01*
X35108301Y-147736108D01*
X35055566Y-147573808D01*
X34978088Y-147421749D01*
X34977179Y-147420266D01*
X34977005Y-147419625D01*
X34975879Y-147417414D01*
X34976343Y-147417177D01*
X34958937Y-147352820D01*
X34976519Y-147292956D01*
X34976307Y-147292848D01*
X34976883Y-147291716D01*
X34977190Y-147290673D01*
X34978507Y-147288522D01*
X34978519Y-147288507D01*
X35056031Y-147136380D01*
X35108791Y-146974001D01*
X35135500Y-146805368D01*
X35135500Y-146634632D01*
X35108791Y-146465999D01*
X35108790Y-146465995D01*
X35108790Y-146465994D01*
X35056032Y-146303622D01*
X35056030Y-146303619D01*
X34978519Y-146151493D01*
X34978510Y-146151481D01*
X34977481Y-146149801D01*
X34977281Y-146149065D01*
X34976307Y-146147152D01*
X34976708Y-146146947D01*
X34959230Y-146082357D01*
X34976651Y-146023023D01*
X34976307Y-146022848D01*
X34977242Y-146021012D01*
X34977481Y-146020199D01*
X34978506Y-146018523D01*
X34978519Y-146018507D01*
X35056031Y-145866380D01*
X35108791Y-145704001D01*
X35135500Y-145535368D01*
X35135500Y-145364632D01*
X35108791Y-145195999D01*
X35108790Y-145195995D01*
X35108790Y-145195994D01*
X35056032Y-145033622D01*
X35056030Y-145033619D01*
X34978519Y-144881493D01*
X34977181Y-144879310D01*
X34976925Y-144878366D01*
X34976307Y-144877152D01*
X34976562Y-144877022D01*
X34958936Y-144811864D01*
X34976285Y-144752792D01*
X34975879Y-144752586D01*
X34976980Y-144750423D01*
X34977189Y-144749715D01*
X34978094Y-144748237D01*
X35055566Y-144596191D01*
X35108301Y-144433891D01*
X35108305Y-144433875D01*
X35108918Y-144430001D01*
X35108918Y-144430000D01*
X34441366Y-144430000D01*
X34403048Y-144423931D01*
X34315526Y-144395493D01*
X34355036Y-144327061D01*
X34381000Y-144230160D01*
X34381000Y-144129840D01*
X34355036Y-144032939D01*
X34304876Y-143946060D01*
X34288816Y-143930000D01*
X35108918Y-143930000D01*
X35108918Y-143929998D01*
X35108305Y-143926124D01*
X35108301Y-143926108D01*
X35055566Y-143763808D01*
X34978088Y-143611751D01*
X34877787Y-143473697D01*
X34877783Y-143473692D01*
X34757107Y-143353016D01*
X34757102Y-143353012D01*
X34619048Y-143252711D01*
X34466991Y-143175233D01*
X34304684Y-143122495D01*
X34250000Y-143113834D01*
X34250000Y-143891184D01*
X34233940Y-143875124D01*
X34147061Y-143824964D01*
X34050160Y-143799000D01*
X33949840Y-143799000D01*
X33852939Y-143824964D01*
X33766060Y-143875124D01*
X33750000Y-143891184D01*
X33750000Y-143113834D01*
X33695315Y-143122495D01*
X33533008Y-143175233D01*
X33380951Y-143252711D01*
X33242897Y-143353012D01*
X33242892Y-143353016D01*
X33122216Y-143473692D01*
X33122212Y-143473697D01*
X33021911Y-143611751D01*
X32944433Y-143763808D01*
X32891698Y-143926108D01*
X32891694Y-143926124D01*
X32891081Y-143929998D01*
X32891082Y-143930000D01*
X33711184Y-143930000D01*
X33695124Y-143946060D01*
X33644964Y-144032939D01*
X33619000Y-144129840D01*
X33619000Y-144230160D01*
X33644964Y-144327061D01*
X33684473Y-144395493D01*
X33596952Y-144423931D01*
X33558634Y-144430000D01*
X32891082Y-144430000D01*
X32891081Y-144430001D01*
X32891694Y-144433875D01*
X32891698Y-144433891D01*
X32944433Y-144596191D01*
X33021913Y-144748253D01*
X33022823Y-144749738D01*
X33022996Y-144750378D01*
X33024121Y-144752586D01*
X33023657Y-144752822D01*
X33041062Y-144817185D01*
X33023486Y-144877047D01*
X33023693Y-144877153D01*
X33023131Y-144878254D01*
X33022825Y-144879299D01*
X33021485Y-144881485D01*
X32943968Y-145033619D01*
X32943967Y-145033622D01*
X32891209Y-145195994D01*
X32891209Y-145195997D01*
X32864500Y-145364632D01*
X32864500Y-145535367D01*
X32891209Y-145704002D01*
X32891209Y-145704005D01*
X32943967Y-145866377D01*
X32943969Y-145866380D01*
X33021480Y-146018506D01*
X33022526Y-146020212D01*
X33022725Y-146020948D01*
X33023693Y-146022848D01*
X33023293Y-146023051D01*
X33040768Y-146087659D01*
X33023351Y-146146977D01*
X33023693Y-146147152D01*
X33022765Y-146148972D01*
X33022526Y-146149788D01*
X33021480Y-146151493D01*
X32943969Y-146303619D01*
X32943967Y-146303622D01*
X32891209Y-146465994D01*
X32891209Y-146465997D01*
X32864500Y-146634632D01*
X32864500Y-146805367D01*
X32891209Y-146974002D01*
X32891209Y-146974005D01*
X32943967Y-147136377D01*
X32943969Y-147136380D01*
X33021482Y-147288509D01*
X33022821Y-147290694D01*
X33023076Y-147291637D01*
X33023693Y-147292848D01*
X33023438Y-147292977D01*
X33041062Y-147358140D01*
X33023719Y-147417209D01*
X33024121Y-147417414D01*
X33023031Y-147419552D01*
X33022823Y-147420262D01*
X33021913Y-147421746D01*
X32944433Y-147573808D01*
X32891698Y-147736108D01*
X32891694Y-147736124D01*
X32891081Y-147739998D01*
X32891082Y-147740000D01*
X33558634Y-147740000D01*
X33596952Y-147746069D01*
X33627702Y-147756060D01*
X33684473Y-147774506D01*
X33644964Y-147842939D01*
X33619000Y-147939840D01*
X33619000Y-148040160D01*
X33644964Y-148137061D01*
X33684473Y-148205493D01*
X33596952Y-148233931D01*
X33558634Y-148240000D01*
X32891082Y-148240000D01*
X32891081Y-148240001D01*
X32891694Y-148243875D01*
X32891698Y-148243891D01*
X32944433Y-148406191D01*
X33021913Y-148558253D01*
X33022823Y-148559738D01*
X33022996Y-148560378D01*
X33024121Y-148562586D01*
X33023657Y-148562822D01*
X33041062Y-148627185D01*
X33023486Y-148687047D01*
X33023693Y-148687153D01*
X33023131Y-148688254D01*
X33022825Y-148689299D01*
X33021485Y-148691485D01*
X32943968Y-148843619D01*
X32943967Y-148843622D01*
X32891209Y-149005994D01*
X32891209Y-149005997D01*
X32864500Y-149174632D01*
X32864500Y-149345367D01*
X32877812Y-149429416D01*
X32868857Y-149498710D01*
X32843020Y-149536495D01*
X31798606Y-150580910D01*
X31686801Y-150692714D01*
X31686799Y-150692717D01*
X31636681Y-150779526D01*
X31636679Y-150779528D01*
X31607745Y-150829641D01*
X31607744Y-150829642D01*
X31607743Y-150829647D01*
X31566819Y-150982375D01*
X31566819Y-151140489D01*
X31566819Y-151140491D01*
X31566820Y-151150485D01*
X31566820Y-160898849D01*
X31566819Y-160898867D01*
X31566819Y-161064573D01*
X31566818Y-161064573D01*
X28500500Y-161064573D01*
X28500500Y-125726796D01*
X31236499Y-125726796D01*
X31263418Y-125862122D01*
X31263421Y-125862132D01*
X31316222Y-125989607D01*
X31392887Y-126104345D01*
X31392888Y-126104346D01*
X32828181Y-127539638D01*
X32861666Y-127600961D01*
X32864500Y-127627319D01*
X32864500Y-127755367D01*
X32891209Y-127924002D01*
X32891209Y-127924005D01*
X32943967Y-128086377D01*
X32943969Y-128086380D01*
X33021480Y-128238506D01*
X33022526Y-128240212D01*
X33022725Y-128240948D01*
X33023693Y-128242848D01*
X33023293Y-128243051D01*
X33040768Y-128307659D01*
X33023351Y-128366977D01*
X33023693Y-128367152D01*
X33022765Y-128368972D01*
X33022526Y-128369788D01*
X33021480Y-128371493D01*
X32943969Y-128523619D01*
X32943967Y-128523622D01*
X32891209Y-128685994D01*
X32891209Y-128685997D01*
X32864500Y-128854632D01*
X32864500Y-129025367D01*
X32891209Y-129194002D01*
X32891209Y-129194005D01*
X32943967Y-129356377D01*
X32943969Y-129356380D01*
X33021480Y-129508506D01*
X33022526Y-129510212D01*
X33022725Y-129510948D01*
X33023693Y-129512848D01*
X33023293Y-129513051D01*
X33040768Y-129577659D01*
X33023351Y-129636977D01*
X33023693Y-129637152D01*
X33022765Y-129638972D01*
X33022526Y-129639788D01*
X33021480Y-129641493D01*
X32943969Y-129793619D01*
X32943967Y-129793622D01*
X32891209Y-129955994D01*
X32891209Y-129955997D01*
X32864500Y-130124632D01*
X32864500Y-130295367D01*
X32891209Y-130464002D01*
X32891209Y-130464005D01*
X32943967Y-130626377D01*
X32943969Y-130626380D01*
X33021482Y-130778509D01*
X33022821Y-130780694D01*
X33023076Y-130781637D01*
X33023693Y-130782848D01*
X33023438Y-130782977D01*
X33041062Y-130848140D01*
X33023719Y-130907209D01*
X33024121Y-130907414D01*
X33023031Y-130909552D01*
X33022823Y-130910262D01*
X33021913Y-130911746D01*
X32944433Y-131063808D01*
X32891698Y-131226108D01*
X32891694Y-131226124D01*
X32891081Y-131229998D01*
X32891082Y-131230000D01*
X33558634Y-131230000D01*
X33596952Y-131236069D01*
X33627702Y-131246060D01*
X33684473Y-131264506D01*
X33644964Y-131332939D01*
X33619000Y-131429840D01*
X33619000Y-131530160D01*
X33644964Y-131627061D01*
X33695124Y-131713940D01*
X33711184Y-131730000D01*
X32891082Y-131730000D01*
X32891081Y-131730001D01*
X32891694Y-131733875D01*
X32891698Y-131733891D01*
X32944433Y-131896191D01*
X33021911Y-132048250D01*
X33023118Y-132050219D01*
X33023347Y-132051068D01*
X33024121Y-132052586D01*
X33023801Y-132052748D01*
X33041356Y-132117667D01*
X33023853Y-132177277D01*
X33024121Y-132177414D01*
X33023394Y-132178840D01*
X33023118Y-132179781D01*
X33021911Y-132181749D01*
X32944433Y-132333808D01*
X32891698Y-132496108D01*
X32891694Y-132496124D01*
X32891081Y-132499998D01*
X32891082Y-132500000D01*
X33711184Y-132500000D01*
X33695124Y-132516060D01*
X33644964Y-132602939D01*
X33619000Y-132699840D01*
X33619000Y-132800160D01*
X33644964Y-132897061D01*
X33695124Y-132983940D01*
X33711184Y-133000000D01*
X32891082Y-133000000D01*
X32891081Y-133000001D01*
X32891694Y-133003875D01*
X32891698Y-133003891D01*
X32944433Y-133166191D01*
X33021911Y-133318250D01*
X33023118Y-133320219D01*
X33023347Y-133321068D01*
X33024121Y-133322586D01*
X33023801Y-133322748D01*
X33041356Y-133387667D01*
X33023853Y-133447277D01*
X33024121Y-133447414D01*
X33023394Y-133448840D01*
X33023118Y-133449781D01*
X33021911Y-133451749D01*
X32944433Y-133603808D01*
X32891698Y-133766108D01*
X32891694Y-133766124D01*
X32891081Y-133769998D01*
X32891082Y-133770000D01*
X33711184Y-133770000D01*
X33695124Y-133786060D01*
X33644964Y-133872939D01*
X33619000Y-133969840D01*
X33619000Y-134070160D01*
X33644964Y-134167061D01*
X33684473Y-134235493D01*
X33596952Y-134263931D01*
X33558634Y-134270000D01*
X32891082Y-134270000D01*
X32891081Y-134270001D01*
X32891694Y-134273875D01*
X32891698Y-134273891D01*
X32944433Y-134436191D01*
X33021913Y-134588253D01*
X33022823Y-134589738D01*
X33022996Y-134590378D01*
X33024121Y-134592586D01*
X33023657Y-134592822D01*
X33041062Y-134657185D01*
X33023486Y-134717047D01*
X33023693Y-134717153D01*
X33023131Y-134718254D01*
X33022825Y-134719299D01*
X33021485Y-134721485D01*
X32943968Y-134873619D01*
X32943967Y-134873622D01*
X32891209Y-135035994D01*
X32891209Y-135035997D01*
X32864500Y-135204632D01*
X32864500Y-135375367D01*
X32891209Y-135544002D01*
X32891209Y-135544005D01*
X32943967Y-135706377D01*
X32943969Y-135706380D01*
X33021480Y-135858506D01*
X33022526Y-135860212D01*
X33022725Y-135860948D01*
X33023693Y-135862848D01*
X33023293Y-135863051D01*
X33040768Y-135927659D01*
X33023351Y-135986977D01*
X33023693Y-135987152D01*
X33022765Y-135988972D01*
X33022526Y-135989788D01*
X33021480Y-135991493D01*
X32943969Y-136143619D01*
X32943967Y-136143622D01*
X32891209Y-136305994D01*
X32891209Y-136305997D01*
X32864500Y-136474632D01*
X32864500Y-136645367D01*
X32891209Y-136814002D01*
X32891209Y-136814005D01*
X32943967Y-136976377D01*
X32943969Y-136976380D01*
X33021480Y-137128506D01*
X33022526Y-137130212D01*
X33022725Y-137130948D01*
X33023693Y-137132848D01*
X33023293Y-137133051D01*
X33040768Y-137197659D01*
X33023351Y-137256977D01*
X33023693Y-137257152D01*
X33022765Y-137258972D01*
X33022526Y-137259788D01*
X33021480Y-137261493D01*
X32943969Y-137413619D01*
X32943967Y-137413622D01*
X32891209Y-137575994D01*
X32891209Y-137575997D01*
X32864500Y-137744632D01*
X32864500Y-137915367D01*
X32891209Y-138084002D01*
X32891209Y-138084005D01*
X32943967Y-138246377D01*
X32943969Y-138246380D01*
X33021481Y-138398507D01*
X33121837Y-138536635D01*
X33242565Y-138657363D01*
X33380693Y-138757719D01*
X33532820Y-138835231D01*
X33532822Y-138835232D01*
X33695195Y-138887990D01*
X33695196Y-138887990D01*
X33695199Y-138887991D01*
X33863832Y-138914700D01*
X33863833Y-138914700D01*
X34136167Y-138914700D01*
X34136168Y-138914700D01*
X34304801Y-138887991D01*
X34304804Y-138887990D01*
X34304805Y-138887990D01*
X34467177Y-138835232D01*
X34467177Y-138835231D01*
X34467180Y-138835231D01*
X34619307Y-138757719D01*
X34757435Y-138657363D01*
X34878163Y-138536635D01*
X34978519Y-138398507D01*
X35056031Y-138246380D01*
X35108791Y-138084001D01*
X35135500Y-137915368D01*
X35135500Y-137744632D01*
X35108791Y-137575999D01*
X35108790Y-137575995D01*
X35108790Y-137575994D01*
X35056032Y-137413622D01*
X35056030Y-137413619D01*
X34978519Y-137261493D01*
X34978510Y-137261481D01*
X34977481Y-137259801D01*
X34977281Y-137259065D01*
X34976307Y-137257152D01*
X34976708Y-137256947D01*
X34959230Y-137192357D01*
X34976651Y-137133023D01*
X34976307Y-137132848D01*
X34977242Y-137131012D01*
X34977481Y-137130199D01*
X34978506Y-137128523D01*
X34978519Y-137128507D01*
X35056031Y-136976380D01*
X35108791Y-136814001D01*
X35135500Y-136645368D01*
X35135500Y-136474632D01*
X35108791Y-136305999D01*
X35108790Y-136305995D01*
X35108790Y-136305994D01*
X35056032Y-136143622D01*
X35056030Y-136143619D01*
X34978519Y-135991493D01*
X34978510Y-135991481D01*
X34977481Y-135989801D01*
X34977281Y-135989065D01*
X34976307Y-135987152D01*
X34976708Y-135986947D01*
X34959230Y-135922357D01*
X34976651Y-135863023D01*
X34976307Y-135862848D01*
X34977242Y-135861012D01*
X34977481Y-135860199D01*
X34978506Y-135858523D01*
X34978519Y-135858507D01*
X35056031Y-135706380D01*
X35108791Y-135544001D01*
X35135500Y-135375368D01*
X35135500Y-135204632D01*
X35108791Y-135035999D01*
X35108790Y-135035995D01*
X35108790Y-135035994D01*
X35056032Y-134873622D01*
X35056030Y-134873619D01*
X34978519Y-134721493D01*
X34977181Y-134719310D01*
X34976925Y-134718366D01*
X34976307Y-134717152D01*
X34976562Y-134717022D01*
X34958936Y-134651864D01*
X34976285Y-134592792D01*
X34975879Y-134592586D01*
X34976980Y-134590423D01*
X34977189Y-134589715D01*
X34978094Y-134588237D01*
X35055566Y-134436191D01*
X35108301Y-134273891D01*
X35108305Y-134273875D01*
X35108918Y-134270001D01*
X35108918Y-134270000D01*
X34441366Y-134270000D01*
X34403048Y-134263931D01*
X34315526Y-134235493D01*
X34355036Y-134167061D01*
X34381000Y-134070160D01*
X34381000Y-133969840D01*
X34355036Y-133872939D01*
X34304876Y-133786060D01*
X34288816Y-133770000D01*
X35108918Y-133770000D01*
X35108918Y-133769998D01*
X35108305Y-133766124D01*
X35108301Y-133766108D01*
X35055566Y-133603808D01*
X34978096Y-133451765D01*
X34976895Y-133449806D01*
X34976665Y-133448957D01*
X34975879Y-133447414D01*
X34976202Y-133447248D01*
X34958641Y-133382363D01*
X34976151Y-133322725D01*
X34975879Y-133322586D01*
X34976619Y-133321133D01*
X34976895Y-133320194D01*
X34978096Y-133318234D01*
X35055566Y-133166191D01*
X35108301Y-133003891D01*
X35108305Y-133003875D01*
X35108918Y-133000001D01*
X35108918Y-133000000D01*
X34288816Y-133000000D01*
X34304876Y-132983940D01*
X34355036Y-132897061D01*
X34381000Y-132800160D01*
X34381000Y-132699840D01*
X34355036Y-132602939D01*
X34304876Y-132516060D01*
X34288816Y-132500000D01*
X35108918Y-132500000D01*
X35108918Y-132499998D01*
X35108305Y-132496124D01*
X35108301Y-132496108D01*
X35055566Y-132333808D01*
X34978096Y-132181765D01*
X34976895Y-132179806D01*
X34976665Y-132178957D01*
X34975879Y-132177414D01*
X34976202Y-132177248D01*
X34958641Y-132112363D01*
X34976151Y-132052725D01*
X34975879Y-132052586D01*
X34976619Y-132051133D01*
X34976895Y-132050194D01*
X34978096Y-132048234D01*
X35055566Y-131896191D01*
X35108301Y-131733891D01*
X35108305Y-131733875D01*
X35108918Y-131730001D01*
X35108918Y-131730000D01*
X34288816Y-131730000D01*
X34304876Y-131713940D01*
X34355036Y-131627061D01*
X34381000Y-131530160D01*
X34381000Y-131429840D01*
X34355036Y-131332939D01*
X34315526Y-131264506D01*
X34372577Y-131245969D01*
X34403048Y-131236069D01*
X34441366Y-131230000D01*
X35108918Y-131230000D01*
X35108918Y-131229998D01*
X35108305Y-131226124D01*
X35108301Y-131226108D01*
X35055566Y-131063808D01*
X34978088Y-130911749D01*
X34977179Y-130910266D01*
X34977005Y-130909625D01*
X34975879Y-130907414D01*
X34976343Y-130907177D01*
X34958937Y-130842820D01*
X34976519Y-130782956D01*
X34976307Y-130782848D01*
X34976883Y-130781716D01*
X34977190Y-130780673D01*
X34978507Y-130778522D01*
X34978519Y-130778507D01*
X35056031Y-130626380D01*
X35108791Y-130464001D01*
X35135500Y-130295368D01*
X35135500Y-130124632D01*
X35108791Y-129955999D01*
X35108790Y-129955995D01*
X35108790Y-129955994D01*
X35056032Y-129793622D01*
X35056030Y-129793619D01*
X34978519Y-129641493D01*
X34978510Y-129641481D01*
X34977481Y-129639801D01*
X34977281Y-129639065D01*
X34976307Y-129637152D01*
X34976708Y-129636947D01*
X34959230Y-129572357D01*
X34976651Y-129513023D01*
X34976307Y-129512848D01*
X34977242Y-129511012D01*
X34977481Y-129510199D01*
X34978506Y-129508523D01*
X34978519Y-129508507D01*
X35056031Y-129356380D01*
X35108791Y-129194001D01*
X35135500Y-129025368D01*
X35135500Y-128854632D01*
X35108791Y-128685999D01*
X35108790Y-128685995D01*
X35108790Y-128685994D01*
X35056032Y-128523622D01*
X35056030Y-128523619D01*
X34978519Y-128371493D01*
X34978510Y-128371481D01*
X34977481Y-128369801D01*
X34977281Y-128369065D01*
X34976307Y-128367152D01*
X34976708Y-128366947D01*
X34959230Y-128302357D01*
X34976651Y-128243023D01*
X34976307Y-128242848D01*
X34977242Y-128241012D01*
X34977481Y-128240199D01*
X34978506Y-128238523D01*
X34978519Y-128238507D01*
X35056031Y-128086380D01*
X35108791Y-127924001D01*
X35135500Y-127755368D01*
X35135500Y-127584632D01*
X35108791Y-127415999D01*
X35108790Y-127415995D01*
X35108790Y-127415994D01*
X35056032Y-127253622D01*
X35056030Y-127253619D01*
X34978519Y-127101493D01*
X34977181Y-127099310D01*
X34976925Y-127098366D01*
X34976307Y-127097152D01*
X34976562Y-127097022D01*
X34958936Y-127031864D01*
X34976285Y-126972792D01*
X34975879Y-126972586D01*
X34976980Y-126970423D01*
X34977189Y-126969715D01*
X34978094Y-126968237D01*
X35055566Y-126816191D01*
X35108301Y-126653891D01*
X35108305Y-126653875D01*
X35108918Y-126650001D01*
X35108918Y-126650000D01*
X34441366Y-126650000D01*
X34403048Y-126643931D01*
X34315526Y-126615493D01*
X34355036Y-126547061D01*
X34381000Y-126450160D01*
X34381000Y-126349840D01*
X34355036Y-126252939D01*
X34304876Y-126166060D01*
X34288816Y-126150000D01*
X35108918Y-126150000D01*
X35108918Y-126149998D01*
X35108305Y-126146124D01*
X35108301Y-126146108D01*
X35055566Y-125983808D01*
X34978096Y-125831765D01*
X34976895Y-125829806D01*
X34976665Y-125828957D01*
X34975879Y-125827414D01*
X34976202Y-125827248D01*
X34958641Y-125762363D01*
X34976151Y-125702725D01*
X34975879Y-125702586D01*
X34976619Y-125701133D01*
X34976895Y-125700194D01*
X34978096Y-125698234D01*
X35055566Y-125546191D01*
X35108301Y-125383891D01*
X35108305Y-125383875D01*
X35108918Y-125380001D01*
X35108918Y-125380000D01*
X34288816Y-125380000D01*
X34304876Y-125363940D01*
X34355036Y-125277061D01*
X34381000Y-125180160D01*
X34381000Y-125079840D01*
X34355036Y-124982939D01*
X34304876Y-124896060D01*
X34288816Y-124880000D01*
X35108918Y-124880000D01*
X35108918Y-124879998D01*
X35108305Y-124876124D01*
X35108301Y-124876108D01*
X35055566Y-124713808D01*
X34978096Y-124561765D01*
X34976895Y-124559806D01*
X34976665Y-124558957D01*
X34975879Y-124557414D01*
X34976202Y-124557248D01*
X34958641Y-124492363D01*
X34976151Y-124432725D01*
X34975879Y-124432586D01*
X34976619Y-124431133D01*
X34976895Y-124430194D01*
X34978096Y-124428234D01*
X35055566Y-124276191D01*
X35108301Y-124113891D01*
X35108305Y-124113875D01*
X35108918Y-124110001D01*
X35108918Y-124110000D01*
X34288816Y-124110000D01*
X34304876Y-124093940D01*
X34355036Y-124007061D01*
X34381000Y-123910160D01*
X34381000Y-123809840D01*
X34355036Y-123712939D01*
X34315526Y-123644506D01*
X34372577Y-123625969D01*
X34403048Y-123616069D01*
X34441366Y-123610000D01*
X35108918Y-123610000D01*
X35108918Y-123609998D01*
X35108305Y-123606124D01*
X35108301Y-123606108D01*
X35055566Y-123443808D01*
X34978088Y-123291749D01*
X34977179Y-123290266D01*
X34977005Y-123289625D01*
X34975879Y-123287414D01*
X34976343Y-123287177D01*
X34958937Y-123222820D01*
X34976519Y-123162956D01*
X34976307Y-123162848D01*
X34976883Y-123161716D01*
X34977190Y-123160673D01*
X34978507Y-123158522D01*
X34978519Y-123158507D01*
X35056031Y-123006380D01*
X35108791Y-122844001D01*
X35135500Y-122675368D01*
X35135500Y-122504632D01*
X35108791Y-122335999D01*
X35108790Y-122335995D01*
X35108790Y-122335994D01*
X35056032Y-122173622D01*
X35056030Y-122173619D01*
X34978519Y-122021493D01*
X34978510Y-122021481D01*
X34977481Y-122019801D01*
X34977281Y-122019065D01*
X34976307Y-122017152D01*
X34976708Y-122016947D01*
X34959230Y-121952357D01*
X34976651Y-121893023D01*
X34976307Y-121892848D01*
X34977242Y-121891012D01*
X34977481Y-121890199D01*
X34978506Y-121888523D01*
X34978519Y-121888507D01*
X35056031Y-121736380D01*
X35108791Y-121574001D01*
X35135500Y-121405368D01*
X35135500Y-121234632D01*
X35108791Y-121065999D01*
X35108790Y-121065995D01*
X35108790Y-121065994D01*
X35056032Y-120903622D01*
X35056030Y-120903619D01*
X34978519Y-120751493D01*
X34978510Y-120751481D01*
X34977481Y-120749801D01*
X34977281Y-120749065D01*
X34976307Y-120747152D01*
X34976708Y-120746947D01*
X34959230Y-120682357D01*
X34976651Y-120623023D01*
X34976307Y-120622848D01*
X34977242Y-120621012D01*
X34977481Y-120620199D01*
X34978506Y-120618523D01*
X34978519Y-120618507D01*
X35056031Y-120466380D01*
X35108791Y-120304001D01*
X35135500Y-120135368D01*
X35135500Y-119964632D01*
X35108791Y-119795999D01*
X35108790Y-119795995D01*
X35108790Y-119795994D01*
X35056032Y-119633622D01*
X35056030Y-119633619D01*
X34978518Y-119481492D01*
X34878163Y-119343365D01*
X34757435Y-119222637D01*
X34619307Y-119122281D01*
X34467180Y-119044769D01*
X34467177Y-119044767D01*
X34304804Y-118992009D01*
X34178326Y-118971977D01*
X34136168Y-118965300D01*
X33863832Y-118965300D01*
X33807621Y-118974203D01*
X33695197Y-118992009D01*
X33695194Y-118992009D01*
X33532822Y-119044767D01*
X33532819Y-119044769D01*
X33380692Y-119122281D01*
X33301885Y-119179538D01*
X33242565Y-119222637D01*
X33242563Y-119222639D01*
X33242562Y-119222639D01*
X33121839Y-119343362D01*
X33121839Y-119343363D01*
X33121837Y-119343365D01*
X33078738Y-119402685D01*
X33021481Y-119481492D01*
X32943969Y-119633619D01*
X32943967Y-119633622D01*
X32891209Y-119795994D01*
X32891209Y-119795997D01*
X32883973Y-119841684D01*
X32854044Y-119904819D01*
X32794732Y-119941750D01*
X32724870Y-119940752D01*
X32666637Y-119902142D01*
X32638523Y-119838178D01*
X32637500Y-119822286D01*
X32637500Y-117487095D01*
X32657185Y-117420056D01*
X32709989Y-117374301D01*
X32779147Y-117364357D01*
X32842703Y-117393382D01*
X32861816Y-117414208D01*
X32914673Y-117486959D01*
X33073043Y-117645329D01*
X33254238Y-117776975D01*
X33453796Y-117878655D01*
X33666803Y-117947866D01*
X33749757Y-117961004D01*
X33888010Y-117982902D01*
X33888015Y-117982902D01*
X34111990Y-117982902D01*
X34234880Y-117963437D01*
X34333197Y-117947866D01*
X34546204Y-117878655D01*
X34745762Y-117776975D01*
X34926957Y-117645329D01*
X35085327Y-117486959D01*
X35216973Y-117305764D01*
X35318653Y-117106206D01*
X35387864Y-116893199D01*
X35403435Y-116794882D01*
X35422900Y-116671992D01*
X35422900Y-116448011D01*
X35387864Y-116226808D01*
X35387864Y-116226805D01*
X35318653Y-116013798D01*
X35216973Y-115814240D01*
X35085327Y-115633045D01*
X34926957Y-115474675D01*
X34745762Y-115343029D01*
X34546204Y-115241349D01*
X34333197Y-115172138D01*
X34333195Y-115172137D01*
X34333193Y-115172137D01*
X34111990Y-115137102D01*
X34111985Y-115137102D01*
X33888015Y-115137102D01*
X33888010Y-115137102D01*
X33666806Y-115172137D01*
X33453793Y-115241350D01*
X33254237Y-115343029D01*
X33150859Y-115418137D01*
X33073043Y-115474675D01*
X33073041Y-115474677D01*
X33073040Y-115474677D01*
X32914675Y-115633042D01*
X32914675Y-115633043D01*
X32914673Y-115633045D01*
X32894368Y-115660993D01*
X32861818Y-115705794D01*
X32806488Y-115748459D01*
X32736874Y-115754438D01*
X32675079Y-115721832D01*
X32640722Y-115660993D01*
X32637500Y-115632908D01*
X32637500Y-114434108D01*
X37999500Y-114434108D01*
X37999500Y-157565892D01*
X38009496Y-157603198D01*
X38033608Y-157693187D01*
X38052560Y-157726012D01*
X38099500Y-157807314D01*
X38192686Y-157900500D01*
X38306814Y-157966392D01*
X38434108Y-158000500D01*
X38434110Y-158000500D01*
X41565890Y-158000500D01*
X41565892Y-158000500D01*
X41693186Y-157966392D01*
X41807314Y-157900500D01*
X41900500Y-157807314D01*
X41966392Y-157693186D01*
X42000500Y-157565892D01*
X42000500Y-155189008D01*
X44716800Y-155189008D01*
X44716800Y-155390987D01*
X44748397Y-155590482D01*
X44810810Y-155782573D01*
X44810811Y-155782576D01*
X44902511Y-155962544D01*
X45021224Y-156125940D01*
X45021228Y-156125945D01*
X45164052Y-156268769D01*
X45164057Y-156268773D01*
X45278123Y-156351646D01*
X45327457Y-156387489D01*
X45445101Y-156447431D01*
X45507421Y-156479186D01*
X45507424Y-156479187D01*
X45603469Y-156510393D01*
X45699517Y-156541601D01*
X45899010Y-156573198D01*
X45899011Y-156573198D01*
X46100989Y-156573198D01*
X46100990Y-156573198D01*
X46300483Y-156541601D01*
X46492578Y-156479186D01*
X46672543Y-156387489D01*
X46835949Y-156268768D01*
X46978770Y-156125947D01*
X47097491Y-155962541D01*
X47189188Y-155782576D01*
X47251603Y-155590481D01*
X47283200Y-155390988D01*
X47283200Y-155189008D01*
X47251603Y-154989515D01*
X47189188Y-154797420D01*
X47189188Y-154797419D01*
X47157433Y-154735099D01*
X47097491Y-154617455D01*
X47072397Y-154582916D01*
X46978775Y-154454055D01*
X46978771Y-154454050D01*
X46835947Y-154311226D01*
X46835942Y-154311222D01*
X46672546Y-154192509D01*
X46672545Y-154192508D01*
X46672543Y-154192507D01*
X46601905Y-154156515D01*
X46492578Y-154100809D01*
X46492575Y-154100808D01*
X46300484Y-154038395D01*
X46200736Y-154022596D01*
X46100990Y-154006798D01*
X45899010Y-154006798D01*
X45852636Y-154014143D01*
X45699515Y-154038395D01*
X45507424Y-154100808D01*
X45507421Y-154100809D01*
X45327453Y-154192509D01*
X45164057Y-154311222D01*
X45164052Y-154311226D01*
X45021228Y-154454050D01*
X45021224Y-154454055D01*
X44902511Y-154617451D01*
X44810811Y-154797419D01*
X44810810Y-154797422D01*
X44748397Y-154989513D01*
X44716800Y-155189008D01*
X42000500Y-155189008D01*
X42000500Y-114434108D01*
X41966392Y-114306814D01*
X41900500Y-114192686D01*
X41807314Y-114099500D01*
X41750250Y-114066554D01*
X41693187Y-114033608D01*
X41598391Y-114008208D01*
X41565892Y-113999500D01*
X38565892Y-113999500D01*
X38434108Y-113999500D01*
X38306812Y-114033608D01*
X38192686Y-114099500D01*
X38192683Y-114099502D01*
X38099502Y-114192683D01*
X38099500Y-114192686D01*
X38033608Y-114306812D01*
X38006306Y-114408708D01*
X37999500Y-114434108D01*
X32637500Y-114434108D01*
X32637500Y-113279519D01*
X32657185Y-113212480D01*
X32673819Y-113191838D01*
X38628838Y-107236819D01*
X38690161Y-107203334D01*
X38716519Y-107200500D01*
X40436392Y-107200500D01*
X40503431Y-107220185D01*
X40546877Y-107268205D01*
X40594353Y-107361382D01*
X40746408Y-107570668D01*
X40929332Y-107753592D01*
X41138618Y-107905647D01*
X41369115Y-108023091D01*
X41615146Y-108103032D01*
X41710961Y-108118207D01*
X41870649Y-108143500D01*
X41870654Y-108143500D01*
X42129351Y-108143500D01*
X42245486Y-108125105D01*
X42384854Y-108103032D01*
X42484311Y-108070715D01*
X42554151Y-108068721D01*
X42610309Y-108100966D01*
X43011181Y-108501838D01*
X43044666Y-108563161D01*
X43047500Y-108589519D01*
X43047500Y-125679006D01*
X43047500Y-125816994D01*
X43047500Y-125816996D01*
X43047499Y-125816996D01*
X43074418Y-125952322D01*
X43074421Y-125952332D01*
X43127222Y-126079807D01*
X43203887Y-126194545D01*
X43203888Y-126194546D01*
X44854789Y-127845445D01*
X44888274Y-127906768D01*
X44889580Y-127913722D01*
X44891207Y-127923994D01*
X44891208Y-127923998D01*
X44943967Y-128086377D01*
X44943969Y-128086380D01*
X45021480Y-128238506D01*
X45022526Y-128240212D01*
X45022725Y-128240948D01*
X45023693Y-128242848D01*
X45023293Y-128243051D01*
X45040768Y-128307659D01*
X45023351Y-128366977D01*
X45023693Y-128367152D01*
X45022765Y-128368972D01*
X45022526Y-128369788D01*
X45021480Y-128371493D01*
X44943969Y-128523619D01*
X44943967Y-128523622D01*
X44891209Y-128685994D01*
X44891209Y-128685997D01*
X44864500Y-128854632D01*
X44864500Y-129025367D01*
X44891209Y-129194002D01*
X44891209Y-129194005D01*
X44943967Y-129356377D01*
X44943969Y-129356380D01*
X45021480Y-129508506D01*
X45022526Y-129510212D01*
X45022725Y-129510948D01*
X45023693Y-129512848D01*
X45023293Y-129513051D01*
X45040768Y-129577659D01*
X45023351Y-129636977D01*
X45023693Y-129637152D01*
X45022765Y-129638972D01*
X45022526Y-129639788D01*
X45021480Y-129641493D01*
X44943969Y-129793619D01*
X44943967Y-129793622D01*
X44891209Y-129955994D01*
X44891209Y-129955997D01*
X44864500Y-130124632D01*
X44864500Y-130295367D01*
X44891209Y-130464002D01*
X44891209Y-130464005D01*
X44943967Y-130626377D01*
X44943969Y-130626380D01*
X45021482Y-130778509D01*
X45022821Y-130780694D01*
X45023076Y-130781637D01*
X45023693Y-130782848D01*
X45023438Y-130782977D01*
X45041062Y-130848140D01*
X45023719Y-130907209D01*
X45024121Y-130907414D01*
X45023031Y-130909552D01*
X45022823Y-130910262D01*
X45021913Y-130911746D01*
X44944433Y-131063808D01*
X44891698Y-131226108D01*
X44891694Y-131226124D01*
X44891081Y-131229998D01*
X44891082Y-131230000D01*
X45558634Y-131230000D01*
X45596952Y-131236069D01*
X45627702Y-131246060D01*
X45684473Y-131264506D01*
X45644964Y-131332939D01*
X45619000Y-131429840D01*
X45619000Y-131530160D01*
X45644964Y-131627061D01*
X45695124Y-131713940D01*
X45711184Y-131730000D01*
X44891082Y-131730000D01*
X44891081Y-131730001D01*
X44891694Y-131733875D01*
X44891698Y-131733891D01*
X44944433Y-131896191D01*
X45021911Y-132048250D01*
X45023118Y-132050219D01*
X45023347Y-132051068D01*
X45024121Y-132052586D01*
X45023801Y-132052748D01*
X45041356Y-132117667D01*
X45023853Y-132177277D01*
X45024121Y-132177414D01*
X45023394Y-132178840D01*
X45023118Y-132179781D01*
X45021911Y-132181749D01*
X44944433Y-132333808D01*
X44891698Y-132496108D01*
X44891694Y-132496124D01*
X44891081Y-132499998D01*
X44891082Y-132500000D01*
X45711184Y-132500000D01*
X45695124Y-132516060D01*
X45644964Y-132602939D01*
X45619000Y-132699840D01*
X45619000Y-132800160D01*
X45644964Y-132897061D01*
X45695124Y-132983940D01*
X45711184Y-133000000D01*
X44891082Y-133000000D01*
X44891081Y-133000001D01*
X44891694Y-133003875D01*
X44891698Y-133003891D01*
X44944433Y-133166191D01*
X45021911Y-133318250D01*
X45023118Y-133320219D01*
X45023347Y-133321068D01*
X45024121Y-133322586D01*
X45023801Y-133322748D01*
X45041356Y-133387667D01*
X45023853Y-133447277D01*
X45024121Y-133447414D01*
X45023394Y-133448840D01*
X45023118Y-133449781D01*
X45021911Y-133451749D01*
X44944433Y-133603808D01*
X44891698Y-133766108D01*
X44891694Y-133766124D01*
X44891081Y-133769998D01*
X44891082Y-133770000D01*
X45711184Y-133770000D01*
X45695124Y-133786060D01*
X45644964Y-133872939D01*
X45619000Y-133969840D01*
X45619000Y-134070160D01*
X45644964Y-134167061D01*
X45684473Y-134235493D01*
X45596952Y-134263931D01*
X45558634Y-134270000D01*
X44891082Y-134270000D01*
X44891081Y-134270001D01*
X44891694Y-134273875D01*
X44891698Y-134273891D01*
X44944433Y-134436191D01*
X45021913Y-134588253D01*
X45022823Y-134589738D01*
X45022996Y-134590378D01*
X45024121Y-134592586D01*
X45023657Y-134592822D01*
X45041062Y-134657185D01*
X45023486Y-134717047D01*
X45023693Y-134717153D01*
X45023131Y-134718254D01*
X45022825Y-134719299D01*
X45021485Y-134721485D01*
X44943968Y-134873619D01*
X44943967Y-134873622D01*
X44891209Y-135035994D01*
X44891209Y-135035997D01*
X44864500Y-135204632D01*
X44864500Y-135375367D01*
X44891209Y-135544002D01*
X44891209Y-135544005D01*
X44943967Y-135706377D01*
X44943969Y-135706380D01*
X45021480Y-135858506D01*
X45022526Y-135860212D01*
X45022725Y-135860948D01*
X45023693Y-135862848D01*
X45023293Y-135863051D01*
X45040768Y-135927659D01*
X45023351Y-135986977D01*
X45023693Y-135987152D01*
X45022765Y-135988972D01*
X45022526Y-135989788D01*
X45021480Y-135991493D01*
X44943969Y-136143619D01*
X44943967Y-136143622D01*
X44891209Y-136305994D01*
X44891209Y-136305997D01*
X44864500Y-136474632D01*
X44864500Y-136645367D01*
X44891209Y-136814002D01*
X44891209Y-136814005D01*
X44943967Y-136976377D01*
X44943969Y-136976380D01*
X45021480Y-137128506D01*
X45022526Y-137130212D01*
X45022725Y-137130948D01*
X45023693Y-137132848D01*
X45023293Y-137133051D01*
X45040768Y-137197659D01*
X45023351Y-137256977D01*
X45023693Y-137257152D01*
X45022765Y-137258972D01*
X45022526Y-137259788D01*
X45021480Y-137261493D01*
X44943969Y-137413619D01*
X44943967Y-137413622D01*
X44891209Y-137575994D01*
X44891209Y-137575997D01*
X44864500Y-137744632D01*
X44864500Y-137915367D01*
X44891209Y-138084002D01*
X44891209Y-138084005D01*
X44943967Y-138246377D01*
X44943969Y-138246380D01*
X45021481Y-138398507D01*
X45121837Y-138536635D01*
X45242565Y-138657363D01*
X45380693Y-138757719D01*
X45532820Y-138835231D01*
X45532822Y-138835232D01*
X45695195Y-138887990D01*
X45695196Y-138887990D01*
X45695199Y-138887991D01*
X45863832Y-138914700D01*
X45863833Y-138914700D01*
X46136167Y-138914700D01*
X46136168Y-138914700D01*
X46304801Y-138887991D01*
X46304804Y-138887990D01*
X46304805Y-138887990D01*
X46467177Y-138835232D01*
X46467177Y-138835231D01*
X46467180Y-138835231D01*
X46619307Y-138757719D01*
X46757435Y-138657363D01*
X46878163Y-138536635D01*
X46978519Y-138398507D01*
X47056031Y-138246380D01*
X47108791Y-138084001D01*
X47135500Y-137915368D01*
X47135500Y-137744632D01*
X47108791Y-137575999D01*
X47108790Y-137575995D01*
X47108790Y-137575994D01*
X47056032Y-137413622D01*
X47056030Y-137413619D01*
X46978519Y-137261493D01*
X46978510Y-137261481D01*
X46977481Y-137259801D01*
X46977281Y-137259065D01*
X46976307Y-137257152D01*
X46976708Y-137256947D01*
X46959230Y-137192357D01*
X46976651Y-137133023D01*
X46976307Y-137132848D01*
X46977242Y-137131012D01*
X46977481Y-137130199D01*
X46978506Y-137128523D01*
X46978519Y-137128507D01*
X47056031Y-136976380D01*
X47108791Y-136814001D01*
X47135500Y-136645368D01*
X47135500Y-136474632D01*
X47108791Y-136305999D01*
X47108790Y-136305995D01*
X47108790Y-136305994D01*
X47056032Y-136143622D01*
X47056030Y-136143619D01*
X46978519Y-135991493D01*
X46978510Y-135991481D01*
X46977481Y-135989801D01*
X46977281Y-135989065D01*
X46976307Y-135987152D01*
X46976708Y-135986947D01*
X46959230Y-135922357D01*
X46976651Y-135863023D01*
X46976307Y-135862848D01*
X46977242Y-135861012D01*
X46977481Y-135860199D01*
X46978506Y-135858523D01*
X46978519Y-135858507D01*
X47056031Y-135706380D01*
X47108791Y-135544001D01*
X47135500Y-135375368D01*
X47135500Y-135204632D01*
X47108791Y-135035999D01*
X47108790Y-135035995D01*
X47108790Y-135035994D01*
X47056032Y-134873622D01*
X47056030Y-134873619D01*
X46978519Y-134721493D01*
X46977181Y-134719310D01*
X46976925Y-134718366D01*
X46976307Y-134717152D01*
X46976562Y-134717022D01*
X46958936Y-134651864D01*
X46976285Y-134592792D01*
X46975879Y-134592586D01*
X46976980Y-134590423D01*
X46977189Y-134589715D01*
X46978094Y-134588237D01*
X47055566Y-134436191D01*
X47108301Y-134273891D01*
X47108305Y-134273875D01*
X47108918Y-134270001D01*
X47108918Y-134270000D01*
X46441366Y-134270000D01*
X46403048Y-134263931D01*
X46315526Y-134235493D01*
X46355036Y-134167061D01*
X46381000Y-134070160D01*
X46381000Y-133969840D01*
X46355036Y-133872939D01*
X46304876Y-133786060D01*
X46288816Y-133770000D01*
X47108918Y-133770000D01*
X47108918Y-133769998D01*
X47108305Y-133766124D01*
X47108301Y-133766108D01*
X47055566Y-133603808D01*
X46978096Y-133451765D01*
X46976895Y-133449806D01*
X46976665Y-133448957D01*
X46975879Y-133447414D01*
X46976202Y-133447248D01*
X46958641Y-133382363D01*
X46976151Y-133322725D01*
X46975879Y-133322586D01*
X46976619Y-133321133D01*
X46976895Y-133320194D01*
X46978096Y-133318234D01*
X47055566Y-133166191D01*
X47108301Y-133003891D01*
X47108305Y-133003875D01*
X47108918Y-133000001D01*
X47108918Y-133000000D01*
X46288816Y-133000000D01*
X46304876Y-132983940D01*
X46355036Y-132897061D01*
X46381000Y-132800160D01*
X46381000Y-132699840D01*
X46355036Y-132602939D01*
X46304876Y-132516060D01*
X46288816Y-132500000D01*
X47108918Y-132500000D01*
X47108918Y-132499998D01*
X47108305Y-132496124D01*
X47108301Y-132496108D01*
X47055566Y-132333808D01*
X46978096Y-132181765D01*
X46976895Y-132179806D01*
X46976665Y-132178957D01*
X46975879Y-132177414D01*
X46976202Y-132177248D01*
X46958641Y-132112363D01*
X46976151Y-132052725D01*
X46975879Y-132052586D01*
X46976619Y-132051133D01*
X46976895Y-132050194D01*
X46978096Y-132048234D01*
X47055566Y-131896191D01*
X47108301Y-131733891D01*
X47108305Y-131733875D01*
X47108918Y-131730001D01*
X47108918Y-131730000D01*
X46288816Y-131730000D01*
X46304876Y-131713940D01*
X46355036Y-131627061D01*
X46381000Y-131530160D01*
X46381000Y-131429840D01*
X46355036Y-131332939D01*
X46315526Y-131264506D01*
X46372577Y-131245969D01*
X46403048Y-131236069D01*
X46441366Y-131230000D01*
X47108918Y-131230000D01*
X47108918Y-131229998D01*
X47108305Y-131226124D01*
X47108301Y-131226108D01*
X47055566Y-131063808D01*
X46978088Y-130911749D01*
X46977179Y-130910266D01*
X46977005Y-130909625D01*
X46975879Y-130907414D01*
X46976343Y-130907177D01*
X46958937Y-130842820D01*
X46976519Y-130782956D01*
X46976307Y-130782848D01*
X46976883Y-130781716D01*
X46977190Y-130780673D01*
X46978507Y-130778522D01*
X46978519Y-130778507D01*
X47056031Y-130626380D01*
X47108791Y-130464001D01*
X47135500Y-130295368D01*
X47135500Y-130124632D01*
X47108791Y-129955999D01*
X47108790Y-129955995D01*
X47108790Y-129955994D01*
X47056032Y-129793622D01*
X47056030Y-129793619D01*
X46978519Y-129641493D01*
X46978510Y-129641481D01*
X46977481Y-129639801D01*
X46977281Y-129639065D01*
X46976307Y-129637152D01*
X46976708Y-129636947D01*
X46959230Y-129572357D01*
X46976651Y-129513023D01*
X46976307Y-129512848D01*
X46977242Y-129511012D01*
X46977481Y-129510199D01*
X46978506Y-129508523D01*
X46978519Y-129508507D01*
X47056031Y-129356380D01*
X47108791Y-129194001D01*
X47135500Y-129025368D01*
X47135500Y-128854632D01*
X47108791Y-128685999D01*
X47108790Y-128685995D01*
X47108790Y-128685994D01*
X47056032Y-128523622D01*
X47056030Y-128523619D01*
X46978519Y-128371493D01*
X46978510Y-128371481D01*
X46977481Y-128369801D01*
X46977281Y-128369065D01*
X46976307Y-128367152D01*
X46976708Y-128366947D01*
X46959230Y-128302357D01*
X46976651Y-128243023D01*
X46976307Y-128242848D01*
X46977242Y-128241012D01*
X46977481Y-128240199D01*
X46978506Y-128238523D01*
X46978519Y-128238507D01*
X47056031Y-128086380D01*
X47108791Y-127924001D01*
X47135500Y-127755368D01*
X47135500Y-127584632D01*
X47108791Y-127415999D01*
X47108790Y-127415995D01*
X47108790Y-127415994D01*
X47056032Y-127253622D01*
X47056030Y-127253619D01*
X46978519Y-127101493D01*
X46977181Y-127099310D01*
X46976925Y-127098366D01*
X46976307Y-127097152D01*
X46976562Y-127097022D01*
X46958936Y-127031864D01*
X46976285Y-126972792D01*
X46975879Y-126972586D01*
X46976980Y-126970423D01*
X46977189Y-126969715D01*
X46978094Y-126968237D01*
X47055566Y-126816191D01*
X47108301Y-126653891D01*
X47108305Y-126653875D01*
X47108918Y-126650001D01*
X47108918Y-126650000D01*
X46441366Y-126650000D01*
X46403048Y-126643931D01*
X46315526Y-126615493D01*
X46355036Y-126547061D01*
X46381000Y-126450160D01*
X46381000Y-126349840D01*
X46355036Y-126252939D01*
X46304876Y-126166060D01*
X46288816Y-126150000D01*
X47108918Y-126150000D01*
X47108918Y-126149998D01*
X47108305Y-126146124D01*
X47108301Y-126146108D01*
X47055566Y-125983808D01*
X46978096Y-125831765D01*
X46976895Y-125829806D01*
X46976665Y-125828957D01*
X46975879Y-125827414D01*
X46976202Y-125827248D01*
X46958641Y-125762363D01*
X46976151Y-125702725D01*
X46975879Y-125702586D01*
X46976619Y-125701133D01*
X46976895Y-125700194D01*
X46978096Y-125698234D01*
X47055566Y-125546191D01*
X47108301Y-125383891D01*
X47108305Y-125383875D01*
X47108918Y-125380001D01*
X47108918Y-125380000D01*
X46288816Y-125380000D01*
X46304876Y-125363940D01*
X46355036Y-125277061D01*
X46381000Y-125180160D01*
X46381000Y-125079840D01*
X46355036Y-124982939D01*
X46304876Y-124896060D01*
X46288816Y-124880000D01*
X47108918Y-124880000D01*
X47108918Y-124879998D01*
X47108305Y-124876124D01*
X47108301Y-124876108D01*
X47055566Y-124713808D01*
X46978096Y-124561765D01*
X46976895Y-124559806D01*
X46976665Y-124558957D01*
X46975879Y-124557414D01*
X46976202Y-124557248D01*
X46958641Y-124492363D01*
X46976151Y-124432725D01*
X46975879Y-124432586D01*
X46976619Y-124431133D01*
X46976895Y-124430194D01*
X46978096Y-124428234D01*
X47055566Y-124276191D01*
X47108301Y-124113891D01*
X47108305Y-124113875D01*
X47108918Y-124110001D01*
X47108918Y-124110000D01*
X46288816Y-124110000D01*
X46304876Y-124093940D01*
X46355036Y-124007061D01*
X46381000Y-123910160D01*
X46381000Y-123809840D01*
X46355036Y-123712939D01*
X46315526Y-123644506D01*
X46372577Y-123625969D01*
X46403048Y-123616069D01*
X46441366Y-123610000D01*
X47108918Y-123610000D01*
X47108918Y-123609998D01*
X47108305Y-123606124D01*
X47108301Y-123606108D01*
X47055566Y-123443808D01*
X46978088Y-123291749D01*
X46977179Y-123290266D01*
X46977005Y-123289625D01*
X46975879Y-123287414D01*
X46976343Y-123287177D01*
X46958937Y-123222820D01*
X46976519Y-123162956D01*
X46976307Y-123162848D01*
X46976883Y-123161716D01*
X46977190Y-123160673D01*
X46978507Y-123158522D01*
X46978519Y-123158507D01*
X47056031Y-123006380D01*
X47108791Y-122844001D01*
X47135500Y-122675368D01*
X47135500Y-122504632D01*
X47108791Y-122335999D01*
X47108790Y-122335995D01*
X47108790Y-122335994D01*
X47056032Y-122173622D01*
X47056030Y-122173619D01*
X46978519Y-122021493D01*
X46978510Y-122021481D01*
X46977481Y-122019801D01*
X46977281Y-122019065D01*
X46976307Y-122017152D01*
X46976708Y-122016947D01*
X46959230Y-121952357D01*
X46976651Y-121893023D01*
X46976307Y-121892848D01*
X46977242Y-121891012D01*
X46977481Y-121890199D01*
X46978506Y-121888523D01*
X46978519Y-121888507D01*
X47056031Y-121736380D01*
X47108791Y-121574001D01*
X47135500Y-121405368D01*
X47135500Y-121234632D01*
X47108791Y-121065999D01*
X47108790Y-121065995D01*
X47108790Y-121065994D01*
X47056032Y-120903622D01*
X47056030Y-120903619D01*
X46978519Y-120751493D01*
X46978510Y-120751481D01*
X46977481Y-120749801D01*
X46977281Y-120749065D01*
X46976307Y-120747152D01*
X46976708Y-120746947D01*
X46959230Y-120682357D01*
X46976651Y-120623023D01*
X46976307Y-120622848D01*
X46977242Y-120621012D01*
X46977481Y-120620199D01*
X46978506Y-120618523D01*
X46978519Y-120618507D01*
X47056031Y-120466380D01*
X47108791Y-120304001D01*
X47135500Y-120135368D01*
X47135500Y-119964632D01*
X47108791Y-119795999D01*
X47108790Y-119795995D01*
X47108790Y-119795994D01*
X47056032Y-119633622D01*
X47056030Y-119633619D01*
X46978518Y-119481492D01*
X46878163Y-119343365D01*
X46757435Y-119222637D01*
X46619307Y-119122281D01*
X46467180Y-119044769D01*
X46467177Y-119044767D01*
X46304804Y-118992009D01*
X46178326Y-118971977D01*
X46136168Y-118965300D01*
X45863832Y-118965300D01*
X45807621Y-118974203D01*
X45695197Y-118992009D01*
X45695194Y-118992009D01*
X45532822Y-119044767D01*
X45532819Y-119044769D01*
X45380692Y-119122281D01*
X45301885Y-119179538D01*
X45242565Y-119222637D01*
X45242563Y-119222639D01*
X45242562Y-119222639D01*
X45121839Y-119343362D01*
X45121839Y-119343363D01*
X45121837Y-119343365D01*
X45078738Y-119402685D01*
X45021481Y-119481492D01*
X44943969Y-119633619D01*
X44943967Y-119633622D01*
X44891209Y-119795994D01*
X44891209Y-119795997D01*
X44868282Y-119940752D01*
X44864500Y-119964632D01*
X44864500Y-120135368D01*
X44869288Y-120165598D01*
X44891209Y-120304002D01*
X44891209Y-120304005D01*
X44943967Y-120466377D01*
X44943969Y-120466380D01*
X45021480Y-120618506D01*
X45022526Y-120620212D01*
X45022725Y-120620948D01*
X45023693Y-120622848D01*
X45023293Y-120623051D01*
X45040768Y-120687659D01*
X45023351Y-120746977D01*
X45023693Y-120747152D01*
X45022765Y-120748972D01*
X45022526Y-120749788D01*
X45021480Y-120751493D01*
X44943969Y-120903619D01*
X44943967Y-120903622D01*
X44891209Y-121065994D01*
X44891209Y-121065997D01*
X44868282Y-121210752D01*
X44864500Y-121234632D01*
X44864500Y-121405368D01*
X44872203Y-121454000D01*
X44891209Y-121574002D01*
X44891209Y-121574005D01*
X44943967Y-121736377D01*
X44943969Y-121736380D01*
X45021480Y-121888506D01*
X45022526Y-121890212D01*
X45022725Y-121890948D01*
X45023693Y-121892848D01*
X45023293Y-121893051D01*
X45040768Y-121957659D01*
X45023351Y-122016977D01*
X45023693Y-122017152D01*
X45022765Y-122018972D01*
X45022526Y-122019788D01*
X45021480Y-122021493D01*
X44943969Y-122173619D01*
X44943967Y-122173622D01*
X44891209Y-122335994D01*
X44891209Y-122335997D01*
X44868282Y-122480752D01*
X44864500Y-122504632D01*
X44864500Y-122675368D01*
X44869288Y-122705598D01*
X44891209Y-122844002D01*
X44891209Y-122844005D01*
X44943967Y-123006377D01*
X44943969Y-123006380D01*
X45021482Y-123158509D01*
X45022821Y-123160694D01*
X45023076Y-123161637D01*
X45023693Y-123162848D01*
X45023438Y-123162977D01*
X45041062Y-123228140D01*
X45023719Y-123287209D01*
X45024121Y-123287414D01*
X45023031Y-123289552D01*
X45022823Y-123290262D01*
X45021913Y-123291746D01*
X44944433Y-123443808D01*
X44891698Y-123606108D01*
X44891694Y-123606124D01*
X44891081Y-123609998D01*
X44891082Y-123610000D01*
X45558634Y-123610000D01*
X45596952Y-123616069D01*
X45627702Y-123626060D01*
X45684473Y-123644506D01*
X45644964Y-123712939D01*
X45619000Y-123809840D01*
X45619000Y-123910160D01*
X45644964Y-124007061D01*
X45695124Y-124093940D01*
X45711184Y-124110000D01*
X44891082Y-124110000D01*
X44891081Y-124110001D01*
X44891694Y-124113875D01*
X44891698Y-124113891D01*
X44944433Y-124276191D01*
X45021911Y-124428250D01*
X45023118Y-124430219D01*
X45023347Y-124431068D01*
X45024121Y-124432586D01*
X45023801Y-124432748D01*
X45041356Y-124497667D01*
X45023853Y-124557277D01*
X45024121Y-124557414D01*
X45023394Y-124558840D01*
X45023118Y-124559781D01*
X45021911Y-124561749D01*
X44944433Y-124713808D01*
X44891698Y-124876108D01*
X44891694Y-124876124D01*
X44891081Y-124879998D01*
X44891082Y-124880000D01*
X45711184Y-124880000D01*
X45695124Y-124896060D01*
X45644964Y-124982939D01*
X45619000Y-125079840D01*
X45619000Y-125180160D01*
X45644964Y-125277061D01*
X45695124Y-125363940D01*
X45711184Y-125380000D01*
X44891082Y-125380000D01*
X44891081Y-125380001D01*
X44891694Y-125383875D01*
X44891698Y-125383891D01*
X44944433Y-125546191D01*
X45012419Y-125679620D01*
X45025315Y-125748289D01*
X44999039Y-125813029D01*
X44941933Y-125853287D01*
X44872127Y-125856279D01*
X44814253Y-125823596D01*
X44484819Y-125494162D01*
X44451334Y-125432839D01*
X44448500Y-125406481D01*
X44448500Y-117165716D01*
X44468185Y-117098677D01*
X44520989Y-117052922D01*
X44590147Y-117042978D01*
X44653703Y-117072003D01*
X44682985Y-117109421D01*
X44783027Y-117305764D01*
X44914673Y-117486959D01*
X45073043Y-117645329D01*
X45254238Y-117776975D01*
X45453796Y-117878655D01*
X45666803Y-117947866D01*
X45749757Y-117961004D01*
X45888010Y-117982902D01*
X45888015Y-117982902D01*
X46111990Y-117982902D01*
X46234880Y-117963437D01*
X46333197Y-117947866D01*
X46546204Y-117878655D01*
X46745762Y-117776975D01*
X46926957Y-117645329D01*
X47085327Y-117486959D01*
X47216973Y-117305764D01*
X47318653Y-117106206D01*
X47387864Y-116893199D01*
X47403435Y-116794882D01*
X47422900Y-116671992D01*
X47422900Y-116448011D01*
X47387864Y-116226808D01*
X47387864Y-116226805D01*
X47318653Y-116013798D01*
X47216973Y-115814240D01*
X47085327Y-115633045D01*
X46926957Y-115474675D01*
X46745762Y-115343029D01*
X46546204Y-115241349D01*
X46333197Y-115172138D01*
X46333195Y-115172137D01*
X46333193Y-115172137D01*
X46111990Y-115137102D01*
X46111985Y-115137102D01*
X45888015Y-115137102D01*
X45888010Y-115137102D01*
X45666806Y-115172137D01*
X45453793Y-115241350D01*
X45254237Y-115343029D01*
X45150859Y-115418137D01*
X45073043Y-115474675D01*
X45073041Y-115474677D01*
X45073040Y-115474677D01*
X44914675Y-115633042D01*
X44914675Y-115633043D01*
X44914673Y-115633045D01*
X44894368Y-115660993D01*
X44783027Y-115814239D01*
X44682985Y-116010582D01*
X44635010Y-116061378D01*
X44567189Y-116078173D01*
X44501054Y-116055635D01*
X44457603Y-116000920D01*
X44448500Y-115954287D01*
X44448500Y-114434108D01*
X50499500Y-114434108D01*
X50499500Y-157591291D01*
X50533608Y-157718587D01*
X50557228Y-157759497D01*
X50599500Y-157832714D01*
X50692686Y-157925900D01*
X50806814Y-157991792D01*
X50934108Y-158025900D01*
X50934110Y-158025900D01*
X53565890Y-158025900D01*
X53565892Y-158025900D01*
X53693186Y-157991792D01*
X53807314Y-157925900D01*
X53900500Y-157832714D01*
X53966392Y-157718586D01*
X54000500Y-157591292D01*
X54000500Y-114434108D01*
X53966392Y-114306814D01*
X53900500Y-114192686D01*
X53807314Y-114099500D01*
X53750250Y-114066554D01*
X53693187Y-114033608D01*
X53598391Y-114008208D01*
X53565892Y-113999500D01*
X51065892Y-113999500D01*
X50934108Y-113999500D01*
X50806812Y-114033608D01*
X50692686Y-114099500D01*
X50692683Y-114099502D01*
X50599502Y-114192683D01*
X50599500Y-114192686D01*
X50533608Y-114306812D01*
X50499500Y-114434108D01*
X44448500Y-114434108D01*
X44448500Y-110238519D01*
X44468185Y-110171480D01*
X44520989Y-110125725D01*
X44590147Y-110115781D01*
X44653703Y-110144806D01*
X44660181Y-110150838D01*
X47229453Y-112720111D01*
X47229454Y-112720112D01*
X47344192Y-112796777D01*
X47471667Y-112849578D01*
X47471672Y-112849580D01*
X47471676Y-112849580D01*
X47471677Y-112849581D01*
X47607003Y-112876500D01*
X47607006Y-112876500D01*
X47607007Y-112876500D01*
X53185481Y-112876500D01*
X53252520Y-112896185D01*
X53273162Y-112912819D01*
X54568181Y-114207838D01*
X54601666Y-114269161D01*
X54604500Y-114295519D01*
X54604500Y-124956806D01*
X54604500Y-125094794D01*
X54604500Y-125094796D01*
X54604499Y-125094796D01*
X54631418Y-125230122D01*
X54631421Y-125230132D01*
X54684222Y-125357607D01*
X54760887Y-125472345D01*
X54760888Y-125472346D01*
X56828181Y-127539638D01*
X56861666Y-127600961D01*
X56864500Y-127627319D01*
X56864500Y-127755367D01*
X56891209Y-127924002D01*
X56891209Y-127924005D01*
X56943967Y-128086377D01*
X56943969Y-128086380D01*
X57021480Y-128238506D01*
X57022526Y-128240212D01*
X57022725Y-128240948D01*
X57023693Y-128242848D01*
X57023293Y-128243051D01*
X57040768Y-128307659D01*
X57023351Y-128366977D01*
X57023693Y-128367152D01*
X57022765Y-128368972D01*
X57022526Y-128369788D01*
X57021480Y-128371493D01*
X56943969Y-128523619D01*
X56943967Y-128523622D01*
X56891209Y-128685994D01*
X56891209Y-128685997D01*
X56864500Y-128854632D01*
X56864500Y-129025367D01*
X56891209Y-129194002D01*
X56891209Y-129194005D01*
X56943967Y-129356377D01*
X56943969Y-129356380D01*
X57021480Y-129508506D01*
X57022526Y-129510212D01*
X57022725Y-129510948D01*
X57023693Y-129512848D01*
X57023293Y-129513051D01*
X57040768Y-129577659D01*
X57023351Y-129636977D01*
X57023693Y-129637152D01*
X57022765Y-129638972D01*
X57022526Y-129639788D01*
X57021480Y-129641493D01*
X56943969Y-129793619D01*
X56943967Y-129793622D01*
X56891209Y-129955994D01*
X56891209Y-129955997D01*
X56864500Y-130124632D01*
X56864500Y-130295367D01*
X56891209Y-130464002D01*
X56891209Y-130464005D01*
X56943967Y-130626377D01*
X56943969Y-130626380D01*
X57021482Y-130778509D01*
X57022821Y-130780694D01*
X57023076Y-130781637D01*
X57023693Y-130782848D01*
X57023438Y-130782977D01*
X57041062Y-130848140D01*
X57023719Y-130907209D01*
X57024121Y-130907414D01*
X57023031Y-130909552D01*
X57022823Y-130910262D01*
X57021913Y-130911746D01*
X56944433Y-131063808D01*
X56891698Y-131226108D01*
X56891694Y-131226124D01*
X56891081Y-131229998D01*
X56891082Y-131230000D01*
X57558634Y-131230000D01*
X57596952Y-131236069D01*
X57627702Y-131246060D01*
X57684473Y-131264506D01*
X57644964Y-131332939D01*
X57619000Y-131429840D01*
X57619000Y-131530160D01*
X57644964Y-131627061D01*
X57695124Y-131713940D01*
X57711184Y-131730000D01*
X56891082Y-131730000D01*
X56891081Y-131730001D01*
X56891694Y-131733875D01*
X56891698Y-131733891D01*
X56944433Y-131896191D01*
X57021911Y-132048250D01*
X57023118Y-132050219D01*
X57023347Y-132051068D01*
X57024121Y-132052586D01*
X57023801Y-132052748D01*
X57041356Y-132117667D01*
X57023853Y-132177277D01*
X57024121Y-132177414D01*
X57023394Y-132178840D01*
X57023118Y-132179781D01*
X57021911Y-132181749D01*
X56944433Y-132333808D01*
X56891698Y-132496108D01*
X56891694Y-132496124D01*
X56891081Y-132499998D01*
X56891082Y-132500000D01*
X57711184Y-132500000D01*
X57695124Y-132516060D01*
X57644964Y-132602939D01*
X57619000Y-132699840D01*
X57619000Y-132800160D01*
X57644964Y-132897061D01*
X57695124Y-132983940D01*
X57711184Y-133000000D01*
X56891082Y-133000000D01*
X56891081Y-133000001D01*
X56891694Y-133003875D01*
X56891698Y-133003891D01*
X56944433Y-133166191D01*
X57021911Y-133318250D01*
X57023118Y-133320219D01*
X57023347Y-133321068D01*
X57024121Y-133322586D01*
X57023801Y-133322748D01*
X57041356Y-133387667D01*
X57023853Y-133447277D01*
X57024121Y-133447414D01*
X57023394Y-133448840D01*
X57023118Y-133449781D01*
X57021911Y-133451749D01*
X56944433Y-133603808D01*
X56891698Y-133766108D01*
X56891694Y-133766124D01*
X56891081Y-133769998D01*
X56891082Y-133770000D01*
X57711184Y-133770000D01*
X57695124Y-133786060D01*
X57644964Y-133872939D01*
X57619000Y-133969840D01*
X57619000Y-134070160D01*
X57644964Y-134167061D01*
X57684473Y-134235493D01*
X57596952Y-134263931D01*
X57558634Y-134270000D01*
X56891082Y-134270000D01*
X56891081Y-134270001D01*
X56891694Y-134273875D01*
X56891698Y-134273891D01*
X56944433Y-134436191D01*
X57021913Y-134588253D01*
X57022823Y-134589738D01*
X57022996Y-134590378D01*
X57024121Y-134592586D01*
X57023657Y-134592822D01*
X57041062Y-134657185D01*
X57023486Y-134717047D01*
X57023693Y-134717153D01*
X57023131Y-134718254D01*
X57022825Y-134719299D01*
X57021485Y-134721485D01*
X56943968Y-134873619D01*
X56943967Y-134873622D01*
X56891209Y-135035994D01*
X56891209Y-135035997D01*
X56864500Y-135204632D01*
X56864500Y-135375367D01*
X56891209Y-135544002D01*
X56891209Y-135544005D01*
X56943967Y-135706377D01*
X56943969Y-135706380D01*
X57021480Y-135858506D01*
X57022526Y-135860212D01*
X57022725Y-135860948D01*
X57023693Y-135862848D01*
X57023293Y-135863051D01*
X57040768Y-135927659D01*
X57023351Y-135986977D01*
X57023693Y-135987152D01*
X57022765Y-135988972D01*
X57022526Y-135989788D01*
X57021480Y-135991493D01*
X56943969Y-136143619D01*
X56943967Y-136143622D01*
X56891209Y-136305994D01*
X56891209Y-136305997D01*
X56864500Y-136474632D01*
X56864500Y-136645367D01*
X56891209Y-136814002D01*
X56891209Y-136814005D01*
X56943967Y-136976377D01*
X56943969Y-136976380D01*
X57021480Y-137128506D01*
X57022526Y-137130212D01*
X57022725Y-137130948D01*
X57023693Y-137132848D01*
X57023293Y-137133051D01*
X57040768Y-137197659D01*
X57023351Y-137256977D01*
X57023693Y-137257152D01*
X57022765Y-137258972D01*
X57022526Y-137259788D01*
X57021480Y-137261493D01*
X56943969Y-137413619D01*
X56943967Y-137413622D01*
X56891209Y-137575994D01*
X56891209Y-137575997D01*
X56864500Y-137744632D01*
X56864500Y-137915367D01*
X56891209Y-138084002D01*
X56891209Y-138084005D01*
X56943967Y-138246377D01*
X56943969Y-138246380D01*
X57021481Y-138398507D01*
X57121837Y-138536635D01*
X57242565Y-138657363D01*
X57380693Y-138757719D01*
X57532820Y-138835231D01*
X57532822Y-138835232D01*
X57695195Y-138887990D01*
X57695196Y-138887990D01*
X57695199Y-138887991D01*
X57863832Y-138914700D01*
X57863833Y-138914700D01*
X58136167Y-138914700D01*
X58136168Y-138914700D01*
X58304801Y-138887991D01*
X58304804Y-138887990D01*
X58304805Y-138887990D01*
X58467177Y-138835232D01*
X58467177Y-138835231D01*
X58467180Y-138835231D01*
X58619307Y-138757719D01*
X58757435Y-138657363D01*
X58878163Y-138536635D01*
X58978519Y-138398507D01*
X59056031Y-138246380D01*
X59108791Y-138084001D01*
X59135500Y-137915368D01*
X59135500Y-137744632D01*
X59108791Y-137575999D01*
X59108790Y-137575995D01*
X59108790Y-137575994D01*
X59056032Y-137413622D01*
X59056030Y-137413619D01*
X58978519Y-137261493D01*
X58978510Y-137261481D01*
X58977481Y-137259801D01*
X58977281Y-137259065D01*
X58976307Y-137257152D01*
X58976708Y-137256947D01*
X58959230Y-137192357D01*
X58976651Y-137133023D01*
X58976307Y-137132848D01*
X58977242Y-137131012D01*
X58977481Y-137130199D01*
X58978506Y-137128523D01*
X58978519Y-137128507D01*
X59056031Y-136976380D01*
X59108791Y-136814001D01*
X59135500Y-136645368D01*
X59135500Y-136474632D01*
X59108791Y-136305999D01*
X59108790Y-136305995D01*
X59108790Y-136305994D01*
X59056032Y-136143622D01*
X59056030Y-136143619D01*
X58978519Y-135991493D01*
X58978510Y-135991481D01*
X58977481Y-135989801D01*
X58977281Y-135989065D01*
X58976307Y-135987152D01*
X58976708Y-135986947D01*
X58959230Y-135922357D01*
X58976651Y-135863023D01*
X58976307Y-135862848D01*
X58977242Y-135861012D01*
X58977481Y-135860199D01*
X58978506Y-135858523D01*
X58978519Y-135858507D01*
X59056031Y-135706380D01*
X59108791Y-135544001D01*
X59135500Y-135375368D01*
X59135500Y-135204632D01*
X59108791Y-135035999D01*
X59108790Y-135035995D01*
X59108790Y-135035994D01*
X59056032Y-134873622D01*
X59056030Y-134873619D01*
X58978519Y-134721493D01*
X58977181Y-134719310D01*
X58976925Y-134718366D01*
X58976307Y-134717152D01*
X58976562Y-134717022D01*
X58958936Y-134651864D01*
X58976285Y-134592792D01*
X58975879Y-134592586D01*
X58976980Y-134590423D01*
X58977189Y-134589715D01*
X58978094Y-134588237D01*
X59055566Y-134436191D01*
X59108301Y-134273891D01*
X59108305Y-134273875D01*
X59108918Y-134270001D01*
X59108918Y-134270000D01*
X58441366Y-134270000D01*
X58403048Y-134263931D01*
X58315526Y-134235493D01*
X58355036Y-134167061D01*
X58381000Y-134070160D01*
X58381000Y-133969840D01*
X58355036Y-133872939D01*
X58304876Y-133786060D01*
X58288816Y-133770000D01*
X59108918Y-133770000D01*
X59108918Y-133769998D01*
X59108305Y-133766124D01*
X59108301Y-133766108D01*
X59055566Y-133603808D01*
X58978096Y-133451765D01*
X58976895Y-133449806D01*
X58976665Y-133448957D01*
X58975879Y-133447414D01*
X58976202Y-133447248D01*
X58958641Y-133382363D01*
X58976151Y-133322725D01*
X58975879Y-133322586D01*
X58976619Y-133321133D01*
X58976895Y-133320194D01*
X58978096Y-133318234D01*
X59055566Y-133166191D01*
X59108301Y-133003891D01*
X59108305Y-133003875D01*
X59108918Y-133000001D01*
X59108918Y-133000000D01*
X58288816Y-133000000D01*
X58304876Y-132983940D01*
X58355036Y-132897061D01*
X58381000Y-132800160D01*
X58381000Y-132699840D01*
X58355036Y-132602939D01*
X58304876Y-132516060D01*
X58288816Y-132500000D01*
X59108918Y-132500000D01*
X59108918Y-132499998D01*
X59108305Y-132496124D01*
X59108301Y-132496108D01*
X59055566Y-132333808D01*
X58978096Y-132181765D01*
X58976895Y-132179806D01*
X58976665Y-132178957D01*
X58975879Y-132177414D01*
X58976202Y-132177248D01*
X58958641Y-132112363D01*
X58976151Y-132052725D01*
X58975879Y-132052586D01*
X58976619Y-132051133D01*
X58976895Y-132050194D01*
X58978096Y-132048234D01*
X59055566Y-131896191D01*
X59108301Y-131733891D01*
X59108305Y-131733875D01*
X59108918Y-131730001D01*
X59108918Y-131730000D01*
X58288816Y-131730000D01*
X58304876Y-131713940D01*
X58355036Y-131627061D01*
X58381000Y-131530160D01*
X58381000Y-131429840D01*
X58355036Y-131332939D01*
X58315526Y-131264506D01*
X58372577Y-131245969D01*
X58403048Y-131236069D01*
X58441366Y-131230000D01*
X59108918Y-131230000D01*
X59108918Y-131229998D01*
X59108305Y-131226124D01*
X59108301Y-131226108D01*
X59055566Y-131063808D01*
X58978088Y-130911749D01*
X58977179Y-130910266D01*
X58977005Y-130909625D01*
X58975879Y-130907414D01*
X58976343Y-130907177D01*
X58958937Y-130842820D01*
X58976519Y-130782956D01*
X58976307Y-130782848D01*
X58976883Y-130781716D01*
X58977190Y-130780673D01*
X58978507Y-130778522D01*
X58978519Y-130778507D01*
X59056031Y-130626380D01*
X59108791Y-130464001D01*
X59135500Y-130295368D01*
X59135500Y-130124632D01*
X59108791Y-129955999D01*
X59108790Y-129955995D01*
X59108790Y-129955994D01*
X59056032Y-129793622D01*
X59056030Y-129793619D01*
X58978519Y-129641493D01*
X58978510Y-129641481D01*
X58977481Y-129639801D01*
X58977281Y-129639065D01*
X58976307Y-129637152D01*
X58976708Y-129636947D01*
X58959230Y-129572357D01*
X58976651Y-129513023D01*
X58976307Y-129512848D01*
X58977242Y-129511012D01*
X58977481Y-129510199D01*
X58978506Y-129508523D01*
X58978519Y-129508507D01*
X59056031Y-129356380D01*
X59108791Y-129194001D01*
X59135500Y-129025368D01*
X59135500Y-128854632D01*
X59108791Y-128685999D01*
X59108790Y-128685995D01*
X59108790Y-128685994D01*
X59056032Y-128523622D01*
X59056030Y-128523619D01*
X58978519Y-128371493D01*
X58978510Y-128371481D01*
X58977481Y-128369801D01*
X58977281Y-128369065D01*
X58976307Y-128367152D01*
X58976708Y-128366947D01*
X58959230Y-128302357D01*
X58976651Y-128243023D01*
X58976307Y-128242848D01*
X58977242Y-128241012D01*
X58977481Y-128240199D01*
X58978506Y-128238523D01*
X58978519Y-128238507D01*
X59056031Y-128086380D01*
X59108791Y-127924001D01*
X59135500Y-127755368D01*
X59135500Y-127584632D01*
X59108791Y-127415999D01*
X59108790Y-127415995D01*
X59108790Y-127415994D01*
X59056032Y-127253622D01*
X59056030Y-127253619D01*
X58978519Y-127101493D01*
X58977181Y-127099310D01*
X58976925Y-127098366D01*
X58976307Y-127097152D01*
X58976562Y-127097022D01*
X58958936Y-127031864D01*
X58976285Y-126972792D01*
X58975879Y-126972586D01*
X58976980Y-126970423D01*
X58977189Y-126969715D01*
X58978094Y-126968237D01*
X59055566Y-126816191D01*
X59108301Y-126653891D01*
X59108305Y-126653875D01*
X59108918Y-126650001D01*
X59108918Y-126650000D01*
X58441366Y-126650000D01*
X58403048Y-126643931D01*
X58315526Y-126615493D01*
X58355036Y-126547061D01*
X58381000Y-126450160D01*
X58381000Y-126349840D01*
X58355036Y-126252939D01*
X58304876Y-126166060D01*
X58288816Y-126150000D01*
X59108918Y-126150000D01*
X59108918Y-126149998D01*
X59108305Y-126146124D01*
X59108301Y-126146108D01*
X59055566Y-125983808D01*
X58978096Y-125831765D01*
X58976895Y-125829806D01*
X58976665Y-125828957D01*
X58975879Y-125827414D01*
X58976202Y-125827248D01*
X58958641Y-125762363D01*
X58976151Y-125702725D01*
X58975879Y-125702586D01*
X58976619Y-125701133D01*
X58976895Y-125700194D01*
X58978096Y-125698234D01*
X59055566Y-125546191D01*
X59108301Y-125383891D01*
X59108305Y-125383875D01*
X59108918Y-125380001D01*
X59108918Y-125380000D01*
X58288816Y-125380000D01*
X58304876Y-125363940D01*
X58355036Y-125277061D01*
X58381000Y-125180160D01*
X58381000Y-125079840D01*
X58355036Y-124982939D01*
X58304876Y-124896060D01*
X58288816Y-124880000D01*
X59108918Y-124880000D01*
X59108918Y-124879998D01*
X59108305Y-124876124D01*
X59108301Y-124876108D01*
X59055566Y-124713808D01*
X58978096Y-124561765D01*
X58976895Y-124559806D01*
X58976665Y-124558957D01*
X58975879Y-124557414D01*
X58976202Y-124557248D01*
X58958641Y-124492363D01*
X58976151Y-124432725D01*
X58975879Y-124432586D01*
X58976619Y-124431133D01*
X58976895Y-124430194D01*
X58978096Y-124428234D01*
X59055566Y-124276191D01*
X59108301Y-124113891D01*
X59108305Y-124113875D01*
X59108918Y-124110001D01*
X59108918Y-124110000D01*
X58288816Y-124110000D01*
X58304876Y-124093940D01*
X58355036Y-124007061D01*
X58381000Y-123910160D01*
X58381000Y-123809840D01*
X58355036Y-123712939D01*
X58315526Y-123644506D01*
X58372577Y-123625969D01*
X58403048Y-123616069D01*
X58441366Y-123610000D01*
X59108918Y-123610000D01*
X59108918Y-123609998D01*
X59108305Y-123606124D01*
X59108301Y-123606108D01*
X59055566Y-123443808D01*
X58978088Y-123291749D01*
X58977179Y-123290266D01*
X58977005Y-123289625D01*
X58975879Y-123287414D01*
X58976343Y-123287177D01*
X58958937Y-123222820D01*
X58976519Y-123162956D01*
X58976307Y-123162848D01*
X58976883Y-123161716D01*
X58977190Y-123160673D01*
X58978507Y-123158522D01*
X58978519Y-123158507D01*
X59056031Y-123006380D01*
X59108791Y-122844001D01*
X59135500Y-122675368D01*
X59135500Y-122504632D01*
X59108791Y-122335999D01*
X59108790Y-122335995D01*
X59108790Y-122335994D01*
X59056032Y-122173622D01*
X59056030Y-122173619D01*
X58978519Y-122021493D01*
X58978510Y-122021481D01*
X58977481Y-122019801D01*
X58977281Y-122019065D01*
X58976307Y-122017152D01*
X58976708Y-122016947D01*
X58959230Y-121952357D01*
X58976651Y-121893023D01*
X58976307Y-121892848D01*
X58977242Y-121891012D01*
X58977481Y-121890199D01*
X58978506Y-121888523D01*
X58978519Y-121888507D01*
X59056031Y-121736380D01*
X59108791Y-121574001D01*
X59135500Y-121405368D01*
X59135500Y-121234632D01*
X59108791Y-121065999D01*
X59108790Y-121065995D01*
X59108790Y-121065994D01*
X59056032Y-120903622D01*
X59056030Y-120903619D01*
X58978519Y-120751493D01*
X58978510Y-120751481D01*
X58977481Y-120749801D01*
X58977281Y-120749065D01*
X58976307Y-120747152D01*
X58976708Y-120746947D01*
X58959230Y-120682357D01*
X58976651Y-120623023D01*
X58976307Y-120622848D01*
X58977242Y-120621012D01*
X58977481Y-120620199D01*
X58978506Y-120618523D01*
X58978519Y-120618507D01*
X59056031Y-120466380D01*
X59108791Y-120304001D01*
X59135500Y-120135368D01*
X59135500Y-119964632D01*
X59108791Y-119795999D01*
X59108790Y-119795995D01*
X59108790Y-119795994D01*
X59056032Y-119633622D01*
X59056030Y-119633619D01*
X58978518Y-119481492D01*
X58878163Y-119343365D01*
X58757435Y-119222637D01*
X58619307Y-119122281D01*
X58467180Y-119044769D01*
X58467177Y-119044767D01*
X58304804Y-118992009D01*
X58178326Y-118971977D01*
X58136168Y-118965300D01*
X57863832Y-118965300D01*
X57807621Y-118974203D01*
X57695197Y-118992009D01*
X57695194Y-118992009D01*
X57532822Y-119044767D01*
X57532819Y-119044769D01*
X57380692Y-119122281D01*
X57301885Y-119179538D01*
X57242565Y-119222637D01*
X57242563Y-119222639D01*
X57242562Y-119222639D01*
X57121839Y-119343362D01*
X57121839Y-119343363D01*
X57121837Y-119343365D01*
X57078738Y-119402685D01*
X57021481Y-119481492D01*
X56943969Y-119633619D01*
X56943967Y-119633622D01*
X56891209Y-119795994D01*
X56891209Y-119795997D01*
X56868282Y-119940752D01*
X56864500Y-119964632D01*
X56864500Y-120135368D01*
X56869288Y-120165598D01*
X56891209Y-120304002D01*
X56891209Y-120304005D01*
X56943967Y-120466377D01*
X56943969Y-120466380D01*
X57021480Y-120618506D01*
X57022526Y-120620212D01*
X57022725Y-120620948D01*
X57023693Y-120622848D01*
X57023293Y-120623051D01*
X57040768Y-120687659D01*
X57023351Y-120746977D01*
X57023693Y-120747152D01*
X57022765Y-120748972D01*
X57022526Y-120749788D01*
X57021480Y-120751493D01*
X56943969Y-120903619D01*
X56943967Y-120903622D01*
X56891209Y-121065994D01*
X56891209Y-121065997D01*
X56868282Y-121210752D01*
X56864500Y-121234632D01*
X56864500Y-121405368D01*
X56872203Y-121454000D01*
X56891209Y-121574002D01*
X56891209Y-121574005D01*
X56943967Y-121736377D01*
X56943969Y-121736380D01*
X57021480Y-121888506D01*
X57022526Y-121890212D01*
X57022725Y-121890948D01*
X57023693Y-121892848D01*
X57023293Y-121893051D01*
X57040768Y-121957659D01*
X57023351Y-122016977D01*
X57023693Y-122017152D01*
X57022765Y-122018972D01*
X57022526Y-122019788D01*
X57021480Y-122021493D01*
X56943969Y-122173619D01*
X56943967Y-122173622D01*
X56891209Y-122335994D01*
X56891209Y-122335997D01*
X56868282Y-122480752D01*
X56864500Y-122504632D01*
X56864500Y-122675368D01*
X56869288Y-122705598D01*
X56891209Y-122844002D01*
X56891209Y-122844005D01*
X56943967Y-123006377D01*
X56943969Y-123006380D01*
X57021482Y-123158509D01*
X57022821Y-123160694D01*
X57023076Y-123161637D01*
X57023693Y-123162848D01*
X57023438Y-123162977D01*
X57041062Y-123228140D01*
X57023719Y-123287209D01*
X57024121Y-123287414D01*
X57023031Y-123289552D01*
X57022823Y-123290262D01*
X57021913Y-123291746D01*
X56944433Y-123443808D01*
X56891698Y-123606108D01*
X56891694Y-123606124D01*
X56891081Y-123609998D01*
X56891082Y-123610000D01*
X57558634Y-123610000D01*
X57596952Y-123616069D01*
X57627702Y-123626060D01*
X57684473Y-123644506D01*
X57644964Y-123712939D01*
X57619000Y-123809840D01*
X57619000Y-123910160D01*
X57644964Y-124007061D01*
X57695124Y-124093940D01*
X57711184Y-124110000D01*
X56891082Y-124110000D01*
X56891081Y-124110001D01*
X56891694Y-124113875D01*
X56891698Y-124113891D01*
X56944433Y-124276191D01*
X57021911Y-124428250D01*
X57023118Y-124430219D01*
X57023347Y-124431068D01*
X57024121Y-124432586D01*
X57023801Y-124432748D01*
X57041356Y-124497667D01*
X57023853Y-124557277D01*
X57024121Y-124557414D01*
X57023394Y-124558840D01*
X57023118Y-124559781D01*
X57021911Y-124561749D01*
X56944433Y-124713808D01*
X56891698Y-124876108D01*
X56891694Y-124876124D01*
X56891081Y-124879998D01*
X56891082Y-124880000D01*
X57711184Y-124880000D01*
X57695124Y-124896060D01*
X57644964Y-124982939D01*
X57619000Y-125079840D01*
X57619000Y-125180160D01*
X57644964Y-125277061D01*
X57695124Y-125363940D01*
X57711184Y-125380000D01*
X56891081Y-125380000D01*
X56867076Y-125408104D01*
X56808567Y-125446295D01*
X56738699Y-125446791D01*
X56685107Y-125415250D01*
X56041819Y-124771962D01*
X56008334Y-124710639D01*
X56005500Y-124684281D01*
X56005500Y-116448011D01*
X56577100Y-116448011D01*
X56577100Y-116671992D01*
X56612135Y-116893195D01*
X56612136Y-116893199D01*
X56681347Y-117106206D01*
X56783027Y-117305764D01*
X56914673Y-117486959D01*
X57073043Y-117645329D01*
X57254238Y-117776975D01*
X57453796Y-117878655D01*
X57666803Y-117947866D01*
X57749757Y-117961004D01*
X57888010Y-117982902D01*
X57888015Y-117982902D01*
X58111990Y-117982902D01*
X58234880Y-117963437D01*
X58333197Y-117947866D01*
X58546204Y-117878655D01*
X58745762Y-117776975D01*
X58926957Y-117645329D01*
X59085327Y-117486959D01*
X59216973Y-117305764D01*
X59318653Y-117106206D01*
X59387864Y-116893199D01*
X59403435Y-116794882D01*
X59422900Y-116671992D01*
X59422900Y-116448011D01*
X59387864Y-116226808D01*
X59387864Y-116226805D01*
X59318653Y-116013798D01*
X59216973Y-115814240D01*
X59085327Y-115633045D01*
X58926957Y-115474675D01*
X58745762Y-115343029D01*
X58546204Y-115241349D01*
X58333197Y-115172138D01*
X58333195Y-115172137D01*
X58333193Y-115172137D01*
X58111990Y-115137102D01*
X58111985Y-115137102D01*
X57888015Y-115137102D01*
X57888010Y-115137102D01*
X57666806Y-115172137D01*
X57453793Y-115241350D01*
X57254237Y-115343029D01*
X57150859Y-115418137D01*
X57073043Y-115474675D01*
X57073041Y-115474677D01*
X57073040Y-115474677D01*
X56914675Y-115633042D01*
X56914675Y-115633043D01*
X56914673Y-115633045D01*
X56894368Y-115660993D01*
X56783027Y-115814239D01*
X56681348Y-116013795D01*
X56612135Y-116226808D01*
X56577100Y-116448011D01*
X56005500Y-116448011D01*
X56005500Y-113885004D01*
X55978581Y-113749677D01*
X55978580Y-113749676D01*
X55978580Y-113749672D01*
X55929428Y-113631007D01*
X55925778Y-113622195D01*
X55925774Y-113622188D01*
X55883403Y-113558775D01*
X55883403Y-113558774D01*
X55849115Y-113507458D01*
X55849109Y-113507451D01*
X55429838Y-113088181D01*
X55396353Y-113026858D01*
X55401337Y-112957167D01*
X55443208Y-112901233D01*
X55508673Y-112876816D01*
X55517519Y-112876500D01*
X64361481Y-112876500D01*
X64428520Y-112896185D01*
X64449162Y-112912819D01*
X64920886Y-113384543D01*
X65358521Y-113822177D01*
X65392006Y-113883500D01*
X65387022Y-113953191D01*
X65345150Y-114009125D01*
X65279686Y-114033542D01*
X65211413Y-114018690D01*
X65208841Y-114017246D01*
X65193187Y-114008208D01*
X65125814Y-113990156D01*
X65065892Y-113974100D01*
X62565892Y-113974100D01*
X62434108Y-113974100D01*
X62306812Y-114008208D01*
X62192686Y-114074100D01*
X62192683Y-114074102D01*
X62099502Y-114167283D01*
X62099500Y-114167286D01*
X62033608Y-114281412D01*
X61999500Y-114408708D01*
X61999500Y-152162698D01*
X61998639Y-152165627D01*
X61999360Y-152168597D01*
X61988857Y-152198943D01*
X61979815Y-152229737D01*
X61977507Y-152231736D01*
X61976508Y-152234624D01*
X61951266Y-152254474D01*
X61927011Y-152275492D01*
X61923988Y-152275926D01*
X61921587Y-152277815D01*
X61889632Y-152280866D01*
X61857853Y-152285436D01*
X61855073Y-152284166D01*
X61852034Y-152284457D01*
X61823503Y-152269749D01*
X61794297Y-152256411D01*
X61791826Y-152253419D01*
X61789931Y-152252442D01*
X61768113Y-152224699D01*
X61763201Y-152216191D01*
X61748586Y-152190877D01*
X61705520Y-152116284D01*
X61593716Y-152004480D01*
X61593715Y-152004479D01*
X61589385Y-152000149D01*
X61589374Y-152000139D01*
X59469750Y-149880515D01*
X59450043Y-149854833D01*
X59437467Y-149833051D01*
X59415520Y-149795036D01*
X59156979Y-149536495D01*
X59123494Y-149475172D01*
X59122187Y-149429420D01*
X59135500Y-149345368D01*
X59135500Y-149174632D01*
X59108791Y-149005999D01*
X59108790Y-149005995D01*
X59108790Y-149005994D01*
X59056032Y-148843622D01*
X59056030Y-148843619D01*
X58978519Y-148691493D01*
X58977181Y-148689310D01*
X58976925Y-148688366D01*
X58976307Y-148687152D01*
X58976562Y-148687022D01*
X58958936Y-148621864D01*
X58976285Y-148562792D01*
X58975879Y-148562586D01*
X58976980Y-148560423D01*
X58977189Y-148559715D01*
X58978094Y-148558237D01*
X59055566Y-148406191D01*
X59108301Y-148243891D01*
X59108305Y-148243875D01*
X59108918Y-148240001D01*
X59108918Y-148240000D01*
X58441366Y-148240000D01*
X58403048Y-148233931D01*
X58315526Y-148205493D01*
X58355036Y-148137061D01*
X58381000Y-148040160D01*
X58381000Y-147939840D01*
X58355036Y-147842939D01*
X58315526Y-147774506D01*
X58372577Y-147755969D01*
X58403048Y-147746069D01*
X58441366Y-147740000D01*
X59108918Y-147740000D01*
X59108918Y-147739998D01*
X59108305Y-147736124D01*
X59108301Y-147736108D01*
X59055566Y-147573808D01*
X58978088Y-147421749D01*
X58977179Y-147420266D01*
X58977005Y-147419625D01*
X58975879Y-147417414D01*
X58976343Y-147417177D01*
X58958937Y-147352820D01*
X58976519Y-147292956D01*
X58976307Y-147292848D01*
X58976883Y-147291716D01*
X58977190Y-147290673D01*
X58978507Y-147288522D01*
X58978519Y-147288507D01*
X59056031Y-147136380D01*
X59108791Y-146974001D01*
X59135500Y-146805368D01*
X59135500Y-146634632D01*
X59108791Y-146465999D01*
X59108790Y-146465995D01*
X59108790Y-146465994D01*
X59056032Y-146303622D01*
X59056030Y-146303619D01*
X58978519Y-146151493D01*
X58978510Y-146151481D01*
X58977481Y-146149801D01*
X58977281Y-146149065D01*
X58976307Y-146147152D01*
X58976708Y-146146947D01*
X58959230Y-146082357D01*
X58976651Y-146023023D01*
X58976307Y-146022848D01*
X58977242Y-146021012D01*
X58977481Y-146020199D01*
X58978506Y-146018523D01*
X58978519Y-146018507D01*
X59056031Y-145866380D01*
X59108791Y-145704001D01*
X59135500Y-145535368D01*
X59135500Y-145364632D01*
X59108791Y-145195999D01*
X59108790Y-145195995D01*
X59108790Y-145195994D01*
X59056032Y-145033622D01*
X59056030Y-145033619D01*
X58978519Y-144881493D01*
X58977181Y-144879310D01*
X58976925Y-144878366D01*
X58976307Y-144877152D01*
X58976562Y-144877022D01*
X58958936Y-144811864D01*
X58976285Y-144752792D01*
X58975879Y-144752586D01*
X58976980Y-144750423D01*
X58977189Y-144749715D01*
X58978094Y-144748237D01*
X59055566Y-144596191D01*
X59108301Y-144433891D01*
X59108305Y-144433875D01*
X59108918Y-144430001D01*
X59108918Y-144430000D01*
X58441366Y-144430000D01*
X58403048Y-144423931D01*
X58315526Y-144395493D01*
X58355036Y-144327061D01*
X58381000Y-144230160D01*
X58381000Y-144129840D01*
X58355036Y-144032939D01*
X58304876Y-143946060D01*
X58288816Y-143930000D01*
X59108918Y-143930000D01*
X59108918Y-143929998D01*
X59108305Y-143926124D01*
X59108301Y-143926108D01*
X59055566Y-143763808D01*
X58978088Y-143611751D01*
X58877787Y-143473697D01*
X58877783Y-143473692D01*
X58757107Y-143353016D01*
X58757102Y-143353012D01*
X58619048Y-143252711D01*
X58466991Y-143175233D01*
X58304684Y-143122495D01*
X58250000Y-143113834D01*
X58250000Y-143891184D01*
X58233940Y-143875124D01*
X58147061Y-143824964D01*
X58050160Y-143799000D01*
X57949840Y-143799000D01*
X57852939Y-143824964D01*
X57766060Y-143875124D01*
X57750000Y-143891184D01*
X57750000Y-143113834D01*
X57695315Y-143122495D01*
X57533008Y-143175233D01*
X57380951Y-143252711D01*
X57242897Y-143353012D01*
X57242892Y-143353016D01*
X57122216Y-143473692D01*
X57122212Y-143473697D01*
X57021911Y-143611751D01*
X56944433Y-143763808D01*
X56891698Y-143926108D01*
X56891694Y-143926124D01*
X56891081Y-143929998D01*
X56891082Y-143930000D01*
X57711184Y-143930000D01*
X57695124Y-143946060D01*
X57644964Y-144032939D01*
X57619000Y-144129840D01*
X57619000Y-144230160D01*
X57644964Y-144327061D01*
X57684473Y-144395493D01*
X57596952Y-144423931D01*
X57558634Y-144430000D01*
X56891082Y-144430000D01*
X56891081Y-144430001D01*
X56891694Y-144433875D01*
X56891698Y-144433891D01*
X56944433Y-144596191D01*
X57021913Y-144748253D01*
X57022823Y-144749738D01*
X57022996Y-144750378D01*
X57024121Y-144752586D01*
X57023657Y-144752822D01*
X57041062Y-144817185D01*
X57023486Y-144877047D01*
X57023693Y-144877153D01*
X57023131Y-144878254D01*
X57022825Y-144879299D01*
X57021485Y-144881485D01*
X56943968Y-145033619D01*
X56943967Y-145033622D01*
X56891209Y-145195994D01*
X56891209Y-145195997D01*
X56864500Y-145364632D01*
X56864500Y-145535367D01*
X56891209Y-145704002D01*
X56891209Y-145704005D01*
X56943967Y-145866377D01*
X56943969Y-145866380D01*
X57021480Y-146018506D01*
X57022526Y-146020212D01*
X57022725Y-146020948D01*
X57023693Y-146022848D01*
X57023293Y-146023051D01*
X57040768Y-146087659D01*
X57023351Y-146146977D01*
X57023693Y-146147152D01*
X57022765Y-146148972D01*
X57022526Y-146149788D01*
X57021480Y-146151493D01*
X56943969Y-146303619D01*
X56943967Y-146303622D01*
X56891209Y-146465994D01*
X56891209Y-146465997D01*
X56864500Y-146634632D01*
X56864500Y-146805367D01*
X56891209Y-146974002D01*
X56891209Y-146974005D01*
X56943967Y-147136377D01*
X56943969Y-147136380D01*
X57021482Y-147288509D01*
X57022821Y-147290694D01*
X57023076Y-147291637D01*
X57023693Y-147292848D01*
X57023438Y-147292977D01*
X57041062Y-147358140D01*
X57023719Y-147417209D01*
X57024121Y-147417414D01*
X57023031Y-147419552D01*
X57022823Y-147420262D01*
X57021913Y-147421746D01*
X56944433Y-147573808D01*
X56891698Y-147736108D01*
X56891694Y-147736124D01*
X56891081Y-147739998D01*
X56891082Y-147740000D01*
X57558634Y-147740000D01*
X57596952Y-147746069D01*
X57627702Y-147756060D01*
X57684473Y-147774506D01*
X57644964Y-147842939D01*
X57619000Y-147939840D01*
X57619000Y-148040160D01*
X57644964Y-148137061D01*
X57684473Y-148205493D01*
X57596952Y-148233931D01*
X57558634Y-148240000D01*
X56891082Y-148240000D01*
X56891081Y-148240001D01*
X56891694Y-148243875D01*
X56891698Y-148243891D01*
X56944433Y-148406191D01*
X57021913Y-148558253D01*
X57022823Y-148559738D01*
X57022996Y-148560378D01*
X57024121Y-148562586D01*
X57023657Y-148562822D01*
X57041062Y-148627185D01*
X57023486Y-148687047D01*
X57023693Y-148687153D01*
X57023131Y-148688254D01*
X57022825Y-148689299D01*
X57021485Y-148691485D01*
X56943968Y-148843619D01*
X56943967Y-148843622D01*
X56891209Y-149005994D01*
X56891209Y-149005997D01*
X56864500Y-149174632D01*
X56864500Y-149345367D01*
X56891209Y-149514002D01*
X56891209Y-149514005D01*
X56943967Y-149676377D01*
X56943969Y-149676380D01*
X57021480Y-149828506D01*
X57022526Y-149830212D01*
X57022725Y-149830948D01*
X57023693Y-149832848D01*
X57023293Y-149833051D01*
X57040768Y-149897659D01*
X57023351Y-149956977D01*
X57023693Y-149957152D01*
X57022765Y-149958972D01*
X57022526Y-149959788D01*
X57021480Y-149961493D01*
X56943969Y-150113619D01*
X56943967Y-150113622D01*
X56891209Y-150275994D01*
X56891209Y-150275997D01*
X56864500Y-150444632D01*
X56864500Y-150615367D01*
X56891209Y-150784002D01*
X56891209Y-150784005D01*
X56943967Y-150946377D01*
X56943969Y-150946380D01*
X57021482Y-151098509D01*
X57022821Y-151100694D01*
X57023076Y-151101637D01*
X57023693Y-151102848D01*
X57023438Y-151102977D01*
X57041062Y-151168140D01*
X57023719Y-151227209D01*
X57024121Y-151227414D01*
X57023031Y-151229552D01*
X57022823Y-151230262D01*
X57021913Y-151231746D01*
X56944433Y-151383808D01*
X56891698Y-151546108D01*
X56891694Y-151546124D01*
X56891081Y-151549998D01*
X56891082Y-151550000D01*
X57558634Y-151550000D01*
X57596952Y-151556069D01*
X57627702Y-151566060D01*
X57684473Y-151584506D01*
X57644964Y-151652939D01*
X57619000Y-151749840D01*
X57619000Y-151850160D01*
X57644964Y-151947061D01*
X57695124Y-152033940D01*
X57711184Y-152050000D01*
X56891082Y-152050000D01*
X56891081Y-152050001D01*
X56891694Y-152053875D01*
X56891698Y-152053891D01*
X56944433Y-152216191D01*
X57021911Y-152368248D01*
X57122212Y-152506302D01*
X57122216Y-152506307D01*
X57242892Y-152626983D01*
X57242897Y-152626987D01*
X57380951Y-152727288D01*
X57533008Y-152804766D01*
X57695315Y-152857504D01*
X57749999Y-152866163D01*
X57750000Y-152866163D01*
X57750000Y-152088816D01*
X57766060Y-152104876D01*
X57852939Y-152155036D01*
X57949840Y-152181000D01*
X58050160Y-152181000D01*
X58147061Y-152155036D01*
X58233940Y-152104876D01*
X58250000Y-152088816D01*
X58250000Y-152866163D01*
X58304684Y-152857504D01*
X58466991Y-152804766D01*
X58619048Y-152727288D01*
X58757102Y-152626987D01*
X58757107Y-152626983D01*
X58877783Y-152506307D01*
X58877787Y-152506302D01*
X58978088Y-152368248D01*
X59055566Y-152216191D01*
X59094809Y-152095416D01*
X59134246Y-152037741D01*
X59198605Y-152010542D01*
X59267451Y-152022457D01*
X59300421Y-152046053D01*
X60138181Y-152883813D01*
X60171666Y-152945136D01*
X60174500Y-152971494D01*
X60174500Y-153606702D01*
X60154815Y-153673741D01*
X60138181Y-153694383D01*
X59249647Y-154582916D01*
X59188324Y-154616401D01*
X59118632Y-154611417D01*
X59062699Y-154569545D01*
X59061648Y-154568120D01*
X58978775Y-154454055D01*
X58978771Y-154454050D01*
X58835947Y-154311226D01*
X58835942Y-154311222D01*
X58672546Y-154192509D01*
X58672545Y-154192508D01*
X58672543Y-154192507D01*
X58601905Y-154156515D01*
X58492578Y-154100809D01*
X58492575Y-154100808D01*
X58300484Y-154038395D01*
X58200736Y-154022596D01*
X58100990Y-154006798D01*
X57899010Y-154006798D01*
X57852636Y-154014143D01*
X57699515Y-154038395D01*
X57507424Y-154100808D01*
X57507421Y-154100809D01*
X57327453Y-154192509D01*
X57164057Y-154311222D01*
X57164052Y-154311226D01*
X57021228Y-154454050D01*
X57021224Y-154454055D01*
X56902511Y-154617451D01*
X56810811Y-154797419D01*
X56810810Y-154797422D01*
X56748397Y-154989513D01*
X56716800Y-155189008D01*
X56716800Y-155390987D01*
X56748397Y-155590482D01*
X56810810Y-155782573D01*
X56810811Y-155782576D01*
X56902511Y-155962544D01*
X57021224Y-156125940D01*
X57021228Y-156125945D01*
X57164052Y-156268769D01*
X57164057Y-156268773D01*
X57278122Y-156351646D01*
X57320788Y-156406976D01*
X57326767Y-156476589D01*
X57294162Y-156538384D01*
X57292918Y-156539645D01*
X56833064Y-156999500D01*
X56673741Y-157158823D01*
X56673739Y-157158825D01*
X56550060Y-157282504D01*
X56538311Y-157294253D01*
X56476988Y-157327737D01*
X56407296Y-157322753D01*
X56381751Y-157309681D01*
X56341070Y-157282504D01*
X56188099Y-157219158D01*
X56188097Y-157219157D01*
X56188096Y-157219157D01*
X56078224Y-157197313D01*
X56025709Y-157186872D01*
X56025708Y-157186872D01*
X56025703Y-157186871D01*
X55860138Y-157186886D01*
X55697758Y-157219201D01*
X55544795Y-157282576D01*
X55407142Y-157374571D01*
X55348723Y-157433001D01*
X55348715Y-157433009D01*
X55266834Y-157514889D01*
X55266819Y-157514903D01*
X55263858Y-157517863D01*
X55205716Y-157576004D01*
X55205366Y-157576431D01*
X55113363Y-157714072D01*
X55113361Y-157714075D01*
X55049980Y-157867025D01*
X55030200Y-157966391D01*
X55025144Y-157991792D01*
X55017656Y-158029406D01*
X55017633Y-158194968D01*
X55017633Y-158194970D01*
X55049912Y-158357350D01*
X55113254Y-158510323D01*
X55140429Y-158551003D01*
X55161299Y-158617683D01*
X55142807Y-158685061D01*
X55125000Y-158707563D01*
X51999834Y-161832729D01*
X51938511Y-161866214D01*
X51868819Y-161861230D01*
X51864717Y-161859615D01*
X51733497Y-161805263D01*
X51733489Y-161805261D01*
X51578845Y-161774500D01*
X51578842Y-161774500D01*
X51421158Y-161774500D01*
X51421155Y-161774500D01*
X51266510Y-161805261D01*
X51266498Y-161805264D01*
X51120827Y-161865602D01*
X51120814Y-161865609D01*
X50989711Y-161953210D01*
X50989707Y-161953213D01*
X50878213Y-162064707D01*
X50878210Y-162064711D01*
X50790609Y-162195814D01*
X50790602Y-162195827D01*
X50730264Y-162341498D01*
X50730261Y-162341510D01*
X50699500Y-162496153D01*
X50699500Y-162653846D01*
X50730261Y-162808489D01*
X50730264Y-162808501D01*
X50789930Y-162952548D01*
X50797399Y-163022017D01*
X50789930Y-163047452D01*
X50730264Y-163191498D01*
X50730261Y-163191510D01*
X50699500Y-163346153D01*
X50699500Y-163503846D01*
X50730261Y-163658489D01*
X50730264Y-163658501D01*
X50790602Y-163804172D01*
X50790609Y-163804185D01*
X50878210Y-163935288D01*
X50878213Y-163935292D01*
X50989707Y-164046786D01*
X50989711Y-164046789D01*
X51120814Y-164134390D01*
X51120827Y-164134397D01*
X51266498Y-164194735D01*
X51266503Y-164194737D01*
X51421153Y-164225499D01*
X51421156Y-164225500D01*
X51421158Y-164225500D01*
X51578844Y-164225500D01*
X51578845Y-164225499D01*
X51733497Y-164194737D01*
X51879179Y-164134394D01*
X52010289Y-164046789D01*
X52121789Y-163935289D01*
X52174210Y-163856834D01*
X52189590Y-163843979D01*
X52201332Y-163827729D01*
X52220294Y-163818319D01*
X52227819Y-163812030D01*
X52232019Y-163810293D01*
X52238491Y-163807753D01*
X52324984Y-163784578D01*
X52375103Y-163755640D01*
X52461915Y-163705521D01*
X52573719Y-163593717D01*
X52573719Y-163593715D01*
X52583927Y-163583508D01*
X52583928Y-163583505D01*
X52846323Y-163321110D01*
X55197546Y-163321110D01*
X55197546Y-163498887D01*
X55232224Y-163673227D01*
X55232226Y-163673235D01*
X55300253Y-163837468D01*
X55300258Y-163837477D01*
X55399017Y-163985279D01*
X55399020Y-163985283D01*
X55524715Y-164110978D01*
X55524719Y-164110981D01*
X55672521Y-164209740D01*
X55672527Y-164209743D01*
X55672528Y-164209744D01*
X55836764Y-164277773D01*
X56011111Y-164312452D01*
X56011115Y-164312453D01*
X56011116Y-164312453D01*
X56188885Y-164312453D01*
X56188886Y-164312452D01*
X56363236Y-164277773D01*
X56527472Y-164209744D01*
X56675281Y-164110981D01*
X56800982Y-163985280D01*
X56899745Y-163837471D01*
X56967774Y-163673235D01*
X57002454Y-163498883D01*
X57002454Y-163321115D01*
X56967774Y-163146763D01*
X56899745Y-162982527D01*
X56899744Y-162982526D01*
X56899741Y-162982520D01*
X56800982Y-162834718D01*
X56800979Y-162834714D01*
X56675284Y-162709019D01*
X56675280Y-162709016D01*
X56527478Y-162610257D01*
X56527469Y-162610252D01*
X56363236Y-162542225D01*
X56363228Y-162542223D01*
X56188888Y-162507545D01*
X56188884Y-162507545D01*
X56011116Y-162507545D01*
X56011111Y-162507545D01*
X55836771Y-162542223D01*
X55836763Y-162542225D01*
X55672530Y-162610252D01*
X55672521Y-162610257D01*
X55524719Y-162709016D01*
X55524715Y-162709019D01*
X55399020Y-162834714D01*
X55399017Y-162834718D01*
X55300258Y-162982520D01*
X55300253Y-162982529D01*
X55232226Y-163146762D01*
X55232224Y-163146770D01*
X55197546Y-163321110D01*
X52846323Y-163321110D01*
X58407938Y-157759497D01*
X58434865Y-157744793D01*
X58460684Y-157728201D01*
X58466884Y-157727309D01*
X58469261Y-157726012D01*
X58495619Y-157723178D01*
X58672452Y-157723178D01*
X58672468Y-157723179D01*
X58680064Y-157723179D01*
X58838175Y-157723179D01*
X58838178Y-157723179D01*
X58990906Y-157682255D01*
X59054108Y-157645765D01*
X59127837Y-157603198D01*
X59239641Y-157491394D01*
X59239641Y-157491392D01*
X59249845Y-157481189D01*
X59249848Y-157481184D01*
X60313200Y-156417835D01*
X60392257Y-156280903D01*
X60433181Y-156128176D01*
X60433181Y-155970061D01*
X60433181Y-155962466D01*
X60433180Y-155962448D01*
X60433180Y-155785616D01*
X60452865Y-155718577D01*
X60469494Y-155697939D01*
X61593713Y-154573721D01*
X61593716Y-154573720D01*
X61705520Y-154461916D01*
X61755639Y-154375104D01*
X61768119Y-154353488D01*
X61818688Y-154305279D01*
X61887296Y-154292061D01*
X61952159Y-154318034D01*
X61992683Y-154374951D01*
X61999500Y-154415499D01*
X61999500Y-157565892D01*
X62009496Y-157603198D01*
X62033608Y-157693187D01*
X62052560Y-157726012D01*
X62099500Y-157807314D01*
X62192686Y-157900500D01*
X62306814Y-157966392D01*
X62434108Y-158000500D01*
X62434110Y-158000500D01*
X65065890Y-158000500D01*
X65065892Y-158000500D01*
X65193186Y-157966392D01*
X65307314Y-157900500D01*
X65400500Y-157807314D01*
X65466392Y-157693186D01*
X65500500Y-157565892D01*
X65500500Y-125730519D01*
X65520185Y-125663480D01*
X65572989Y-125617725D01*
X65642147Y-125607781D01*
X65705703Y-125636806D01*
X65712181Y-125642838D01*
X68828417Y-128759074D01*
X68861902Y-128820397D01*
X68863900Y-128849761D01*
X68864500Y-128849761D01*
X68864500Y-129025367D01*
X68891209Y-129194002D01*
X68891209Y-129194005D01*
X68943967Y-129356377D01*
X68943969Y-129356380D01*
X69021480Y-129508506D01*
X69022526Y-129510212D01*
X69022725Y-129510948D01*
X69023693Y-129512848D01*
X69023293Y-129513051D01*
X69040768Y-129577659D01*
X69023351Y-129636977D01*
X69023693Y-129637152D01*
X69022765Y-129638972D01*
X69022526Y-129639788D01*
X69021480Y-129641493D01*
X68943969Y-129793619D01*
X68943967Y-129793622D01*
X68891209Y-129955994D01*
X68891209Y-129955997D01*
X68864500Y-130124632D01*
X68864500Y-130295367D01*
X68891209Y-130464002D01*
X68891209Y-130464005D01*
X68943967Y-130626377D01*
X68943969Y-130626380D01*
X69021482Y-130778509D01*
X69022821Y-130780694D01*
X69023076Y-130781637D01*
X69023693Y-130782848D01*
X69023438Y-130782977D01*
X69041062Y-130848140D01*
X69023719Y-130907209D01*
X69024121Y-130907414D01*
X69023031Y-130909552D01*
X69022823Y-130910262D01*
X69021913Y-130911746D01*
X68944433Y-131063808D01*
X68891698Y-131226108D01*
X68891694Y-131226124D01*
X68891081Y-131229998D01*
X68891082Y-131230000D01*
X69558634Y-131230000D01*
X69596952Y-131236069D01*
X69627702Y-131246060D01*
X69684473Y-131264506D01*
X69644964Y-131332939D01*
X69619000Y-131429840D01*
X69619000Y-131530160D01*
X69644964Y-131627061D01*
X69695124Y-131713940D01*
X69711184Y-131730000D01*
X68891082Y-131730000D01*
X68891081Y-131730001D01*
X68891694Y-131733875D01*
X68891698Y-131733891D01*
X68944433Y-131896191D01*
X69021911Y-132048250D01*
X69023118Y-132050219D01*
X69023347Y-132051068D01*
X69024121Y-132052586D01*
X69023801Y-132052748D01*
X69041356Y-132117667D01*
X69023853Y-132177277D01*
X69024121Y-132177414D01*
X69023394Y-132178840D01*
X69023118Y-132179781D01*
X69021911Y-132181749D01*
X68944433Y-132333808D01*
X68891698Y-132496108D01*
X68891694Y-132496124D01*
X68891081Y-132499998D01*
X68891082Y-132500000D01*
X69711184Y-132500000D01*
X69695124Y-132516060D01*
X69644964Y-132602939D01*
X69619000Y-132699840D01*
X69619000Y-132800160D01*
X69644964Y-132897061D01*
X69695124Y-132983940D01*
X69711184Y-133000000D01*
X68891082Y-133000000D01*
X68891081Y-133000001D01*
X68891694Y-133003875D01*
X68891698Y-133003891D01*
X68944433Y-133166191D01*
X69021911Y-133318250D01*
X69023118Y-133320219D01*
X69023347Y-133321068D01*
X69024121Y-133322586D01*
X69023801Y-133322748D01*
X69041356Y-133387667D01*
X69023853Y-133447277D01*
X69024121Y-133447414D01*
X69023394Y-133448840D01*
X69023118Y-133449781D01*
X69021911Y-133451749D01*
X68944433Y-133603808D01*
X68891698Y-133766108D01*
X68891694Y-133766124D01*
X68891081Y-133769998D01*
X68891082Y-133770000D01*
X69711184Y-133770000D01*
X69695124Y-133786060D01*
X69644964Y-133872939D01*
X69619000Y-133969840D01*
X69619000Y-134070160D01*
X69644964Y-134167061D01*
X69684473Y-134235493D01*
X69596952Y-134263931D01*
X69558634Y-134270000D01*
X68891082Y-134270000D01*
X68891081Y-134270001D01*
X68891694Y-134273875D01*
X68891698Y-134273891D01*
X68944433Y-134436191D01*
X69021913Y-134588253D01*
X69022823Y-134589738D01*
X69022996Y-134590378D01*
X69024121Y-134592586D01*
X69023657Y-134592822D01*
X69041062Y-134657185D01*
X69023486Y-134717047D01*
X69023693Y-134717153D01*
X69023131Y-134718254D01*
X69022825Y-134719299D01*
X69021485Y-134721485D01*
X68943968Y-134873619D01*
X68943967Y-134873622D01*
X68891209Y-135035994D01*
X68891209Y-135035997D01*
X68864500Y-135204632D01*
X68864500Y-135375367D01*
X68891209Y-135544002D01*
X68891209Y-135544005D01*
X68943967Y-135706377D01*
X68943969Y-135706380D01*
X69021480Y-135858506D01*
X69022526Y-135860212D01*
X69022725Y-135860948D01*
X69023693Y-135862848D01*
X69023293Y-135863051D01*
X69040768Y-135927659D01*
X69023351Y-135986977D01*
X69023693Y-135987152D01*
X69022765Y-135988972D01*
X69022526Y-135989788D01*
X69021480Y-135991493D01*
X68943969Y-136143619D01*
X68943967Y-136143622D01*
X68891209Y-136305994D01*
X68891209Y-136305997D01*
X68864500Y-136474632D01*
X68864500Y-136645367D01*
X68891209Y-136814002D01*
X68891209Y-136814005D01*
X68943967Y-136976377D01*
X68943969Y-136976380D01*
X69021480Y-137128506D01*
X69022526Y-137130212D01*
X69022725Y-137130948D01*
X69023693Y-137132848D01*
X69023293Y-137133051D01*
X69040768Y-137197659D01*
X69023351Y-137256977D01*
X69023693Y-137257152D01*
X69022765Y-137258972D01*
X69022526Y-137259788D01*
X69021480Y-137261493D01*
X68943969Y-137413619D01*
X68943967Y-137413622D01*
X68891209Y-137575994D01*
X68891209Y-137575997D01*
X68864500Y-137744632D01*
X68864500Y-137915367D01*
X68891209Y-138084002D01*
X68891209Y-138084005D01*
X68943967Y-138246377D01*
X68943969Y-138246380D01*
X69021481Y-138398507D01*
X69121837Y-138536635D01*
X69242565Y-138657363D01*
X69380693Y-138757719D01*
X69532820Y-138835231D01*
X69532822Y-138835232D01*
X69695195Y-138887990D01*
X69695196Y-138887990D01*
X69695199Y-138887991D01*
X69863832Y-138914700D01*
X69863833Y-138914700D01*
X70136167Y-138914700D01*
X70136168Y-138914700D01*
X70304801Y-138887991D01*
X70304804Y-138887990D01*
X70304805Y-138887990D01*
X70467177Y-138835232D01*
X70467177Y-138835231D01*
X70467180Y-138835231D01*
X70619307Y-138757719D01*
X70757435Y-138657363D01*
X70878163Y-138536635D01*
X70978519Y-138398507D01*
X71056031Y-138246380D01*
X71108791Y-138084001D01*
X71135500Y-137915368D01*
X71135500Y-137744632D01*
X71108791Y-137575999D01*
X71108790Y-137575995D01*
X71108790Y-137575994D01*
X71056032Y-137413622D01*
X71056030Y-137413619D01*
X70978519Y-137261493D01*
X70978510Y-137261481D01*
X70977481Y-137259801D01*
X70977281Y-137259065D01*
X70976307Y-137257152D01*
X70976708Y-137256947D01*
X70959230Y-137192357D01*
X70976651Y-137133023D01*
X70976307Y-137132848D01*
X70977242Y-137131012D01*
X70977481Y-137130199D01*
X70978506Y-137128523D01*
X70978519Y-137128507D01*
X71056031Y-136976380D01*
X71108791Y-136814001D01*
X71135500Y-136645368D01*
X71135500Y-136474632D01*
X71108791Y-136305999D01*
X71108790Y-136305995D01*
X71108790Y-136305994D01*
X71056032Y-136143622D01*
X71056030Y-136143619D01*
X70978519Y-135991493D01*
X70978510Y-135991481D01*
X70977481Y-135989801D01*
X70977281Y-135989065D01*
X70976307Y-135987152D01*
X70976708Y-135986947D01*
X70959230Y-135922357D01*
X70976651Y-135863023D01*
X70976307Y-135862848D01*
X70977242Y-135861012D01*
X70977481Y-135860199D01*
X70978506Y-135858523D01*
X70978519Y-135858507D01*
X71056031Y-135706380D01*
X71108791Y-135544001D01*
X71135500Y-135375368D01*
X71135500Y-135204632D01*
X71108791Y-135035999D01*
X71108790Y-135035995D01*
X71108790Y-135035994D01*
X71056032Y-134873622D01*
X71056030Y-134873619D01*
X70978519Y-134721493D01*
X70977181Y-134719310D01*
X70976925Y-134718366D01*
X70976307Y-134717152D01*
X70976562Y-134717022D01*
X70958936Y-134651864D01*
X70976285Y-134592792D01*
X70975879Y-134592586D01*
X70976980Y-134590423D01*
X70977189Y-134589715D01*
X70978094Y-134588237D01*
X71055566Y-134436191D01*
X71108301Y-134273891D01*
X71108305Y-134273875D01*
X71108918Y-134270001D01*
X71108918Y-134270000D01*
X70441366Y-134270000D01*
X70403048Y-134263931D01*
X70315526Y-134235493D01*
X70355036Y-134167061D01*
X70381000Y-134070160D01*
X70381000Y-133969840D01*
X70355036Y-133872939D01*
X70304876Y-133786060D01*
X70288816Y-133770000D01*
X71108918Y-133770000D01*
X71108918Y-133769998D01*
X71108305Y-133766124D01*
X71108301Y-133766108D01*
X71055566Y-133603808D01*
X70978096Y-133451765D01*
X70976895Y-133449806D01*
X70976665Y-133448957D01*
X70975879Y-133447414D01*
X70976202Y-133447248D01*
X70958641Y-133382363D01*
X70976151Y-133322725D01*
X70975879Y-133322586D01*
X70976619Y-133321133D01*
X70976895Y-133320194D01*
X70978096Y-133318234D01*
X71055566Y-133166191D01*
X71108301Y-133003891D01*
X71108305Y-133003875D01*
X71108918Y-133000001D01*
X71108918Y-133000000D01*
X70288816Y-133000000D01*
X70304876Y-132983940D01*
X70355036Y-132897061D01*
X70381000Y-132800160D01*
X70381000Y-132699840D01*
X70355036Y-132602939D01*
X70304876Y-132516060D01*
X70288816Y-132500000D01*
X71108918Y-132500000D01*
X71108918Y-132499998D01*
X71108305Y-132496124D01*
X71108301Y-132496108D01*
X71055566Y-132333808D01*
X70978096Y-132181765D01*
X70976895Y-132179806D01*
X70976665Y-132178957D01*
X70975879Y-132177414D01*
X70976202Y-132177248D01*
X70958641Y-132112363D01*
X70976151Y-132052725D01*
X70975879Y-132052586D01*
X70976619Y-132051133D01*
X70976895Y-132050194D01*
X70978096Y-132048234D01*
X71055566Y-131896191D01*
X71108301Y-131733891D01*
X71108305Y-131733875D01*
X71108918Y-131730001D01*
X71108918Y-131730000D01*
X70288816Y-131730000D01*
X70304876Y-131713940D01*
X70355036Y-131627061D01*
X70381000Y-131530160D01*
X70381000Y-131429840D01*
X70355036Y-131332939D01*
X70315526Y-131264506D01*
X70372577Y-131245969D01*
X70403048Y-131236069D01*
X70441366Y-131230000D01*
X71108918Y-131230000D01*
X71108918Y-131229998D01*
X71108305Y-131226124D01*
X71108301Y-131226108D01*
X71055566Y-131063808D01*
X70978088Y-130911749D01*
X70977179Y-130910266D01*
X70977005Y-130909625D01*
X70975879Y-130907414D01*
X70976343Y-130907177D01*
X70958937Y-130842820D01*
X70976519Y-130782956D01*
X70976307Y-130782848D01*
X70976883Y-130781716D01*
X70977190Y-130780673D01*
X70978507Y-130778522D01*
X70978519Y-130778507D01*
X71056031Y-130626380D01*
X71108791Y-130464001D01*
X71135500Y-130295368D01*
X71135500Y-130124632D01*
X71108791Y-129955999D01*
X71108790Y-129955995D01*
X71108790Y-129955994D01*
X71056032Y-129793622D01*
X71056030Y-129793619D01*
X70978519Y-129641493D01*
X70978510Y-129641481D01*
X70977481Y-129639801D01*
X70977281Y-129639065D01*
X70976307Y-129637152D01*
X70976708Y-129636947D01*
X70959230Y-129572357D01*
X70976651Y-129513023D01*
X70976307Y-129512848D01*
X70977242Y-129511012D01*
X70977481Y-129510199D01*
X70978506Y-129508523D01*
X70978519Y-129508507D01*
X71056031Y-129356380D01*
X71108791Y-129194001D01*
X71135500Y-129025368D01*
X71135500Y-128854632D01*
X71108791Y-128685999D01*
X71108790Y-128685995D01*
X71108790Y-128685994D01*
X71056032Y-128523622D01*
X71056030Y-128523619D01*
X70978519Y-128371493D01*
X70978510Y-128371481D01*
X70977481Y-128369801D01*
X70977281Y-128369065D01*
X70976307Y-128367152D01*
X70976708Y-128366947D01*
X70959230Y-128302357D01*
X70976651Y-128243023D01*
X70976307Y-128242848D01*
X70977242Y-128241012D01*
X70977481Y-128240199D01*
X70978506Y-128238523D01*
X70978519Y-128238507D01*
X71056031Y-128086380D01*
X71108791Y-127924001D01*
X71135500Y-127755368D01*
X71135500Y-127584632D01*
X71108791Y-127415999D01*
X71108790Y-127415995D01*
X71108790Y-127415994D01*
X71056032Y-127253622D01*
X71056030Y-127253619D01*
X70978519Y-127101493D01*
X70977181Y-127099310D01*
X70976925Y-127098366D01*
X70976307Y-127097152D01*
X70976562Y-127097022D01*
X70958936Y-127031864D01*
X70976285Y-126972792D01*
X70975879Y-126972586D01*
X70976980Y-126970423D01*
X70977189Y-126969715D01*
X70978094Y-126968237D01*
X71055566Y-126816191D01*
X71108301Y-126653891D01*
X71108305Y-126653875D01*
X71108918Y-126650001D01*
X71108918Y-126650000D01*
X70441366Y-126650000D01*
X70403048Y-126643931D01*
X70315526Y-126615493D01*
X70355036Y-126547061D01*
X70381000Y-126450160D01*
X70381000Y-126349840D01*
X70355036Y-126252939D01*
X70304876Y-126166060D01*
X70288816Y-126150000D01*
X71108918Y-126150000D01*
X71108918Y-126149998D01*
X71108305Y-126146124D01*
X71108301Y-126146108D01*
X71055566Y-125983808D01*
X70978096Y-125831765D01*
X70976895Y-125829806D01*
X70976665Y-125828957D01*
X70975879Y-125827414D01*
X70976202Y-125827248D01*
X70958641Y-125762363D01*
X70976151Y-125702725D01*
X70975879Y-125702586D01*
X70976619Y-125701133D01*
X70976895Y-125700194D01*
X70978096Y-125698234D01*
X71055566Y-125546191D01*
X71108301Y-125383891D01*
X71108305Y-125383875D01*
X71108918Y-125380001D01*
X71108918Y-125380000D01*
X70288816Y-125380000D01*
X70304876Y-125363940D01*
X70355036Y-125277061D01*
X70381000Y-125180160D01*
X70381000Y-125079840D01*
X70355036Y-124982939D01*
X70304876Y-124896060D01*
X70288816Y-124880000D01*
X71108918Y-124880000D01*
X71108918Y-124879998D01*
X71108305Y-124876124D01*
X71108301Y-124876108D01*
X71055566Y-124713808D01*
X70978096Y-124561765D01*
X70976895Y-124559806D01*
X70976665Y-124558957D01*
X70975879Y-124557414D01*
X70976202Y-124557248D01*
X70958641Y-124492363D01*
X70976151Y-124432725D01*
X70975879Y-124432586D01*
X70976619Y-124431133D01*
X70976895Y-124430194D01*
X70978096Y-124428234D01*
X71055566Y-124276191D01*
X71108301Y-124113891D01*
X71108305Y-124113875D01*
X71108918Y-124110001D01*
X71108918Y-124110000D01*
X70288816Y-124110000D01*
X70304876Y-124093940D01*
X70355036Y-124007061D01*
X70381000Y-123910160D01*
X70381000Y-123809840D01*
X70355036Y-123712939D01*
X70315526Y-123644506D01*
X70372577Y-123625969D01*
X70403048Y-123616069D01*
X70441366Y-123610000D01*
X71108918Y-123610000D01*
X71108918Y-123609998D01*
X71108305Y-123606124D01*
X71108301Y-123606108D01*
X71055566Y-123443808D01*
X70978088Y-123291749D01*
X70977179Y-123290266D01*
X70977005Y-123289625D01*
X70975879Y-123287414D01*
X70976343Y-123287177D01*
X70958937Y-123222820D01*
X70976519Y-123162956D01*
X70976307Y-123162848D01*
X70976883Y-123161716D01*
X70977190Y-123160673D01*
X70978507Y-123158522D01*
X70978519Y-123158507D01*
X71056031Y-123006380D01*
X71108791Y-122844001D01*
X71135500Y-122675368D01*
X71135500Y-122504632D01*
X71108791Y-122335999D01*
X71108790Y-122335995D01*
X71108790Y-122335994D01*
X71056032Y-122173622D01*
X71056030Y-122173619D01*
X70978519Y-122021493D01*
X70978510Y-122021481D01*
X70977481Y-122019801D01*
X70977281Y-122019065D01*
X70976307Y-122017152D01*
X70976708Y-122016947D01*
X70959230Y-121952357D01*
X70976651Y-121893023D01*
X70976307Y-121892848D01*
X70977242Y-121891012D01*
X70977481Y-121890199D01*
X70978506Y-121888523D01*
X70978519Y-121888507D01*
X71056031Y-121736380D01*
X71108791Y-121574001D01*
X71135500Y-121405368D01*
X71135500Y-121234632D01*
X71108791Y-121065999D01*
X71108790Y-121065995D01*
X71108790Y-121065994D01*
X71056032Y-120903622D01*
X71056030Y-120903619D01*
X70978519Y-120751493D01*
X70978510Y-120751481D01*
X70977481Y-120749801D01*
X70977281Y-120749065D01*
X70976307Y-120747152D01*
X70976708Y-120746947D01*
X70959230Y-120682357D01*
X70976651Y-120623023D01*
X70976307Y-120622848D01*
X70977242Y-120621012D01*
X70977481Y-120620199D01*
X70978506Y-120618523D01*
X70978519Y-120618507D01*
X71056031Y-120466380D01*
X71108791Y-120304001D01*
X71135500Y-120135368D01*
X71135500Y-119964632D01*
X71108791Y-119795999D01*
X71108790Y-119795995D01*
X71108790Y-119795994D01*
X71056032Y-119633622D01*
X71056030Y-119633619D01*
X70978518Y-119481492D01*
X70878163Y-119343365D01*
X70757435Y-119222637D01*
X70619307Y-119122281D01*
X70467180Y-119044769D01*
X70467177Y-119044767D01*
X70304804Y-118992009D01*
X70178326Y-118971977D01*
X70136168Y-118965300D01*
X69863832Y-118965300D01*
X69807621Y-118974203D01*
X69695197Y-118992009D01*
X69695194Y-118992009D01*
X69532822Y-119044767D01*
X69532819Y-119044769D01*
X69380692Y-119122281D01*
X69301885Y-119179538D01*
X69242565Y-119222637D01*
X69242563Y-119222639D01*
X69242562Y-119222639D01*
X69121839Y-119343362D01*
X69121839Y-119343363D01*
X69121837Y-119343365D01*
X69078738Y-119402685D01*
X69021481Y-119481492D01*
X68943969Y-119633619D01*
X68943967Y-119633622D01*
X68891209Y-119795994D01*
X68891209Y-119795997D01*
X68868282Y-119940752D01*
X68864500Y-119964632D01*
X68864500Y-120135368D01*
X68869288Y-120165598D01*
X68891209Y-120304002D01*
X68891209Y-120304005D01*
X68943967Y-120466377D01*
X68943969Y-120466380D01*
X69021480Y-120618506D01*
X69022526Y-120620212D01*
X69022725Y-120620948D01*
X69023693Y-120622848D01*
X69023293Y-120623051D01*
X69040768Y-120687659D01*
X69023351Y-120746977D01*
X69023693Y-120747152D01*
X69022765Y-120748972D01*
X69022526Y-120749788D01*
X69021480Y-120751493D01*
X68943969Y-120903619D01*
X68943967Y-120903622D01*
X68891209Y-121065994D01*
X68891209Y-121065997D01*
X68868282Y-121210752D01*
X68864500Y-121234632D01*
X68864500Y-121405368D01*
X68872203Y-121454000D01*
X68891209Y-121574002D01*
X68891209Y-121574005D01*
X68943967Y-121736377D01*
X68943969Y-121736380D01*
X69021480Y-121888506D01*
X69022526Y-121890212D01*
X69022725Y-121890948D01*
X69023693Y-121892848D01*
X69023293Y-121893051D01*
X69040768Y-121957659D01*
X69023351Y-122016977D01*
X69023693Y-122017152D01*
X69022765Y-122018972D01*
X69022526Y-122019788D01*
X69021480Y-122021493D01*
X68943969Y-122173619D01*
X68943967Y-122173622D01*
X68891209Y-122335994D01*
X68891209Y-122335997D01*
X68868282Y-122480752D01*
X68864500Y-122504632D01*
X68864500Y-122675368D01*
X68869288Y-122705598D01*
X68891209Y-122844002D01*
X68891209Y-122844005D01*
X68943967Y-123006377D01*
X68943969Y-123006380D01*
X69021482Y-123158509D01*
X69022821Y-123160694D01*
X69023076Y-123161637D01*
X69023693Y-123162848D01*
X69023438Y-123162977D01*
X69041062Y-123228140D01*
X69023719Y-123287209D01*
X69024121Y-123287414D01*
X69023031Y-123289552D01*
X69022823Y-123290262D01*
X69021913Y-123291746D01*
X68944433Y-123443808D01*
X68891698Y-123606108D01*
X68891694Y-123606124D01*
X68891081Y-123609998D01*
X68891082Y-123610000D01*
X69558634Y-123610000D01*
X69596952Y-123616069D01*
X69627702Y-123626060D01*
X69684473Y-123644506D01*
X69644964Y-123712939D01*
X69619000Y-123809840D01*
X69619000Y-123910160D01*
X69644964Y-124007061D01*
X69695124Y-124093940D01*
X69711184Y-124110000D01*
X68891082Y-124110000D01*
X68891081Y-124110001D01*
X68891694Y-124113875D01*
X68891698Y-124113891D01*
X68944433Y-124276191D01*
X69021911Y-124428250D01*
X69023118Y-124430219D01*
X69023347Y-124431068D01*
X69024121Y-124432586D01*
X69023801Y-124432748D01*
X69041356Y-124497667D01*
X69023853Y-124557277D01*
X69024121Y-124557414D01*
X69023394Y-124558840D01*
X69023118Y-124559781D01*
X69021911Y-124561749D01*
X68944433Y-124713808D01*
X68891698Y-124876108D01*
X68891694Y-124876124D01*
X68891081Y-124879998D01*
X68891082Y-124880000D01*
X69711184Y-124880000D01*
X69695124Y-124896060D01*
X69644964Y-124982939D01*
X69619000Y-125079840D01*
X69619000Y-125180160D01*
X69644964Y-125277061D01*
X69695124Y-125363940D01*
X69711184Y-125380000D01*
X68891082Y-125380000D01*
X68891081Y-125380001D01*
X68891694Y-125383875D01*
X68891698Y-125383891D01*
X68944433Y-125546191D01*
X69021911Y-125698250D01*
X69023118Y-125700219D01*
X69023347Y-125701068D01*
X69024121Y-125702586D01*
X69023801Y-125702748D01*
X69041356Y-125767667D01*
X69023853Y-125827277D01*
X69024121Y-125827414D01*
X69023394Y-125828840D01*
X69023118Y-125829781D01*
X69021911Y-125831749D01*
X68944433Y-125983808D01*
X68891698Y-126146108D01*
X68891694Y-126146124D01*
X68891081Y-126149998D01*
X68891082Y-126150000D01*
X69711184Y-126150000D01*
X69695124Y-126166060D01*
X69644964Y-126252939D01*
X69619000Y-126349840D01*
X69619000Y-126450160D01*
X69644964Y-126547061D01*
X69684473Y-126615493D01*
X69596952Y-126643931D01*
X69558634Y-126650000D01*
X68891081Y-126650000D01*
X68890478Y-126650706D01*
X68831970Y-126688897D01*
X68762102Y-126689393D01*
X68708509Y-126657852D01*
X66963819Y-124913162D01*
X66930334Y-124851839D01*
X66927500Y-124825481D01*
X66927500Y-116448011D01*
X68577100Y-116448011D01*
X68577100Y-116671992D01*
X68612135Y-116893195D01*
X68612136Y-116893199D01*
X68681347Y-117106206D01*
X68783027Y-117305764D01*
X68914673Y-117486959D01*
X69073043Y-117645329D01*
X69254238Y-117776975D01*
X69453796Y-117878655D01*
X69666803Y-117947866D01*
X69749757Y-117961004D01*
X69888010Y-117982902D01*
X69888015Y-117982902D01*
X70111990Y-117982902D01*
X70234880Y-117963437D01*
X70333197Y-117947866D01*
X70546204Y-117878655D01*
X70745762Y-117776975D01*
X70926957Y-117645329D01*
X71085327Y-117486959D01*
X71216973Y-117305764D01*
X71318653Y-117106206D01*
X71387864Y-116893199D01*
X71403435Y-116794882D01*
X71422900Y-116671992D01*
X71422900Y-116448011D01*
X71387864Y-116226808D01*
X71387864Y-116226805D01*
X71318653Y-116013798D01*
X71216973Y-115814240D01*
X71085327Y-115633045D01*
X70926957Y-115474675D01*
X70745762Y-115343029D01*
X70546204Y-115241349D01*
X70333197Y-115172138D01*
X70333195Y-115172137D01*
X70333193Y-115172137D01*
X70111990Y-115137102D01*
X70111985Y-115137102D01*
X69888015Y-115137102D01*
X69888010Y-115137102D01*
X69666806Y-115172137D01*
X69453793Y-115241350D01*
X69254237Y-115343029D01*
X69150859Y-115418137D01*
X69073043Y-115474675D01*
X69073041Y-115474677D01*
X69073040Y-115474677D01*
X68914675Y-115633042D01*
X68914675Y-115633043D01*
X68914673Y-115633045D01*
X68894368Y-115660993D01*
X68783027Y-115814239D01*
X68681348Y-116013795D01*
X68612135Y-116226808D01*
X68577100Y-116448011D01*
X66927500Y-116448011D01*
X66927500Y-113631004D01*
X66907767Y-113531808D01*
X66905934Y-113522591D01*
X66900580Y-113495671D01*
X66854549Y-113384543D01*
X66847775Y-113368189D01*
X66847773Y-113368186D01*
X66847771Y-113368182D01*
X66771115Y-113253459D01*
X66730136Y-113212480D01*
X66673542Y-113155886D01*
X66314431Y-112796775D01*
X65149546Y-111631888D01*
X65149545Y-111631887D01*
X65034807Y-111555222D01*
X64907332Y-111502421D01*
X64907322Y-111502418D01*
X64771996Y-111475500D01*
X64771994Y-111475500D01*
X64771993Y-111475500D01*
X53595993Y-111475500D01*
X48017519Y-111475500D01*
X47950480Y-111455815D01*
X47929838Y-111439181D01*
X43600966Y-107110309D01*
X43567481Y-107048986D01*
X43570715Y-106984312D01*
X43603032Y-106884854D01*
X43625105Y-106745486D01*
X43643500Y-106629351D01*
X43643500Y-106370693D01*
X45437000Y-106370693D01*
X45437000Y-106629306D01*
X45477456Y-106884733D01*
X45477456Y-106884734D01*
X45557374Y-107130695D01*
X45674783Y-107361122D01*
X45754963Y-107471481D01*
X45754964Y-107471482D01*
X46297453Y-106928992D01*
X46389469Y-107066704D01*
X46513296Y-107190531D01*
X46651005Y-107282545D01*
X46108516Y-107825034D01*
X46108517Y-107825036D01*
X46218877Y-107905216D01*
X46449304Y-108022625D01*
X46695266Y-108102543D01*
X46950694Y-108143000D01*
X47209306Y-108143000D01*
X47464733Y-108102543D01*
X47464734Y-108102543D01*
X47710695Y-108022625D01*
X47941119Y-107905218D01*
X48051481Y-107825034D01*
X48051482Y-107825034D01*
X47508993Y-107282546D01*
X47646704Y-107190531D01*
X47770531Y-107066704D01*
X47862545Y-106928993D01*
X48405034Y-107471482D01*
X48405034Y-107471481D01*
X48485218Y-107361119D01*
X48602625Y-107130695D01*
X48682543Y-106884734D01*
X48682543Y-106884733D01*
X48723000Y-106629306D01*
X48723000Y-106370693D01*
X50517000Y-106370693D01*
X50517000Y-106629306D01*
X50557456Y-106884733D01*
X50557456Y-106884734D01*
X50637374Y-107130695D01*
X50754783Y-107361122D01*
X50834963Y-107471481D01*
X50834964Y-107471482D01*
X51377453Y-106928992D01*
X51469469Y-107066704D01*
X51593296Y-107190531D01*
X51731005Y-107282545D01*
X51188516Y-107825034D01*
X51188517Y-107825036D01*
X51298877Y-107905216D01*
X51529304Y-108022625D01*
X51775266Y-108102543D01*
X52030694Y-108143000D01*
X52289306Y-108143000D01*
X52544733Y-108102543D01*
X52544734Y-108102543D01*
X52790695Y-108022625D01*
X53021119Y-107905218D01*
X53131481Y-107825034D01*
X53131482Y-107825034D01*
X52588993Y-107282546D01*
X52726704Y-107190531D01*
X52850531Y-107066704D01*
X52942545Y-106928993D01*
X53485034Y-107471482D01*
X53485034Y-107471481D01*
X53565218Y-107361119D01*
X53682625Y-107130695D01*
X53762543Y-106884734D01*
X53762543Y-106884733D01*
X53803000Y-106629306D01*
X53803000Y-106370693D01*
X53802993Y-106370648D01*
X55596500Y-106370648D01*
X55596500Y-106629351D01*
X55636949Y-106884734D01*
X55636968Y-106884854D01*
X55716909Y-107130885D01*
X55834353Y-107361382D01*
X55986408Y-107570668D01*
X56169332Y-107753592D01*
X56378618Y-107905647D01*
X56609115Y-108023091D01*
X56855146Y-108103032D01*
X56950961Y-108118207D01*
X57110649Y-108143500D01*
X57110654Y-108143500D01*
X57369351Y-108143500D01*
X57511294Y-108121017D01*
X57624854Y-108103032D01*
X57870885Y-108023091D01*
X58101382Y-107905647D01*
X58310668Y-107753592D01*
X58493592Y-107570668D01*
X58645647Y-107361382D01*
X58763091Y-107130885D01*
X58843032Y-106884854D01*
X58862916Y-106759312D01*
X58883500Y-106629351D01*
X58883500Y-106370648D01*
X58843051Y-106115266D01*
X58843032Y-106115146D01*
X58763091Y-105869115D01*
X58645647Y-105638618D01*
X58493592Y-105429332D01*
X58310668Y-105246408D01*
X58101382Y-105094353D01*
X57870885Y-104976909D01*
X57624854Y-104896968D01*
X57624852Y-104896967D01*
X57624850Y-104896967D01*
X57369351Y-104856500D01*
X57369346Y-104856500D01*
X57110654Y-104856500D01*
X57110649Y-104856500D01*
X56855149Y-104896967D01*
X56609112Y-104976910D01*
X56378617Y-105094353D01*
X56169329Y-105246410D01*
X55986410Y-105429329D01*
X55834353Y-105638617D01*
X55716910Y-105869112D01*
X55636967Y-106115149D01*
X55596500Y-106370648D01*
X53802993Y-106370648D01*
X53762543Y-106115266D01*
X53762543Y-106115265D01*
X53682625Y-105869304D01*
X53565216Y-105638877D01*
X53485036Y-105528517D01*
X53485034Y-105528516D01*
X52942545Y-106071005D01*
X52850531Y-105933296D01*
X52726704Y-105809469D01*
X52588992Y-105717453D01*
X53131482Y-105174964D01*
X53131481Y-105174963D01*
X53021122Y-105094783D01*
X52790695Y-104977374D01*
X52544733Y-104897456D01*
X52289306Y-104857000D01*
X52030694Y-104857000D01*
X51775266Y-104897456D01*
X51775265Y-104897456D01*
X51529304Y-104977374D01*
X51298884Y-105094779D01*
X51188517Y-105174964D01*
X51188517Y-105174965D01*
X51731006Y-105717453D01*
X51593296Y-105809469D01*
X51469469Y-105933296D01*
X51377453Y-106071006D01*
X50834965Y-105528517D01*
X50834964Y-105528517D01*
X50754779Y-105638884D01*
X50637374Y-105869304D01*
X50557456Y-106115265D01*
X50557456Y-106115266D01*
X50517000Y-106370693D01*
X48723000Y-106370693D01*
X48682543Y-106115266D01*
X48682543Y-106115265D01*
X48602625Y-105869304D01*
X48485216Y-105638877D01*
X48405036Y-105528517D01*
X48405034Y-105528516D01*
X47862545Y-106071005D01*
X47770531Y-105933296D01*
X47646704Y-105809469D01*
X47508992Y-105717453D01*
X48051482Y-105174964D01*
X48051481Y-105174963D01*
X47941122Y-105094783D01*
X47710695Y-104977374D01*
X47464733Y-104897456D01*
X47209306Y-104857000D01*
X46950694Y-104857000D01*
X46695266Y-104897456D01*
X46695265Y-104897456D01*
X46449304Y-104977374D01*
X46218884Y-105094779D01*
X46108517Y-105174964D01*
X46108517Y-105174965D01*
X46651006Y-105717453D01*
X46513296Y-105809469D01*
X46389469Y-105933296D01*
X46297453Y-106071006D01*
X45754965Y-105528517D01*
X45754964Y-105528517D01*
X45674779Y-105638884D01*
X45557374Y-105869304D01*
X45477456Y-106115265D01*
X45477456Y-106115266D01*
X45437000Y-106370693D01*
X43643500Y-106370693D01*
X43643500Y-106370648D01*
X43603051Y-106115266D01*
X43603032Y-106115146D01*
X43523091Y-105869115D01*
X43405647Y-105638618D01*
X43253592Y-105429332D01*
X43070668Y-105246408D01*
X42861382Y-105094353D01*
X42630885Y-104976909D01*
X42384854Y-104896968D01*
X42384852Y-104896967D01*
X42384850Y-104896967D01*
X42129351Y-104856500D01*
X42129346Y-104856500D01*
X41870654Y-104856500D01*
X41870649Y-104856500D01*
X41615149Y-104896967D01*
X41369112Y-104976910D01*
X41138617Y-105094353D01*
X40929329Y-105246410D01*
X40746410Y-105429329D01*
X40594353Y-105638617D01*
X40546877Y-105731795D01*
X40498902Y-105782591D01*
X40436392Y-105799500D01*
X38306004Y-105799500D01*
X38170677Y-105826418D01*
X38170667Y-105826421D01*
X38043192Y-105879222D01*
X37928454Y-105955887D01*
X37928453Y-105955888D01*
X31392885Y-112491457D01*
X31381962Y-112507807D01*
X31381959Y-112507811D01*
X31316228Y-112606182D01*
X31316221Y-112606195D01*
X31263421Y-112733667D01*
X31263418Y-112733677D01*
X31236500Y-112869004D01*
X31236500Y-112869007D01*
X31236500Y-125588806D01*
X31236500Y-125726794D01*
X31236500Y-125726796D01*
X31236499Y-125726796D01*
X28500500Y-125726796D01*
X28500500Y-101624500D01*
X28520185Y-101557461D01*
X28572989Y-101511706D01*
X28624500Y-101500500D01*
X72875500Y-101500500D01*
X72942539Y-101520185D01*
G37*
%TD.AperFunction*%
%TD*%
M02*
